<svg id="Layer_1" data-name="Layer 1" xmlns="http://www.w3.org/2000/svg" viewBox="0 0 500 500"><defs><style>.cls-1{fill:#ff4f5b;}.cls-2,.cls-3,.cls-6{fill:#fff;}.cls-2{opacity:0.3;}.cls-3{opacity:0.7;}.cls-4{fill:#ffc19d;}.cls-5{fill:#1a2e35;}.cls-7{fill:#ff9c6a;}.cls-8{fill:#375a64;}.cls-9{fill:#33535f;}.cls-10{fill:#c78976;}.cls-11{fill:#b66955;}.cls-12{fill:#f2b344;}.cls-13{opacity:0.2;}</style></defs><path class="cls-1" d="M298,87.51A4.84,4.84,0,0,0,291.72,85,8.29,8.29,0,0,0,286.81,90a8.44,8.44,0,0,0-2-6.76,4.89,4.89,0,0,0-6.73-1A6.43,6.43,0,0,0,276,86.38a8.74,8.74,0,0,0,.44,4.75c2.28,5,3.93,6.25,7.5,10.34,5.1-1.77,6.68-2.13,11.14-5.35a8.89,8.89,0,0,0,2.74-3.91A6.5,6.5,0,0,0,298,87.51Z"/><path class="cls-1" d="M265,63.64a2.74,2.74,0,0,0-3.8-.26,4.68,4.68,0,0,0-1.79,3.48,4.75,4.75,0,0,0-2.21-3.29,2.76,2.76,0,0,0-3.78.62,3.61,3.61,0,0,0-.43,2.61,5,5,0,0,0,1,2.47c2.09,2.3,3.18,2.67,5.79,4.26,2.43-1.82,3.21-2.29,5.05-4.78a4.9,4.9,0,0,0,.8-2.55A3.62,3.62,0,0,0,265,63.64Z"/><path class="cls-1" d="M255.57,94.6c-4.12-4.43-11.14-3.88-15.43.08s-6,8.29-6.23,14.59A19.22,19.22,0,0,0,224,96.62c-5.14-2.83-12.14-1.7-15.13,3.58a14.77,14.77,0,0,0-1,10.71c.91,3.58,2.4,7.24,5,9.69,9.1,8.71,13.64,9.91,24.66,15.55,9.3-8.08,12.35-10.19,19.07-20.8,1.89-3,2.46-6.88,2.5-10.59A14.82,14.82,0,0,0,255.57,94.6Z"/><path class="cls-2" d="M298,87.51A4.84,4.84,0,0,0,291.72,85,8.29,8.29,0,0,0,286.81,90a8.44,8.44,0,0,0-2-6.76,4.89,4.89,0,0,0-6.73-1A6.43,6.43,0,0,0,276,86.38a8.74,8.74,0,0,0,.44,4.75c2.28,5,3.93,6.25,7.5,10.34,5.1-1.77,6.68-2.13,11.14-5.35a8.89,8.89,0,0,0,2.74-3.91A6.5,6.5,0,0,0,298,87.51Z"/><path class="cls-3" d="M265,63.64a2.74,2.74,0,0,0-3.8-.26,4.68,4.68,0,0,0-1.79,3.48,4.75,4.75,0,0,0-2.21-3.29,2.76,2.76,0,0,0-3.78.62,3.61,3.61,0,0,0-.43,2.61,5,5,0,0,0,1,2.47c2.09,2.3,3.18,2.67,5.79,4.26,2.43-1.82,3.21-2.29,5.05-4.78a4.9,4.9,0,0,0,.8-2.55A3.62,3.62,0,0,0,265,63.64Z"/><path class="cls-4" d="M317.84,243.74,285,245.88c-.76-3.77-2.63-18.49-2.63-18.49s-13.83-.13-16-13.63-4.31-44.89-4.31-44.89h0a47.46,47.46,0,0,1,48.08-.94l2.23,1.25Z"/><path class="cls-5" d="M270,192.16a2,2,0,1,0-2.71.71A2,2,0,0,0,270,192.16Z"/><path class="cls-5" d="M266.17,190.94c.27.16,1.24-1.23,3-1.8s3.39-.06,3.51-.36c.07-.13-.26-.47-1-.73a4.57,4.57,0,0,0-2.89,0,4.46,4.46,0,0,0-2.33,1.72C266.1,190.4,266,190.87,266.17,190.94Z"/><path class="cls-5" d="M286,187.76a2,2,0,1,0,2.81-.16A2,2,0,0,0,286,187.76Z"/><path class="cls-5" d="M285.45,189c.27.17,1.26-1.2,3.06-1.75s3.39,0,3.52-.3c.06-.13-.26-.48-1-.74a4.62,4.62,0,0,0-5.26,1.64C285.39,188.42,285.32,188.89,285.45,189Z"/><path class="cls-5" d="M280.06,204.19c0-.15-1.2-.21-3.11-.2-.49,0-.89,0-1-.29a2.75,2.75,0,0,1,.15-1.45c.3-1.3.6-2.62.92-4,1.25-5.68,2-10.34,1.74-10.41s-1.54,4.5-2.78,10.18c-.29,1.39-.57,2.71-.84,4a3.19,3.19,0,0,0,0,2.07,1.31,1.31,0,0,0,1,.65,3.29,3.29,0,0,0,.84,0C278.89,204.54,280.06,204.34,280.06,204.19Z"/><path class="cls-6" d="M286.41,205.37a78.12,78.12,0,0,1-8.75,4,5.2,5.2,0,0,0,6.37,1.17C287.86,208.44,286.41,205.37,286.41,205.37Z"/><path class="cls-7" d="M282.28,227.2a31.77,31.77,0,0,0,16.9-7.58s-2.75,10.34-16.42,11.09Z"/><path class="cls-5" d="M263.78,165.26a5.13,5.13,0,1,1,2-9.7,15.1,15.1,0,0,1-4.3-4.57c-1-1.87-1-4.4.47-5.89s3.89-1.5,5.86-.84c3,1,5.47,3.24,8.52,4s6.32,0,9.51-.13a16.8,16.8,0,0,1,10.06,2.57,11.27,11.27,0,0,1,5.14,8.78c4.39-.92,9.3-1.39,13,1.08,3.15,2.09,4.79,5.93,5.11,9.7s-.94,7.47-1.74,11.16h0a7.93,7.93,0,0,1-1.12,2.95l-.85,9.89-6.06.38-1.3-20.33s-.1-8.59-7.4-7.23-16.6,10.49-31.1,9.59c-2.35-.15-4.79-.21-6.84-1.36a6.66,6.66,0,0,1-3.56-5.69C259.32,167.28,261.43,165,263.78,165.26Z"/><path class="cls-4" d="M314.3,182.26c.29-.14,10-2.23,10,9.41s-11.73,7.82-11.75,7.49S314.3,182.26,314.3,182.26Z"/><path class="cls-7" d="M316.11,195.07c.05,0,.2.14.55.29a2,2,0,0,0,1.51,0c1.23-.46,2.26-2.41,2.31-4.51a6.74,6.74,0,0,0-.58-2.9,2.35,2.35,0,0,0-1.53-1.55,1,1,0,0,0-1.19.56c-.16.33-.08.56-.15.58s-.25-.2-.15-.68a1.28,1.28,0,0,1,.45-.73,1.55,1.55,0,0,1,1.12-.3,2.86,2.86,0,0,1,2.13,1.8,6.93,6.93,0,0,1,.71,3.24c-.07,2.35-1.26,4.54-2.94,5a2.18,2.18,0,0,1-1.86-.31C316.13,195.35,316.07,195.09,316.11,195.07Z"/><path class="cls-5" d="M291.28,184.3c-.14.22-1.82-.78-4.12-.79s-4,.87-4.15.65,1.55-1.6,4.16-1.54S291.46,184.15,291.28,184.3Z"/><path class="cls-5" d="M272.27,185.87c0,.25-1.51.25-3.3.35s-3.25.25-3.31,0,1.38-.79,3.26-.88S272.3,185.63,272.27,185.87Z"/><path class="cls-5" d="M297.48,397.86l-1.68.15h-.07l-32.92,2.51-.42,0s-3.92,11.09-9.28,27.64c-.91,2.87-1.89,5.88-2.9,9.06h49.54a5.62,5.62,0,0,0,.14-.56c0,.18,0,.35,0,.56h54.34l.45-21.59v-.07l.21-9.83v0l.25-12.56Z"/><path class="cls-8" d="M325.51,397.4a4.9,4.9,0,0,0,0,1.6,17.92,17.92,0,0,0,.9,4.27,20.78,20.78,0,0,0,22.7,14.16,18.79,18.79,0,0,0,4.23-1.07,4.55,4.55,0,0,0,1.43-.72,41.79,41.79,0,0,1-5.73,1.17,21.06,21.06,0,0,1-22-13.75A42.53,42.53,0,0,1,325.51,397.4Z"/><path class="cls-8" d="M295.78,397.87a6,6,0,0,0-.18,1.62c-.06,1.05-.12,2.56-.17,4.43-.1,3.74-.18,8.91-.21,14.62,0,2.84,0,5.55,0,8s.37,4.86,1.5,6.51a5.59,5.59,0,0,0,3.75,2.48,2.38,2.38,0,0,0,1.65-.22,9.2,9.2,0,0,1-1.59-.11,5.52,5.52,0,0,1-3.29-2.49,11.51,11.51,0,0,1-1.21-6.17c0-2.5.05-5.21.07-8,0-5.7,0-10.87,0-14.61,0-1.87-.06-3.39-.11-4.44A6.12,6.12,0,0,0,295.78,397.87Z"/><path class="cls-8" d="M258.39,417.17a3.55,3.55,0,0,0,1.26,0,18.84,18.84,0,0,0,3.38-.53,28.14,28.14,0,0,0,17.62-13.26,20.54,20.54,0,0,0,1.45-3.1c.27-.76.39-1.19.33-1.21s-.8,1.59-2.32,4a30.74,30.74,0,0,1-17.24,13C260.15,416.84,258.38,417,258.39,417.17Z"/><path class="cls-9" d="M350.52,325.23l.72,19.34,5.22,61.28-96.15-5.45,1.31-65c-.61-16.17.64-42.63-1-56,0,0-3.87-36.54,22.34-40.79h0a58.16,58.16,0,0,0,35,0c3.79.48,10.51-.85,21.22,3,15.82,5.72,16.73,26.34,15.14,46.9Z"/><path class="cls-5" d="M316.64,280.48a11.39,11.39,0,0,1-1.46,1.56l-.08.08-.11-.07c-3.09-2.21-10.09-7.46-18.82-14.12h.52l-8,6.1-10.9,8.22-.27.21-.25-.22-12-10.45-3.38-3a7.09,7.09,0,0,1-1.15-1.16,8.62,8.62,0,0,1,1.32,1l3.54,2.86c3.11,2.61,7.3,6.12,12.19,10.2h-.52l10.86-8.27c2.81-2.13,5.53-4.17,8.05-6.07l.26-.2.25.2c8.68,6.72,15.56,12.13,18.48,14.55H315A12,12,0,0,1,316.64,280.48Z"/><path class="cls-5" d="M312.37,294.18a6.94,6.94,0,0,1-1.29-.92l-3.45-2.78-11.84-9.89.51,0-10.14,7.33-9,6.42-.29.2-.24-.24-11.86-11.43-3.36-3.35a8.51,8.51,0,0,1-1.14-1.27,7.56,7.56,0,0,1,1.33,1.07l3.53,3.17,12.07,11.2-.53,0,8.94-6.46,10.17-7.28.26-.19.25.21L308,290.1l3.29,3A7.59,7.59,0,0,1,312.37,294.18Z"/><path class="cls-4" d="M316.56,288.54l-3,62.93c-26.23.28-51.32-9.17-60.81-13.37-.9-1.2-1.93-2.63-3.06-4.36a15.72,15.72,0,0,1-2.07-4.88,24.11,24.11,0,0,1-.88-6.54c.22-2-2.13-3.26-3.38-1.89s-2,6.92.11,13.13-6.63.7-9.84-1.25-13.43-7.52-14.81-7c-2,.75-1.59,3.06,1.66,4.93s12.61,8.17,11.5,9.82-17.31-8.53-17.31-8.53-3.11-2.73-4.46-.87c-2.43,3.36,15.6,12.87,17.34,13.74,1.2.6.06,2.43-1.2,1.72s-15.94-10.5-18.44-7.11c-1.93,2.6,14.75,8,16.66,11.68s-12.23-5.36-14-2.8c-.65,1-1,1.76,7.88,5.79,4.31,2,12.51,4.61,20,6.85l0,.09s96.35,41.39,107.5,3.6c3.76-12.75,6.08-70,6.08-70Z"/><path class="cls-5" d="M328.55,239.49a18.56,18.56,0,0,0-5.66,4.68,22.29,22.29,0,0,0-3.63,7.07,61.34,61.34,0,0,0-2.09,9.65,128.68,128.68,0,0,0-1.49,17.95c0,2.31,0,4.17,0,5.47a9.6,9.6,0,0,1-.06,2,8.14,8.14,0,0,1-.29-2c-.11-1.29-.23-3.16-.28-5.48a106.07,106.07,0,0,1,1.24-18.09,57.77,57.77,0,0,1,2.19-9.77,22,22,0,0,1,3.93-7.21,14.75,14.75,0,0,1,4.25-3.54A5.8,5.8,0,0,1,328.55,239.49Z"/><path class="cls-10" d="M243.6,437.26H161.26c-2.2-5.31-3.95-9.06-4.4-10.81-5.32-20.33,9.76-46.29,10.63-46.18l15.71,7.52,4,1.92L243,416.44Z"/><path class="cls-5" d="M211.36,174.58c-6.55,1.86-10.2,8.75-12.35,15.21s-3.79,13.55-8.83,18.13-13.52,6.43-15.8,13c-1.35,3.89,0,8.26-.94,12.26-1.19,5-5.71,8.42-10.28,10.73s-9.56,4-13.36,7.42c-8.05,7.25-8,20.8-1.77,29.66s17.1,13.48,27.85,14.79c8.53,1.05,17.53.19,25.05-4,5.62-3.12,10.16-7.93,15.78-11.06,6.87-3.81,14.9-4.88,22.22-7.73s14.55-8.54,15.21-16.37c.52-6.12-3.08-11.76-4.31-17.77-2.5-12.19,4.85-25.05,1.42-37Z"/><path class="cls-4" d="M201.07,252.81l32.5,5.42c1.13-3.67,4.46-18.13,4.46-18.13s13.77,1.25,17.25-12,8.78-44.23,8.78-44.23h0a47.49,47.49,0,0,0-47.75-5.75l-2.34,1Z"/><path class="cls-5" d="M255.17,206.17a2,2,0,1,1,2.75.54A2,2,0,0,1,255.17,206.17Z"/><path class="cls-5" d="M258.94,205c-.26.18-1.31-1.15-3.14-1.61s-3.38.14-3.52-.14c-.08-.13.23-.49.92-.79a4.61,4.61,0,0,1,2.89-.17,4.48,4.48,0,0,1,2.43,1.57C259,204.45,259.07,204.92,258.94,205Z"/><path class="cls-5" d="M238.14,200.32a2,2,0,1,1-2.8,0A2,2,0,0,1,238.14,200.32Z"/><path class="cls-5" d="M238.72,201.68c-.27.18-1.32-1.15-3.14-1.61s-3.39.14-3.53-.14c-.07-.13.24-.49.92-.79a4.63,4.63,0,0,1,2.9-.17,4.56,4.56,0,0,1,2.43,1.57C238.75,201.13,238.84,201.6,238.72,201.68Z"/><path class="cls-5" d="M242.61,217.24c0-.14,1.21-.09,3.11.11.49.07.89.06,1-.19a2.65,2.65,0,0,0,0-1.45l-.52-4.08c-.67-5.78-1-10.5-.69-10.53s1.08,4.63,1.76,10.41c.15,1.41.29,2.75.43,4.08a3.14,3.14,0,0,1-.23,2,1.32,1.32,0,0,1-1,.56,2.88,2.88,0,0,1-.84-.1C243.73,217.71,242.59,217.39,242.61,217.24Z"/><path class="cls-6" d="M236.18,217.78a66,66,0,0,1,8.3,4.84,5.21,5.21,0,0,1-6.46.52C234.42,220.69,236.18,217.78,236.18,217.78Z"/><path class="cls-11" d="M238.1,239.91A31.77,31.77,0,0,1,222,230.68s1.7,10.56,15.23,12.67Z"/><path class="cls-5" d="M228.13,164.42c-5.73,1.59,2.18,16.19,7,17.65,3.19,1,7.3.47,9.2,3.22,1.56,2.25.68,5.62,2.42,7.73,2.37,2.87,7.55,1.2,10.26,3.75a8.68,8.68,0,0,1,2,3.95,7.9,7.9,0,0,0,2,3.91c1.12,1,3.09,1.14,4-.06C265,204.57,269,153,228.13,164.42Z"/><path class="cls-5" d="M198.22,250.56c7.08,1.12,15.24-2.92,15.76-10.07.37-5.06-2.23-10.16-1.06-15.11,1.51-6.39,8.93-10.73,8.75-17.29-.09-3.32-2.19-6.23-3-9.46-1-4.23.35-8.78,2.85-12.33a33.65,33.65,0,0,1,9.71-8.6,9.84,9.84,0,0,0,2.69-2.18,3.12,3.12,0,0,0,.5-3.25c-.52-1-3.33-6.77-4.39-7.09-7.33-2.17-14.58,2.7-20.4,7.66S202.28,187,199.3,198.09Z"/><path class="cls-5" d="M198.22,250.56c0-.08,1.3.13,3.65.05a24,24,0,0,0,4.22-.54,12.75,12.75,0,0,0,5-2.21,8.94,8.94,0,0,0,3.45-5.5c.38-2.36-.67-4.85-1.84-7.35a24,24,0,0,1-1.58-4,8.14,8.14,0,0,1,0-4.64,9.55,9.55,0,0,1,2.66-4,34.13,34.13,0,0,1,3.8-3c2.61-1.83,5.28-3.62,6.63-6.23s1.14-5.59.4-8.2-1.75-5.11-2.47-7.51a18.19,18.19,0,0,1-1-6.92,14.17,14.17,0,0,1,4.36-8.94,12.59,12.59,0,0,1,2.19-1.65,3.51,3.51,0,0,1,.86-.41,25.74,25.74,0,0,0-2.81,2.3,14.14,14.14,0,0,0-4,8.75,17.74,17.74,0,0,0,1,6.65c.73,2.35,1.81,4.78,2.56,7.51a15.74,15.74,0,0,1,.67,4.33,10,10,0,0,1-1.09,4.5c-1.49,2.88-4.29,4.71-6.89,6.55s-5.25,3.72-6.14,6.5.35,5.61,1.47,8.09,2.28,5.17,1.82,7.81a9.47,9.47,0,0,1-3.79,5.87,12.81,12.81,0,0,1-5.33,2.2,22.85,22.85,0,0,1-4.32.41,21.87,21.87,0,0,1-2.72-.2A3.57,3.57,0,0,1,198.22,250.56Z"/><path class="cls-5" d="M239.5,196.39c-.09.24-2.18-.38-4.78-.95s-4.76-.91-4.74-1.17,2.25-.3,4.93.3S239.6,196.17,239.5,196.39Z"/><path class="cls-5" d="M258.15,200.12c-.06.23-1.61,0-3.45-.47s-3.29-1.09-3.22-1.33,1.61,0,3.45.47S258.22,199.88,258.15,200.12Z"/><path class="cls-12" d="M249.79,375.58c-.49,5.84-.95,12.17-1.3,19,1,11.54,2.56,22.77,4.62,33.62.6,3.05,1.23,6.09,1.93,9.06H152.9c.11-2.48.25-4.89.42-7.27.7-9.63,1.4-19.28,3.33-28.45-.11-1,5.84-30.13,24.38-53.29,2.66-3.29-8.74-41.92-8.74-41.92l-3.57-12-1.54-5.14c-6-20.19,10-40.34,31-38.66h.07a4.1,4.1,0,0,0,.53,0,.87.87,0,0,0,.21,0l2.45,0h.59l3.05.07h0l26.63.42a9.76,9.76,0,0,1,2,0,15.5,15.5,0,0,1,1.65.21A18.31,18.31,0,0,1,250,265.71a.44.44,0,0,1,.07.21l6.06,22c.21.84.45,1.65.66,2.42a67.33,67.33,0,0,1-.87,40.37l-2,6-.56,1.58-1,3.08c0,5.42-.63,12.73-1.44,21.65l-.21,2.31C250.38,368.58,250.07,372,249.79,375.58Z"/><path class="cls-5" d="M180.31,305.2a3.39,3.39,0,0,1,.68-.54l2-1.41,7.56-5c6.4-4.23,15.29-10,25.17-16.42l-.13.61-.41-.64-8.89-14.28-3.86-6.25a47,47,0,0,0-3.54-5.26A13.54,13.54,0,0,0,195,252.6a9.68,9.68,0,0,0-3.7-1.15,9.23,9.23,0,0,0-3.3.41,2.2,2.2,0,0,1,.8-.39,6.82,6.82,0,0,1,2.52-.37,9.67,9.67,0,0,1,3.91,1.06,13.74,13.74,0,0,1,4.13,3.4,45.52,45.52,0,0,1,3.68,5.28L207,267l9,14.25.4.64.23.37-.37.24c-9.88,6.38-18.82,12.09-25.31,16.19l-7.71,4.81-2.12,1.27A3.47,3.47,0,0,1,180.31,305.2Z"/><g class="cls-13"><path d="M180,305.41a117.39,117.39,0,0,0,19.43,38.88c3.38,4.46,7.92,9,13.51,8.76,2.91-.16,6.1-2.66,5.27-5.45a6.6,6.6,0,0,0-1.6-2.43l-34.72-38.4Z"/></g><path class="cls-5" d="M207.52,418.82s.32-.18.95-.13a4,4,0,0,1,2.34,1.18,4.38,4.38,0,0,1,1.3,3.69,4.35,4.35,0,0,1-7.85,1.36,4.39,4.39,0,0,1,0-3.91,4,4,0,0,1,1.81-1.9c.57-.26.93-.23.94-.19a4.75,4.75,0,0,0-2.17,2.34,3.87,3.87,0,0,0,.15,3.26,3.59,3.59,0,0,0,6.33-1.1,3.85,3.85,0,0,0-1-3.12A4.85,4.85,0,0,0,207.52,418.82Z"/><path class="cls-5" d="M232.85,383s.32-.18.94-.13a4,4,0,0,1,2.35,1.17,4.41,4.41,0,0,1,1.29,3.7,4.34,4.34,0,0,1-7.84,1.35,4.36,4.36,0,0,1,0-3.91,4,4,0,0,1,1.81-1.89c.57-.26.93-.24.93-.2a4.81,4.81,0,0,0-2.17,2.34,3.87,3.87,0,0,0,.16,3.26,3.59,3.59,0,0,0,6.33-1.09,3.87,3.87,0,0,0-.95-3.13A4.8,4.8,0,0,0,232.85,383Z"/><path class="cls-5" d="M238.6,284.83s.32-.19.94-.13a4,4,0,0,1,2.34,1.17,4.39,4.39,0,0,1,1.3,3.69,4.35,4.35,0,0,1-7.85,1.36,4.38,4.38,0,0,1,0-3.91,3.9,3.9,0,0,1,1.81-1.89c.57-.27.93-.24.93-.2a4.81,4.81,0,0,0-2.17,2.34,3.87,3.87,0,0,0,.16,3.26,3.59,3.59,0,0,0,6.33-1.1,3.93,3.93,0,0,0-.95-3.12A4.8,4.8,0,0,0,238.6,284.83Z"/><path class="cls-5" d="M184.19,273.47s.32-.19.95-.13a4,4,0,0,1,2.34,1.17,4.39,4.39,0,0,1,1.3,3.69,4.35,4.35,0,0,1-7.85,1.36,4.39,4.39,0,0,1,0-3.91,3.9,3.9,0,0,1,1.81-1.89c.57-.27.93-.24.94-.2a4.81,4.81,0,0,0-2.17,2.34,3.87,3.87,0,0,0,.15,3.26,3.59,3.59,0,0,0,6.33-1.1,3.86,3.86,0,0,0-.95-3.12A4.8,4.8,0,0,0,184.19,273.47Z"/><path class="cls-5" d="M186.46,381.71s.32-.18.95-.13a4,4,0,0,1,2.34,1.17,4.41,4.41,0,0,1,1.3,3.7,4.35,4.35,0,0,1-7.85,1.35,4.39,4.39,0,0,1,0-3.91A4,4,0,0,1,185,382c.57-.26.93-.24.94-.2a4.76,4.76,0,0,0-2.17,2.34,3.87,3.87,0,0,0,.15,3.26,3.59,3.59,0,0,0,6.33-1.09,3.87,3.87,0,0,0-1-3.13A4.8,4.8,0,0,0,186.46,381.71Z"/><path class="cls-4" d="M351.07,322.85c-.46-.73-4.68,1.77-7.89,3.81-.09-.2-.18-.39-.28-.58,5.77-4,8.86-7.65,8.07-8.89-.6-.95-7.64,3.6-10.42,5.46l-.13-.23c9.94-9.79,9.72-10.6,9.76-13.14,0-2.2-9.2,6.25-12.23,9.08a3.58,3.58,0,0,0-.43-.51c-1.33-1.32,6.16-8.83,8.86-11.18s2.65-4.54.64-4.87c-1.37-.22-9.82,6.79-12.44,9.17s-9.68,9.07-8.88,2.95-.88-11.14-2.28-12.18-3.36.53-2.79,2.37a22.56,22.56,0,0,1,.38,6.21,14.6,14.6,0,0,1-1,4.89c-.73,1.82-1.42,3.33-2,4.6-8,5.61-31.2,20.61-55.53,25.12C258,345.74,214,283.66,214,283.66L181.64,305s23.16,30.11,52.9,62.82c24.91,27.39,91.39-22.53,105.88-34l.78-.5a7,7,0,0,0,1.52-1.34l.52-.43h0C348.86,327.66,351.85,324.08,351.07,322.85Z"/></svg>