<svg id="Layer_1" data-name="Layer 1" xmlns="http://www.w3.org/2000/svg" viewBox="0 0 150 150"><defs><style>.cls-1{fill:#3d280e;}.cls-1,.cls-13{opacity:0.2;}.cls-2{fill:#f5d4a2;}.cls-3{fill:#cc9c62;}.cls-4{fill:#45301c;}.cls-5{fill:#362512;}.cls-6{fill:#fdffeb;}.cls-7{fill:#87602d;}.cls-8{fill:#543b22;}.cls-9{fill:#422d16;}.cls-10{fill:#6e4115;}.cls-11{fill:#915821;}.cls-12{fill:#593511;}.cls-13,.cls-14{fill:#ffdebf;}.cls-14{opacity:0.25;}</style></defs><path class="cls-1" d="M88.85,132.43a37.36,37.36,0,0,0,3.9-1.57c11.79-5.62-4.53-11.14-9.38-11.94a111.41,111.41,0,0,0-21-1.12c-4.34.12-23.81-.24-25.17,5.55-2,8.52,20.29,10.28,25.22,10.77C71.28,135,80.51,135.23,88.85,132.43Z"/><path class="cls-1" d="M85.35,137.51c-1.62-.71-3.36-1.77-3.71-3.5-.45-2.25,1.69-4.18,3.79-5.1a16,16,0,0,1,9.19-1.1c-1.25-.06-1.68-1.94-.89-2.92a4.57,4.57,0,0,1,3.44-1.24c4.47-.18,8.88.94,13.22,2,1.36.35,2.87.8,3.59,2,1,1.75-.3,4.15-2.17,5s-4,.49-6,.16a4,4,0,0,1,.7,5.11c-1.58,2.38-6.48,2.21-9,2.17A31.7,31.7,0,0,1,85.35,137.51Z"/><path class="cls-2" d="M66.49,130.34a55.07,55.07,0,0,0,19.87.64c9.88-1.33,14.77-12.88,17.42-21.44,1-3.32,6.56-36.93,3.2-38.58-2.76-1.36-9.69,1.27-12.73,1.53a140.55,140.55,0,0,1-14.66.35c-11.47-.23-22.82-1.84-34.15-.42-1,10.72,2,32.55,6.21,42.4,3,5.92,6.55,12.8,13.32,15.09C65.46,130.07,66,130.22,66.49,130.34Z"/><path class="cls-3" d="M87.7,127.23a55.07,55.07,0,0,1-19.87-.64c-.52-.12-1-.27-1.52-.43C59.54,123.87,55.94,117,53,111.07c-3.76-8.84-6.55-27.33-6.39-38.78l-1.16.13c-1,10.72,2,32.55,6.21,42.4,3,5.92,6.55,12.8,13.32,15.09.49.16,1,.31,1.52.43a55.07,55.07,0,0,0,19.87.64c9.35-1.26,14.23-11.68,17-20C100.42,118.39,95.69,126.16,87.7,127.23Z"/><path class="cls-3" d="M88.88,128a58.93,58.93,0,0,1-20.94-.67,16.35,16.35,0,0,1-1.6-.44c-13.26-4.4-16.48-21.27-18.6-33.09a147.48,147.48,0,0,1-2.23-21.38,68.8,68.8,0,0,0-.23,8.85c-3-1.24-6.69-.16-9.06,2.1-7.89,7.52-5,19.71,2,26.73a21.69,21.69,0,0,0,6,4.29,17.33,17.33,0,0,0,3.56,1.26c.91.22,3.08,0,3.77.41,2,1.21,3.78,6,5.39,7.91a18,18,0,0,0,8,5.92c.49.16,1,.31,1.52.43a55.07,55.07,0,0,0,19.87.64c4.31-.58,7.67-3.11,10.31-6.48A15.07,15.07,0,0,1,88.88,128Zm-40-21.33c0,.31,0,.63,0,.94-.11,1.83,0,2.18-2.07,2.22a7,7,0,0,1-3.57-1.17c-4.41-2.66-7.52-9.3-7-14.39C36.63,89.84,40,85,45,86c1.58.31,1.54,7.21,1.71,8.41C47.25,98.23,48.86,102.72,48.9,106.69Z"/><path class="cls-2" d="M107,71.4a5.75,5.75,0,0,0-2.51-3.89c-7.88-6.09-61.92-9.17-58.82,7.14,1.76,9.26,29.2,7.42,35.3,7.1,6.73-.35,15.14-.66,21.28-3.81h0C105.05,76.5,107.27,74,107,71.4Z"/><path class="cls-3" d="M104.33,71.32a4.66,4.66,0,0,0-2.28-3.18c-7.21-5-56.56-7.5-53.72,5.83C49.94,81.54,75,80,80.57,79.77c6.14-.29,13.82-.54,19.43-3.11h0C102.55,75.48,104.58,73.45,104.33,71.32Z"/><path class="cls-4" d="M50.48,76.79c6.51,4.33,25.35,3.2,30.09,3,6.14-.29,13.82-.54,19.43-3.11h0a10.74,10.74,0,0,0,1.53-.85C94.21,71.79,59.7,69.64,50.48,76.79Z"/><path class="cls-5" d="M71.27,72.16c11.23.49,21.8,2.63,26.39,5.41a24.17,24.17,0,0,0,2.34-.91h0a10.74,10.74,0,0,0,1.53-.85C97.25,73.45,83.66,71.74,71.27,72.16Z"/><path class="cls-6" d="M100.56,78.06a29.49,29.49,0,0,1-3.53,1,42.42,42.42,0,0,1-5.78,1.32c-2.53.43-5.08.69-7.63.87l-4,.27c-.62,0-1.24.08-1.87.14s-1.6.44-2.13.18c0,0,0,0,0,0-.47,1.48,5,1,5.74.94C87.61,82.53,95.59,82.39,100.56,78.06Z"/><path class="cls-6" d="M69.88,81.91c-1.67-.2-3.38-.14-5-.25s-3.34-.41-5-.48c-.23,0-.26.32-.05.39a22.22,22.22,0,0,0,5.07.78,19.28,19.28,0,0,0,5.09-.13C70.11,82.18,70,81.93,69.88,81.91Z"/><path class="cls-7" d="M85.45,72.22A22,22,0,0,0,81,71.83c-1.62-.08-3.23-.15-4.85-.19a77.12,77.12,0,0,0-9.37.27c-5.49.53-11.25,1.78-16,4.7A.23.23,0,0,0,51,77a47.74,47.74,0,0,1,10.1-3.48.38.38,0,0,0-.17.34.44.44,0,1,0,.87,0,.45.45,0,0,0-.33-.42l.12,0a.38.38,0,0,0,.48.23.62.62,0,0,0,.25-.14.34.34,0,0,0,.1-.26c1.62-.31,3.27-.55,4.95-.71a80.14,80.14,0,0,1,8.77-.27c1.54,0,3.09.08,4.63.15a26.57,26.57,0,0,0,4.63.13C85.59,72.53,85.66,72.27,85.45,72.22Z"/><path class="cls-8" d="M89.76,73a12.4,12.4,0,0,0-2.42-.43.13.13,0,0,0,0,.26,12.56,12.56,0,0,0,2.44.33A.08.08,0,0,0,89.76,73Z"/><path class="cls-7" d="M91.74,75.8c-2.73-.82-5.86-.84-8.69-1-3-.15-6.09-.17-9.13,0-2.85.13-5.69.38-8.51.77-2.38.33-5,.65-6.87,2.34-.1.09,0,.25.15.19A19.73,19.73,0,0,1,66.35,76c2.8-.32,5.62-.54,8.44-.64s5.51-.07,8.26.08,5.78.73,8.65.69A.16.16,0,0,0,91.74,75.8Z"/><path class="cls-7" d="M84.1,78.74c-.39-.8-2-.71-2.74-.79a27.48,27.48,0,0,0-9.27.22.08.08,0,0,0,0,.15c1.82,0,3.63-.23,5.46-.18.84,0,1.68.08,2.52.16.54,0,1.08.11,1.61.19l.83.13a1,1,0,0,1,.93.57.27.27,0,0,0,0,.53A.67.67,0,0,0,84.1,78.74Z"/><path class="cls-7" d="M94.17,76c-.29-.07-.78,0-.88.3a.35.35,0,0,0,0,.38.32.32,0,0,0,.27.14.33.33,0,0,0,.15,0,.3.3,0,0,0,.13,0h.14a.44.44,0,0,0,.23-.85Z"/><path class="cls-8" d="M89.37,73v0h0a.41.41,0,0,0-.21-.36c-.2-.1-.51-.1-.6.15a.47.47,0,0,0,.13.54v0l0,0a.2.2,0,0,0,0,.05.24.24,0,0,1,0,.07.35.35,0,0,0,0,.11.15.15,0,0,0,.15.12.3.3,0,0,0,.22-.08s.08-.07,0,0a.34.34,0,0,0,.14-.19,1,1,0,0,0,.06-.25A.77.77,0,0,0,89.37,73Z"/><path class="cls-9" d="M89.42,74.19a.42.42,0,0,0-.37-.37.45.45,0,0,0-.43.21.44.44,0,0,0,.07.52l0,0a.41.41,0,0,0,.48.06h0A.43.43,0,0,0,89.42,74.19Z"/><path class="cls-8" d="M93.16,74a.43.43,0,0,0-.3.73.41.41,0,0,0,.13.1v0a.24.24,0,0,0,.32,0l0,0a.91.91,0,0,0,.13-.1A.43.43,0,0,0,93.16,74Z"/><path class="cls-8" d="M97.41,75.66a.22.22,0,0,0-.44,0v.11a.23.23,0,0,0,.23.24.24.24,0,0,0,.24-.24Z"/><path class="cls-7" d="M64.87,73a.4.4,0,0,0-.55.37v0a.41.41,0,0,0,.05.19.41.41,0,0,0,.66,0A.4.4,0,0,0,64.87,73Z"/><path class="cls-7" d="M66.89,77.46a.55.55,0,0,0-.44-.14.44.44,0,0,0-.44.43.44.44,0,0,0,.44.44.59.59,0,0,0,.44-.15A.43.43,0,0,0,66.89,77.46Z"/><path class="cls-7" d="M69.13,76.47a.75.75,0,0,0-.33-.1h-.07c-.07,0-.08,0,0,0h-.11l-.12.06a.38.38,0,0,0-.19.39.43.43,0,0,0,.28.34s0,0,0,0l.12,0,.11,0a.43.43,0,0,0,.33-.79Z"/><path class="cls-7" d="M70.05,78l0,0a.16.16,0,0,0-.24,0l-.05,0c-.09.08-.12.15-.1.21s.14.14.27.14h0c.13,0,.26,0,.27-.14S70.14,78.06,70.05,78Z"/><path class="cls-7" d="M71.52,76.81a.2.2,0,0,0,0,.39A.2.2,0,0,0,71.52,76.81Z"/><path class="cls-6" d="M99.24,66.73A48.2,48.2,0,0,0,90.73,65a33.22,33.22,0,0,0-8.32-.55c-.1,0-.15.18,0,.2,2.76.53,5.62.56,8.39,1s5.53,1.17,8.31,1.72A.3.3,0,0,0,99.24,66.73Z"/><path class="cls-2" d="M43.66,81.89c-3.56-.63-7.08,1.58-9.06,4.43s-3.19,7.82-1.36,11.19a.3.3,0,0,0,.56-.15c.18-1.59.09-3.23.25-4.83a11.79,11.79,0,0,1,1.65-5,10.32,10.32,0,0,1,7.83-4.69C44,82.79,44.26,82,43.66,81.89Z"/><path class="cls-3" d="M55.65,80.4a15,15,0,0,1-5.93-2,10,10,0,0,1-3.6-5c0-.12-.26-.12-.25,0C46,78,51.33,81,55.24,81.88,56.2,82.08,56.61,80.6,55.65,80.4Z"/><path class="cls-10" d="M105.39,120.39c-3.16.21-6.61,1.77-7.48,4.82s1.41,6.38,4.37,7.61,6.32.86,9.45.16c3-.66,8.14-3.53,6.44-7.41S109,120.16,105.39,120.39Z"/><path class="cls-11" d="M107.31,129.56c2.87.41,6.19.82,8.81-.74s.79-5.34-1.31-6.72a11.11,11.11,0,0,0-6.44-1.45c-2.14.06-8.61.31-9.2,3.2C98.47,127.23,105,129.23,107.31,129.56Z"/><path class="cls-10" d="M117.78,126.8a3.39,3.39,0,0,0-1.07-.5l-.33-.14a2.43,2.43,0,0,0-1-.31l-.31-.08a3.12,3.12,0,0,0-.89-.35,4.27,4.27,0,0,0-.8,0l-.91-.16-.11-.06c-.35-.25-.25-.52-.79-.6a3.41,3.41,0,0,0-.63,0,3.07,3.07,0,0,1-1.59,0,16.11,16.11,0,0,0-2.54-.67c-.89-.1-1.74.39-2.59.26s-1-.66-1.82-.68a13.53,13.53,0,0,0-2.35.22.36.36,0,0,0-.38-.22l-.43,0a.28.28,0,0,0-.29.26c-.43.31-.69.79-.06,1.16.39.23,1,0,1.45,0a20.28,20.28,0,0,1,2.7,0,9.39,9.39,0,0,1,1.24.46c1.53.67,3.11.09,4.64.69a2.49,2.49,0,0,0,1.35.21,5.56,5.56,0,0,1,2.56.38,4,4,0,0,0,1.67.2c1.41-.17,1.84.3,2.65,1.28a.44.44,0,0,0,.77-.24,1.55,1.55,0,0,0-.1-.67A.3.3,0,0,0,117.78,126.8Z"/><path class="cls-12" d="M114.42,129.53a1.12,1.12,0,0,0-.61.14l-.23.14a2,2,0,0,0-.18.23c-.09.1,0,.28.14.21a3.33,3.33,0,0,1,.45-.13c.17-.05.35-.08.51-.14S114.64,129.55,114.42,129.53Z"/><path class="cls-12" d="M116.51,126a6.94,6.94,0,0,0-2.6-.44,19.54,19.54,0,0,1-3.19-1,47.15,47.15,0,0,0-5.57-.58c-1.74-.23-3.41-1.11-5.15-.45-.19.08-.08.36.11.34,1.63-.22,3.2.44,4.79.66s3,.19,4.53.45,2.86,1.15,4.41,1.27a5.53,5.53,0,0,1,2.6.54,3.47,3.47,0,0,0,.57.37l.32.12a.3.3,0,0,0,.17.27l.11,0a.3.3,0,0,0,.31-.06C118.69,126.8,117,126.23,116.51,126Z"/><path class="cls-11" d="M115,130.47a31.84,31.84,0,0,1-3.59,1.41,21.27,21.27,0,0,1-3.47.36.16.16,0,0,0,0,.31c2.28.54,5.63,0,7.42-1.57A.31.31,0,0,0,115,130.47Z"/><path class="cls-11" d="M116.05,129.71l0,0a.37.37,0,0,0,.3.65h0a.39.39,0,0,0,.28-.54A.38.38,0,0,0,116.05,129.71Z"/><path class="cls-12" d="M111.16,133.15a23.37,23.37,0,0,0-3.74,0,13.58,13.58,0,0,1-4-.67,8.59,8.59,0,0,1-5.53-6c0-.09-.2-.11-.19,0,.08,2.69,2.44,5.09,4.73,6.21a12.35,12.35,0,0,0,4.3,1.14,8.87,8.87,0,0,0,4.49-.4A.18.18,0,0,0,111.16,133.15Z"/><path class="cls-10" d="M97.34,125.63c-3-1.19-6.92-1.25-9.06,1.19s-1.48,6.55.73,9,5.49,3.58,8.71,4.29c3,.68,9.1.29,9.22-4.07C107.06,131.84,100.81,127,97.34,125.63Z"/><path class="cls-11" d="M95.11,135c2.48,1.64,5.39,3.47,8.51,3.16s3.07-4.6,1.72-6.81a11.33,11.33,0,0,0-5.35-4.17c-2-.88-8.13-3.47-9.94-1C87.92,129,93.12,133.68,95.11,135Z"/><path class="cls-10" d="M106,137a3.41,3.41,0,0,0-.77-.93,3.2,3.2,0,0,0-.25-.27,2.54,2.54,0,0,0-.83-.76l-.26-.21a3,3,0,0,0-.67-.71,4.23,4.23,0,0,0-.74-.36l-.78-.55a.86.86,0,0,1-.07-.1c-.22-.39,0-.59-.48-.9a2.34,2.34,0,0,0-.61-.23,3.31,3.31,0,0,1-1.45-.75,16.27,16.27,0,0,0-2.06-1.73c-.78-.48-1.79-.41-2.52-.89s-.67-1.07-1.39-1.43a14.38,14.38,0,0,0-2.28-.83.38.38,0,0,0-.26-.37l-.42-.16a.33.33,0,0,0-.39.12c-.53.1-1,.43-.55,1,.26.39.95.46,1.35.62a19.19,19.19,0,0,1,2.49,1.23,9.59,9.59,0,0,1,1,1c1.13,1.29,2.85,1.44,4,2.67a2.54,2.54,0,0,0,1.16.79,5.6,5.6,0,0,1,2.22,1.48,4,4,0,0,0,1.46.91c1.38.46,1.57,1.09,1.9,2.36a.45.45,0,0,0,.82.1,1.78,1.78,0,0,0,.2-.66A.3.3,0,0,0,106,137Z"/><path class="cls-12" d="M101.73,138.07a1.35,1.35,0,0,0-.63-.14l-.27,0a1.69,1.69,0,0,0-.27.13c-.13.05-.13.26,0,.26a4,4,0,0,1,.48.07c.18,0,.36.08.54.1S101.93,138.19,101.73,138.07Z"/><path class="cls-12" d="M105.22,135.69a7.22,7.22,0,0,0-2.22-1.55,19.6,19.6,0,0,1-2.54-2.28c-1.48-1.24-3.31-1.94-4.92-3s-2.68-2.52-4.59-2.67c-.21,0-.23.29,0,.35,1.61.52,2.78,1.82,4.17,2.72s2.73,1.5,4,2.4,2.14,2.32,3.54,3.12a5.57,5.57,0,0,1,2.18,1.63,3.21,3.21,0,0,0,.36.59l.25.25a.28.28,0,0,0,0,.33l.08.08a.32.32,0,0,0,.32.08C106.89,137.4,105.57,136.13,105.22,135.69Z"/><path class="cls-11" d="M101.89,139.21a30.82,30.82,0,0,1-4-.26,21.6,21.6,0,0,1-3.39-1.18c-.15-.06-.28.17-.16.27,1.89,1.51,5.21,2.51,7.58,1.8A.32.32,0,0,0,101.89,139.21Z"/><path class="cls-11" d="M103.17,139h0a.38.38,0,0,0,0,.73h0a.39.39,0,0,0,.49-.37A.4.4,0,0,0,103.17,139Z"/><path class="cls-12" d="M97.12,140a24.13,24.13,0,0,0-3.5-1.61A13.48,13.48,0,0,1,90.21,136a8.77,8.77,0,0,1-2.52-8c0-.1-.14-.19-.19-.08-1.1,2.54,0,5.8,1.68,7.84a12.48,12.48,0,0,0,3.49,2.94,9.12,9.12,0,0,0,4.35,1.6A.18.18,0,0,0,97.12,140Z"/><path class="cls-12" d="M91.81,131.75c-.48-.94-1.39-1.43-1.7-2.52a4.92,4.92,0,0,1,.37-3.18c0-.15-.17-.28-.27-.16-1.39,1.73-.7,5.21,1.48,6C91.78,131.94,91.85,131.82,91.81,131.75Z"/><path class="cls-12" d="M89.57,129.87h0c-.29,0-.29.47,0,.45h0A.22.22,0,0,0,89.57,129.87Z"/><path class="cls-13" d="M84.26,21.52a30.17,30.17,0,0,0,3.18-1.15c1.43-.62,3-1.56,3.28-3.1.36-1.83-1.29-3.52-3.07-4.07s-3.69-.31-5.55-.43-3.89-.76-4.79-2.39a2,2,0,0,1-.13-1.87,2.48,2.48,0,0,1,1.22-.94A15.3,15.3,0,0,1,82.88,6.3c-2.77.34-5-.17-7.68,1.19-1.49.76-4.71,3.18-2.4,5a6.64,6.64,0,0,0,2.67.79c.92.22,1.9.93,1.77,1.85a2,2,0,0,1-1,1.28c-2.47,1.68-5.63,1.83-8.61,2-7.44.51-15,1.77-21.51,5.39a18.14,18.14,0,0,0-6.74,5.94,6.08,6.08,0,0,0-1.08,4.32c.55,2.73,3.62,4,6.28,4.86A85.38,85.38,0,0,0,61,42.57c4.26.43,8.89.48,12.25,3.13a5.37,5.37,0,0,1,2.3,4,4.94,4.94,0,0,1-2.19,3.79,14,14,0,0,1-4.13,1.84q-4.89,1.55-9.84,2.86c-2.79.74-6.1,1.93-6.64,4.77a4.87,4.87,0,0,0,1.68,4.34,10.17,10.17,0,0,0,4.34,2.1c2.12.55,4.3.79,6.46,1.14a8,8,0,0,1,3.14,1,3,3,0,0,1,1.49,2.77,1.88,1.88,0,0,1-2.41,1.56c1.18.79,3-.19,3.27-1.58a3.76,3.76,0,0,0-1.67-3.66,10.89,10.89,0,0,0-3.94-1.54L59,67.6a8.87,8.87,0,0,1-3.22-1.27,3,3,0,0,1-1.31-3,4.05,4.05,0,0,1,2.18-2.26,18.3,18.3,0,0,1,6.67-2.13A3.4,3.4,0,0,0,64,62.65a7.85,7.85,0,0,0,3.44,2,24.43,24.43,0,0,0,6,1.22c1.49.11,3.17.17,4.17,1.28,1.13,1.27.77,3.31-.13,4.75s-2.24,2.58-3.09,4a11.24,11.24,0,0,0,4.27-4.49A5.46,5.46,0,0,0,78,65.57c-2.27-2.46-6.31-1.48-9.51-2.43-1.33-.39-2.71-1.43-2.59-2.81s1.57-2.13,2.85-2.6c8-2.95,16.67-3.86,24.33-7.54,1.79-.86,3.78-2.42,3.35-4.36a4.14,4.14,0,0,0-1.67-2.21c-4.32-3.32-10.11-3.84-15.55-4.11S68.05,39,63.47,36c-2-1.26-3.76-3.49-3.08-5.72a5.78,5.78,0,0,1,3-3C69.71,23.75,77.34,23.63,84.26,21.52Zm-2,22.15a.73.73,0,0,1,.46-.38l.23-.07c2.09-.46,6,1,5.88,3.57-.07,1.77-1.93,2.86-3.58,3.51-4.06,1.61-1.26-1.38.52-2.73a1.32,1.32,0,0,0,.54-.65c.17-.68-.74-1.07-1.42-1.27a7.79,7.79,0,0,1-2-.89C82.47,44.52,82.05,44.1,82.23,43.67ZM62.79,39.23a16.61,16.61,0,0,1-7.94-.35c-3.4-.88-6.62-2.59-7.62-5-1.67-4,1.79-8.47,5.81-8.72a3.64,3.64,0,0,1,1.47.1,1.25,1.25,0,0,1,.88,1.09,1.51,1.51,0,0,1-.35.87c-1.34,1.85-4.73,3.12-3.93,5.9C52.1,36.6,59.89,38.53,62.79,39.23Z"/><path class="cls-14" d="M82.75,37.52a86.68,86.68,0,0,1,11.32,2.07c1.93.5,4,1.15,5.17,2.77a5.69,5.69,0,0,1,.61,5,10.51,10.51,0,0,1-2.92,4.3c3.15-1.43,6.63-3.64,6.83-7.1.16-2.62-1.79-5-4.14-6.17S94.58,37,92,36.84L77.44,35.78a5.26,5.26,0,0,0-1.58-.05C77.62,37.18,80.48,37.26,82.75,37.52Z"/><path class="cls-14" d="M89.94,59.81c-1.62-.94-4-.06-5.61.65S80.5,62.88,80.73,65s2.73,3,4.44,3.73c1.32.6,2.35,2.13,1.54,3.54S84.34,73.82,83,74.19a.39.39,0,0,0,.1.77,9,9,0,0,0,6.12-2.51,2.76,2.76,0,0,0,.67-2.83A4.12,4.12,0,0,0,88.34,68c-1.1-.8-4.55-1.77-5.21-2.71-2.45-3.47,4.71-5.48,7-5.4Z"/><path class="cls-6" d="M104.65,81.61c0-.28-.51-.27-.56,0-.67,3.45-.69,7-1,10.49a97.87,97.87,0,0,1-1.62,10.5,69.93,69.93,0,0,1-2.89,9.92,53,53,0,0,1-2.11,4.91c-.42.83-.88,1.63-1.36,2.42-.27.45-1,2-1.43,1.93s-.8.62-.6,1.06c.81,1.78,2.47-.15,3-1.07.94-1.75,1.8-3.55,2.61-5.36a66.7,66.7,0,0,0,3.8-11.27,89.88,89.88,0,0,0,2-11.64A46.42,46.42,0,0,0,104.65,81.61Z"/></svg>