<svg id="Layer_1" data-name="Layer 1" xmlns="http://www.w3.org/2000/svg" xmlns:xlink="http://www.w3.org/1999/xlink" viewBox="0 0 150 150"><defs><style>.cls-1{mask:url(#mask);filter:url(#luminosity-noclip-6);}.cls-10,.cls-2,.cls-4,.cls-6,.cls-8{mix-blend-mode:multiply;}.cls-2{fill:url(#radial-gradient);}.cls-3,.cls-5{mask:url(#mask-2);}.cls-3{filter:url(#luminosity-noclip-7);}.cls-4{fill:url(#linear-gradient);}.cls-6{fill:url(#linear-gradient-2);}.cls-7,.cls-9{mask:url(#mask-4);}.cls-7{filter:url(#luminosity-noclip-9);}.cls-8{fill:url(#linear-gradient-3);}.cls-10{fill:url(#linear-gradient-4);}.cls-11{fill:url(#linear-gradient-5);}.cls-12{fill:url(#linear-gradient-6);}.cls-13{fill:url(#linear-gradient-7);}.cls-14{fill:url(#linear-gradient-8);}.cls-15{mask:url(#mask-6);}.cls-16{opacity:0.3;fill:url(#radial-gradient-2);}.cls-17{opacity:0.5;}.cls-18{mask:url(#mask-7);}.cls-19{fill:url(#linear-gradient-9);}.cls-20{fill:url(#linear-gradient-10);}.cls-21{mask:url(#mask-9);}.cls-22{fill:url(#linear-gradient-11);}.cls-23{fill:url(#linear-gradient-12);}.cls-24{filter:url(#luminosity-noclip-4);}.cls-25{filter:url(#luminosity-noclip-2);}.cls-26{filter:url(#luminosity-noclip);}</style><filter id="luminosity-noclip" x="55.94" y="-7412.19" width="38.12" height="32766" filterUnits="userSpaceOnUse" color-interpolation-filters="sRGB"><feFlood flood-color="#fff" result="bg"/><feBlend in="SourceGraphic" in2="bg"/></filter><mask id="mask" x="55.94" y="-7412.19" width="38.12" height="32766" maskUnits="userSpaceOnUse"><g class="cls-26"/></mask><radialGradient id="radial-gradient" cx="75" cy="7440.2" r="19.07" gradientTransform="translate(0 -822.3) scale(1 0.13)" gradientUnits="userSpaceOnUse"><stop offset="0" stop-color="#fff"/><stop offset="1"/></radialGradient><filter id="luminosity-noclip-2" x="44.71" y="-7412.19" width="45.3" height="32766" filterUnits="userSpaceOnUse" color-interpolation-filters="sRGB"><feFlood flood-color="#fff" result="bg"/><feBlend in="SourceGraphic" in2="bg"/></filter><mask id="mask-2" x="44.71" y="-7412.19" width="45.3" height="32766" maskUnits="userSpaceOnUse"><g class="cls-25"/></mask><linearGradient id="linear-gradient" x1="101.49" y1="82.94" x2="57.41" y2="49.5" gradientTransform="matrix(1, 0, 0, 1, 0, 0)" xlink:href="#radial-gradient"/><linearGradient id="linear-gradient-2" x1="1069.17" y1="1551.51" x2="1025.09" y2="1518.07" gradientTransform="matrix(0.87, 0.5, -0.5, 0.87, -50.24, -1745.99)" xlink:href="#radial-gradient"/><filter id="luminosity-noclip-4" x="55.2" y="-7412.19" width="34.33" height="32766" filterUnits="userSpaceOnUse" color-interpolation-filters="sRGB"><feFlood flood-color="#fff" result="bg"/><feBlend in="SourceGraphic" in2="bg"/></filter><mask id="mask-4" x="55.2" y="-7412.19" width="34.33" height="32766" maskUnits="userSpaceOnUse"><g class="cls-24"/></mask><linearGradient id="linear-gradient-3" x1="102.72" y1="81.31" x2="58.64" y2="47.87" gradientTransform="matrix(1, 0, 0, 1, 0, 0)" xlink:href="#radial-gradient"/><linearGradient id="linear-gradient-4" x1="1070.59" y1="1549.64" x2="1026.51" y2="1516.2" gradientTransform="matrix(0.87, 0.5, -0.5, 0.87, -50.24, -1745.99)" xlink:href="#radial-gradient"/><linearGradient id="linear-gradient-5" x1="58.69" y1="21.46" x2="97.23" y2="111.16" gradientUnits="userSpaceOnUse"><stop offset="0" stop-color="#fff"/><stop offset="1" stop-color="#790000"/></linearGradient><linearGradient id="linear-gradient-6" x1="58.38" y1="21.59" x2="96.93" y2="111.29" xlink:href="#linear-gradient-5"/><linearGradient id="linear-gradient-7" x1="58.86" y1="32.69" x2="102.07" y2="105.92" gradientUnits="userSpaceOnUse"><stop offset="0" stop-color="#f4803a"/><stop offset="1" stop-color="#be2026"/></linearGradient><linearGradient id="linear-gradient-8" x1="58.76" y1="32.75" x2="101.97" y2="105.98" xlink:href="#linear-gradient-7"/><filter id="luminosity-noclip-6" x="55.94" y="115.74" width="38.12" height="4.82" filterUnits="userSpaceOnUse" color-interpolation-filters="sRGB"><feFlood flood-color="#fff" result="bg"/><feBlend in="SourceGraphic" in2="bg"/></filter><mask id="mask-6" x="55.94" y="115.74" width="38.12" height="4.82" maskUnits="userSpaceOnUse"><g class="cls-1"><path class="cls-2" d="M94.06,118.15c0,1.33-8.53,2.41-19.06,2.41s-19.06-1.08-19.06-2.41,8.53-2.41,19.06-2.41S94.06,116.81,94.06,118.15Z"/></g></mask><radialGradient id="radial-gradient-2" cx="75" cy="7440.2" r="19.07" gradientTransform="translate(0 -822.3) scale(1 0.13)" gradientUnits="userSpaceOnUse"><stop offset="0" stop-color="#231f20"/><stop offset="1" stop-color="#231f20"/></radialGradient><filter id="luminosity-noclip-7" x="44.71" y="29.98" width="45.3" height="60.11" filterUnits="userSpaceOnUse" color-interpolation-filters="sRGB"><feFlood flood-color="#fff" result="bg"/><feBlend in="SourceGraphic" in2="bg"/></filter><mask id="mask-7" x="44.71" y="29.98" width="45.3" height="60.11" maskUnits="userSpaceOnUse"><g class="cls-3"><path class="cls-4" d="M50.59,60.27A24.38,24.38,0,0,1,90,41a44,44,0,0,0-.45-7.33A30.28,30.28,0,0,0,44.71,60.27c0,7.67,6.37,19.38,13.26,29.83A46.79,46.79,0,0,0,68.4,83.75,24.4,24.4,0,0,1,50.59,60.27Z"/></g></mask><linearGradient id="linear-gradient-9" x1="101.49" y1="82.94" x2="57.41" y2="49.5" gradientUnits="userSpaceOnUse"><stop offset="0" stop-color="#fff"/><stop offset="1" stop-color="#fff"/></linearGradient><linearGradient id="linear-gradient-10" x1="1069.17" y1="1551.51" x2="1025.09" y2="1518.07" gradientTransform="matrix(0.87, 0.5, -0.5, 0.87, -50.24, -1745.99)" xlink:href="#linear-gradient-9"/><filter id="luminosity-noclip-9" x="55.2" y="40.47" width="34.33" height="39.46" filterUnits="userSpaceOnUse" color-interpolation-filters="sRGB"><feFlood flood-color="#fff" result="bg"/><feBlend in="SourceGraphic" in2="bg"/></filter><mask id="mask-9" x="55.2" y="40.47" width="34.33" height="39.46" maskUnits="userSpaceOnUse"><g class="cls-7"><path class="cls-8" d="M82.32,67.4a57.71,57.71,0,0,0,7.2-20.56A19.79,19.79,0,1,0,72.7,79.93,59.19,59.19,0,0,0,82.32,67.4Z"/></g></mask><linearGradient id="linear-gradient-11" x1="102.72" y1="81.31" x2="58.64" y2="47.87" xlink:href="#linear-gradient-9"/><linearGradient id="linear-gradient-12" x1="1070.59" y1="1549.64" x2="1026.51" y2="1516.2" gradientTransform="matrix(0.87, 0.5, -0.5, 0.87, -50.24, -1745.99)" xlink:href="#linear-gradient-9"/></defs><path class="cls-11" d="M75,111.92a3.32,3.32,0,0,1-2.61-1.25c-6.62-8.23-28.22-36.19-28.22-50.4a30.83,30.83,0,0,1,61.66,0c0,14.21-21.6,42.17-28.22,50.4A3.32,3.32,0,0,1,75,111.92ZM75,36.4A23.87,23.87,0,1,0,98.87,60.27,23.9,23.9,0,0,0,75,36.4Z"/><path class="cls-12" d="M75,80.62A20.35,20.35,0,1,1,95.34,60.27,20.37,20.37,0,0,1,75,80.62Z"/><path class="cls-13" d="M75,30A30.29,30.29,0,0,0,44.71,60.27c0,14,21.15,41.41,28.1,50.06a2.81,2.81,0,0,0,4.38,0c7-8.65,28.1-36.08,28.1-50.06A30.29,30.29,0,0,0,75,30Zm0,54.7A24.41,24.41,0,1,1,99.41,60.27,24.41,24.41,0,0,1,75,84.68Z"/><path class="cls-14" d="M94.8,60.27A19.8,19.8,0,1,1,75,40.47,19.79,19.79,0,0,1,94.8,60.27Z"/><g class="cls-15"><path class="cls-16" d="M94.06,118.15c0,1.33-8.53,2.41-19.06,2.41s-19.06-1.08-19.06-2.41,8.53-2.41,19.06-2.41S94.06,116.81,94.06,118.15Z"/></g><g class="cls-17"><g class="cls-18"><path class="cls-19" d="M50.59,60.27A24.38,24.38,0,0,1,90,41a44,44,0,0,0-.45-7.33A30.28,30.28,0,0,0,44.71,60.27c0,7.67,6.37,19.38,13.26,29.83A46.79,46.79,0,0,0,68.4,83.75,24.4,24.4,0,0,1,50.59,60.27Z"/></g><g class="cls-18"><path class="cls-20" d="M50.59,60.27A24.38,24.38,0,0,1,90,41a44,44,0,0,0-.45-7.33A30.28,30.28,0,0,0,44.71,60.27c0,7.67,6.37,19.38,13.26,29.83A46.79,46.79,0,0,0,68.4,83.75,24.4,24.4,0,0,1,50.59,60.27Z"/></g><g class="cls-21"><path class="cls-22" d="M82.32,67.4a57.71,57.71,0,0,0,7.2-20.56A19.79,19.79,0,1,0,72.7,79.93,59.19,59.19,0,0,0,82.32,67.4Z"/></g><g class="cls-21"><path class="cls-23" d="M82.32,67.4a57.71,57.71,0,0,0,7.2-20.56A19.79,19.79,0,1,0,72.7,79.93,59.19,59.19,0,0,0,82.32,67.4Z"/></g></g></svg>