<svg id="Layer_1" data-name="Layer 1" xmlns="http://www.w3.org/2000/svg" viewBox="0 0 500 500"><defs><style>.cls-1{opacity:0.05;}.cls-2{fill:#302824;}.cls-3{fill:#3b3b3b;}.cls-4{fill:#4a3f39;}.cls-5{fill:#444;}.cls-6{fill:#f9ab7b;}.cls-7{fill:#f9ae82;}.cls-8{fill:#f17aa9;}.cls-9{fill:#fbc099;}.cls-10{fill:#4d4e4e;}.cls-11{fill:#ec1e24;}.cls-12{fill:#f9af7c;}.cls-13{fill:#f49ebd;}.cls-14{fill:#fff;}.cls-15{fill:#333;}.cls-16{fill:#cf6993;}.cls-17{fill:#353636;}.cls-18{fill:#e3e4e5;}.cls-19{fill:#d3d4d6;}.cls-20{fill:#f8a879;}.cls-21{fill:#603916;}.cls-22{fill:#f5f5f6;}.cls-23{fill:#393a3a;}.cls-24{fill:#ed9b72;}.cls-25{fill:#555;}.cls-26{fill:#fab77e;}.cls-27{fill:#f69220;}.cls-28{fill:#e6e6e5;}</style></defs><path class="cls-1" d="M60.37,443.45c77.73-38.63,408.1-14.51,393.68,15.43C433.45,501.68-43.94,495.29,60.37,443.45Z"/><path class="cls-2" d="M371.3,431.61c-4.5,5.18-12.24,8.38-20,9.51s-9.36,1.77-10.08,3.54-2.74,5.64-1.58,6.61,8.78,2.9,22.18,2.09,18-3.22,18-2.42-.57,1.68,0,2.61,11.24,1.16,12.25,0,1.58-11.3,0-18.72S376.63,425.49,371.3,431.61Z"/><path class="cls-3" d="M385.29,402.64c-1.19-8.34-2.4-16.76-3.34-23.27q-.12-.89-.24-1.71c-.82-5.65-1.38-9.53-1.48-10.12a.48.48,0,0,1,.15-.43l-.47-3.75-.25-2-1.25-9.91.32-7.73.39-9.44.05-1.23c0-3.19.23-7.76.52-12.76v-.18c.72-12.39,1.91-27.32,2.07-30.26.28-5.11.85-15.06-6.82-27.56-.11-.17-.21-.34-.33-.5a3.19,3.19,0,0,0-.3-.42c-.13-.19-.27-.36-.42-.54s-.31-.36-.47-.53a8.08,8.08,0,0,0-.65-.66,12.82,12.82,0,0,0-1.2-1,11.21,11.21,0,0,0-1-.71,9,9,0,0,0-.84-.52.19.19,0,0,0-.09-.05q-.39-.24-.81-.45l-.47-.24-.84-.39-.09,0h0c-4.94-2.15-11.06-2.9-16.36-3.05l.08,1.46,1.63,27.54v.14s0,.06,0,.1,0,.08,0,.12l0,.69q0,.22,0,.48c0,.16,0,.33,0,.52l.29,5,.06.88.18,3.12.07,1.25.24,4.08.07,1.11c.6,10.09,1.36,22.94,2,34.09.19,3.12.38,6.1.54,8.84l0,0c.16,2.68.36,5.67.65,9.24s.43,6.16.51,6.86a4.94,4.94,0,0,0,.19.9c1.22,12.41,3.4,30.74,7.66,60.89,0,.18.05.35.08.53.93,5.66,1.44,9.75,1.22,11,0,0,12.29,8.38,23.37,3.7C390,435.74,387.69,419.35,385.29,402.64Z"/><path class="cls-4" d="M375.82,433.13c-4.51,5.18-12.25,8.38-20,9.51s-9.37,1.77-10.09,3.54-2.73,5.64-1.58,6.61,8.79,2.9,22.18,2.09,18-3.22,18-2.41-.58,1.67,0,2.6,11.23,1.16,12.24,0,1.58-11.3,0-18.71S381.15,427,375.82,433.13Z"/><path class="cls-5" d="M391.52,402.64c-1.19-8.34-2.4-16.76-3.34-23.27q-.12-.89-.24-1.71c-.82-5.65-1.38-9.53-1.48-10.12a.48.48,0,0,1,.15-.43l-.47-3.75-.25-2-1.25-9.91.32-7.73.39-9.44,0-1.23c0-3.19.23-7.76.52-12.76v-.18c.72-12.39,1.91-27.32,2.07-30.26.28-5.11.85-15.06-6.82-27.56-.11-.17-.21-.34-.33-.5a3.19,3.19,0,0,0-.3-.42c-.13-.19-.27-.36-.42-.54s-.31-.36-.47-.53a8.08,8.08,0,0,0-.65-.66,12.82,12.82,0,0,0-1.2-1,11.21,11.21,0,0,0-1-.71,9,9,0,0,0-.84-.52.19.19,0,0,0-.09-.05q-.39-.24-.81-.45l-.47-.24-.84-.39-.09,0h0c-4.94-2.15-11.06-2.9-16.36-3.05l.08,1.46L359,282.2v.14s0,.06,0,.1,0,.08,0,.12l0,.69q0,.22,0,.48c0,.16,0,.33,0,.52l.29,5,.06.88.18,3.12.07,1.25.24,4.08.07,1.11c.6,10.09,1.36,22.94,2,34.09.19,3.12.38,6.1.54,8.84l-.05,0c.16,2.68.36,5.67.65,9.24s.43,6.16.51,6.86a4.94,4.94,0,0,0,.19.9c1.22,12.41,3.4,30.74,7.66,60.89,0,.18.05.35.08.53.93,5.66,1.44,9.75,1.22,11,0,0,12.29,8.38,23.37,3.7C396.26,435.74,393.92,419.35,391.52,402.64Z"/><path class="cls-3" d="M393.52,402.64c-1.19-8.34-2.4-16.76-3.34-23.27q-.12-.89-.24-1.71c-.82-5.65-1.38-9.53-1.48-10.12a.48.48,0,0,1,.15-.43l-.47-3.75-.25-2-1.25-9.91.32-7.73.39-9.44,0-1.23c0-3.19.23-7.76.52-12.76v-.18c.72-12.39,1.91-27.32,2.07-30.26.28-5.11.85-15.06-6.82-27.56-.11-.17-.21-.34-.33-.5a3.19,3.19,0,0,0-.3-.42c-.13-.19-.27-.36-.42-.54s-.31-.36-.47-.53a8.08,8.08,0,0,0-.65-.66,12.82,12.82,0,0,0-1.2-1,11.21,11.21,0,0,0-1-.71,9,9,0,0,0-.84-.52.19.19,0,0,0-.09-.05q-.39-.24-.81-.45l-.47-.24-.84-.39-.09,0h0l-16.28-1.59s2.3,16.31,3,23.17c2.44-1.49,6.28-3,12.35-4.08,15.6-2.71,11.08,41.51,10.63,55.75q-.06,1.92-.15,3.57c-.07,1.06-.13,2.08-.19,3.08,0,.63-.07,1.26-.1,1.87-.15,2.53-.27,4.86-.35,7,0,.14,0,.27,0,.4-.22,5.83-.23,10.67,0,15.79,0,.3,0,.6.05.91.25,4.48.69,9.24,1.39,15.09v0c.43,7.08,1.41,15.9,2.08,21.52,0,.14,0,.28.05.42s.07.53.1.79,0,.26,0,.38c.06.49.12.95.17,1.37.09.72.16,1.32.22,1.76l.09.7c0,.12,0,.18,0,.18h0c1.67,13.75,2.75,26.38,1.19,27.65-3.39,2.75-15.81,1.84-15.81,1.84s13,6.54,24.09,1.86C398.26,435.74,395.92,419.35,393.52,402.64Z"/><path class="cls-6" d="M247.59,201.6c3.17.28,6.56,2.31,8.06,3.14s-.15,2-2.11,1.66-9.34-2.72-10.55-2.79-6.25.07-6.25.07.53-1.65,3.24-2.41S247.59,201.6,247.59,201.6Z"/><path class="cls-6" d="M244,197.23c3-1.09,6.91-.69,8.63-.59s.73,1.91-1.2,2.4-9.62,1.52-10.74,2-5.63,2.73-5.63,2.73-.23-1.73,1.91-3.56S244,197.23,244,197.23Z"/><path class="cls-7" d="M155.8,152.16c-9.86-3-5.21,17.62,2.47,29.27s17.38,27.37,24.64,28.08c8.21.81,32,2.49,42.39,1.58l.68-8.36s-26.88-3.14-39.83-5.2C186.15,197.53,163.48,154.5,155.8,152.16Z"/><path class="cls-8" d="M148.32,447.54c1.76,1.71,2.77,11.38,2.77,14.38h2.4s0-9.58,1.73-11.19-2.93-4.16-2.93-4.16Z"/><path class="cls-7" d="M155.46,268.48,129,276.69s8.74,40.71,9.37,45.71a23.92,23.92,0,0,1-4.69,18.21c-5,6.79-13.75,37.4-17.54,55-4.34,20.12-8.57,31.78-9.64,33.93l2.08.77L103,435.45l8,15.91s8.17,9.81,6.18,0-1.63-15-.44-21h0c3.5-6.67,13.34-29.51,21.62-50.82,10.27-26.43,14.91-41.78,17.05-52.14S155.46,268.48,155.46,268.48Z"/><path class="cls-9" d="M166.22,441.88c-2-4-2.81-6.29-2.88-9,0,0-1.59-80.78,0-93.26s.23-13.27,0-26.92S168.57,271,168.57,271l-30.16,2s5.38,39.69,7.08,46.71,2.39,13.41,0,18.41-3.88,36.24,1.19,60.23,4.39,34.52,4.39,34.52h2.16l-.94,5.29s5,9,8.78,12.06,11.18,1.8,11.18,1.8S168.63,446.57,166.22,441.88Z"/><path class="cls-8" d="M140.82,143.15c-12.58,18.93-11.67,29.48,1.07,74.52l21.78,2.4s-2.54-7.19-2.54-22.2a46.89,46.89,0,0,1,7.26-23c5.64-8.78-7.06-15.73-9.71-25.6Z"/><path class="cls-9" d="M149.92,117c2.57,5.46-9.1,26.12-9.1,26.12l17.86,6.09s-2.48-24,7-22S156.93,117,156.93,117Z"/><path class="cls-9" d="M218.61,209.47l-.07,1.16a2.16,2.16,0,0,1-.16.71,1.89,1.89,0,0,1-.09.21,2.62,2.62,0,0,1-1.22,1.15c-1.06.11-2.1.21-3,.27h-.45c-27.15-.56-51.21-5-58.16-6.78-7.37-1.85-12.78-15.79-15.18-28.62s.34-30,10-25.6a5.64,5.64,0,0,1,1.37.89c4.85,4.18,6.16,17.4,6.38,28.13.1,5.32-.06,10-.19,12.73a2.74,2.74,0,0,0,2.54,2.7c3,.38,6,.8,8.94,1.24h0c13.23,2,26.15,4.55,35.46,6.54h0c5,1.08,9,2,11.42,2.54l.21,0A2.7,2.7,0,0,1,218.61,209.47Z"/><path class="cls-8" d="M151,428.08s2.94.63,3.65,7.33,11.09,16,17.59,16.58c0,0,9.1,3.69,10.44,8,1,3.19-13,2.28-15.8,1.81s-12.19-13.46-15.53-13.46-5.16-1.61-5.09-7.37S148.78,429.28,151,428.08Z"/><path class="cls-8" d="M98.18,436.21c.76,2.34-2.89,11.36-4.29,14L96,451.34s4.46-8.48,6.77-9.08-.64-5-.64-5Z"/><path class="cls-8" d="M109.67,420.28s2.3,1.94-.21,8.19,2.28,19.37,7.77,22.89c0,0,6.32,7.52,5.49,11.93-.61,3.29-12.54-4.07-14.8-5.81s-4.46-17.6-7.42-19.16-3.8-3.84-1-8.9S107.14,420.3,109.67,420.28Z"/><path class="cls-9" d="M158.68,149.24l-8.77-3c6.2,2.11,4.72,12.35,16,15.1C163.17,157.62,159.88,153.73,158.68,149.24Z"/><path class="cls-8" d="M141.89,217.67s-13.26,3.89-21.26,32.44S91.3,318,78.3,317c0,0,5.33,13.55,22,12.11S121,331,118.63,337.33s10.88,9.63,24.94,4,14.92-3.56,19.16,2.9,29.88-10.54,29.88-10.54-7.11-12.2-15.31-42.39c-8.91-32.8-13.63-71.21-13.63-71.21Z"/><path class="cls-10" d="M151.28,86.66a10.4,10.4,0,0,0-11.33-2c-6.63,2.86-13.18,12.7-11.66,27.59s-.17,32.17-10.58,44.39a23.15,23.15,0,0,0,11.41-11s-4.19,7.59-7.89,11.66-3.52,14.28-3.52,14.28,4.87-9.08,10.24-13.72,12.08-14.75,12-29.36,1.2-32.36,5.26-35.36l4.06-3Z"/><path class="cls-11" d="M153.77,87.62s-2.07-2.89-5.86,1.19-.41,6.32-.41,6.32l5.61-2.95Z"/><path class="cls-12" d="M151.38,125.58s2,7.93,7.22,12.15a23.59,23.59,0,0,1,1.56-7A49.5,49.5,0,0,0,151.38,125.58Z"/><path class="cls-9" d="M184.1,92.93c7.88,5.61,6,13.46,5.16,17.06s-4.36,7.28-4.54,8.6a14.93,14.93,0,0,0,1,7.13c1.23,3.39-.07,2.91-2.6,3.3,0,0-1.6-.05-1.74.68s-1.14,1.54-.89,2.15.2,2.07-.84,2.14-5-2.28-5.93-4c.5,2.46,4.51,5.08,4,6s-1.23.45-1.31.73-1.4,7.44-5.39,4.8-16-9.75-19.75-16.51-7-14.19-3.59-23.88S165,79.34,184.1,92.93Z"/><path class="cls-10" d="M149.39,123.64c1.8,3.78,7-3.89,8.09-8s-1.39-4.08,1.43-7.84,6.26-.19,5.3,3.72-4.82,7.15-4.82,7.15,3.57-2.13,3.38-1.88-.82,1-.82,1,3.27-1.25,8.29-7.39A36.11,36.11,0,0,0,176.88,98s-1.52,8.21,12.19,16.52l2.21-4.23s3.89-5.49-1.64-14.88S168,83,162.62,85.57c0,0-7.67-1.86-13.58,6.9S144.21,112.82,149.39,123.64Z"/><path class="cls-10" d="M186.13,113.5c.56-1-4.37-2-7.56-.75a26.39,26.39,0,0,1,4.78.6A5.68,5.68,0,0,0,186.13,113.5Z"/><path class="cls-13" d="M181.64,121.08c-.23.55-1.76.42-3.4-.29s-2.78-1.73-2.55-2.27,1.76-.41,3.4.3S181.88,120.54,181.64,121.08Z"/><path class="cls-14" d="M178.36,115.43a2.69,2.69,0,0,0,.31,1.26,5.76,5.76,0,0,0,2.78,2c.76.14,1.34-1.11,1.35-2.15s-1.67-1.28-2.27-1.43A6.78,6.78,0,0,0,178.36,115.43Z"/><path class="cls-15" d="M181.6,115.44a3.17,3.17,0,0,0-.78,2.34c.27,1.13,1.06.63,1.41,0a4.64,4.64,0,0,0,.38-1.65Z"/><path class="cls-10" d="M178.16,115.45s2.25-1.14,4.05-.23a6.56,6.56,0,0,1,2.12,1.38,1.48,1.48,0,0,1-1.36.29C182.08,116.7,181.47,115.09,178.16,115.45Z"/><path class="cls-14" d="M182.16,117.52c-.08.22-.21.35-.3.31s-.1-.25,0-.47.21-.34.3-.3S182.24,117.31,182.16,117.52Z"/><path class="cls-16" d="M100.3,329.11C117,327.67,121,331,118.63,337.33s10.88,9.63,24.94,4,14.92-3.56,19.16,2.9,29.88-10.54,29.88-10.54-3.12-5.36-7.6-17.73h0S186.63,331,175.13,337s-9.25-1.75-14.5-4-7.5-22-7.5-22,.5,22.75-12.75,27.5-19.75-1.5-16.5-12.31,5.83-29.36,5.83-29.36c-8.42,18.59-16.83,27.42-31.33,29.17s-20.08-9-20.08-9S83.63,330.55,100.3,329.11Z"/><path class="cls-16" d="M116.24,263.42q-1.26,3.39-2.69,6.8a51.36,51.36,0,0,0,2.69-6.79Z"/><path class="cls-16" d="M151.38,218.71c-12.43-3.62-19.29-45.89-19.48-47,.44,10.5,3.82,24.2,10,46,0,0-13.26,3.89-21.26,32.44-.54,1.93-1.14,3.92-1.8,5.93C132.78,219.52,151.38,218.71,151.38,218.71Z"/><path class="cls-7" d="M226,202.73c3.22,0,10.76-3.34,12.12-3.79s10.85-1.06,12.35-1.06,5.58.61,7.61.91,1.29,1.81-1.05,2.33a24,24,0,0,1-6.33.23c-.45-.08-9,.8-10.25,1.38s-3.69,3.14-3.77,3.89,1.51,1.51,3.39,1.74a47.3,47.3,0,0,0,7.12.06c1.22,0,3.72.07,3.64,1.53s-3.45,2.37-5.86,2.53-7.61.1-9.87,0-6.82-1.23-9.78-1.41Z"/><path class="cls-17" d="M342,197.09a268.12,268.12,0,0,0-6.09,49.18c-.84,27.43-1.21,24.12-1.21,24.12s11.21,3,29.9.12l2.88-90.25Z"/><polygon class="cls-18" points="364.59 144.46 358.59 146.1 354.29 154.97 368.59 148.65 364.59 144.46"/><path class="cls-10" d="M384.08,147.09c7.68,13.21,6,23.07,1.51,39.45s-3.83,33.11-5.37,35.24S392.47,268,392.47,268s-39.23,8.83-53.3,5c0,0-.49-24.91,1.27-47.89,3.31-43.41,11.35-58.82,18.07-75l6-4.69Z"/><polygon class="cls-19" points="358.59 146.1 351.64 165.49 363.24 154.53 364.59 144.46 358.59 146.1"/><path class="cls-9" d="M385.59,125.83c-3,13.59-1.51,21.26-1.51,21.26l-19.6-1.71s1.7-12.76,0-17.36S385.59,125.83,385.59,125.83Z"/><path class="cls-20" d="M365.1,138.78c3.37-.72,10.49-2.38,12.78-3.91s-8.27-2.61-12.72-2.94A58.15,58.15,0,0,1,365.1,138.78Z"/><path class="cls-18" d="M363.24,148.76s-8.29,10.4-11.6,16.73l18.19-15.71Z"/><polygon class="cls-9" points="364.48 145.38 363.79 149.95 371.16 145.96 364.48 145.38"/><path class="cls-9" d="M366.6,85.71c-10,2.21-11.41,10.64-12.11,14.48s1.24,6.26.87,7.62-1.94,6.41-4.77,8.88-1.86,2.82,2,4.6c0,0,1.31.61,1.4,1.39a9.33,9.33,0,0,0,.8,2.21c-.5.49-1.53,1.76-.55,2.26s2.77.68,8.77-1.7c-3.28,2.83-8.31,3.4-8.16,4.53s.77,1,.81.69.18,8.77,2.85,8c4.85-1.46,20.34-3,26.8-8s12.67-10.94,13.4-21.78S390.81,80.38,366.6,85.71Z"/><path class="cls-21" d="M375.48,95.51s-14.64,6.32-24.62-2.16h2.52a7,7,0,0,1-4.6-4.43s1.52,2.07,5.74-1.72,11.91-5.5,11.91-5.5l-2-1.49s16.29-7,27.45,5.93c0,0,11.83,4.5,9.51,26.94l-1.11-.86a14.43,14.43,0,0,1-4,11.11c-2,2.2-5.67,5.54-6.28,11.27,0,0-6.48-10.41-5.44-15.53s3.71-3.67,4.48-8.93-3.4-5.37-5.82-3.41-1.95,7.3-1.95,7.3l-.59,1.4S373.13,105.45,375.48,95.51Z"/><polygon class="cls-22" points="383.71 141.53 363.24 148.76 364.39 153.43 385.59 146.35 383.71 141.53"/><path class="cls-23" d="M380.22,221.78c1.17-1.62,1.07-11.62,2.91-23.49-1.51,7.32-3.68,16.82-5.27,19.87-2.71,5.2-11.76,8.82-11.76,8.82S377,224,378.54,231.5s7.1,25.7,7,31.16S339.17,273,339.17,273c14.07,3.83,53.3-5,53.3-5S378.69,223.91,380.22,221.78Z"/><polygon class="cls-23" points="384.94 189.08 384.94 189.07 384.94 189.07 384.94 189.08"/><path class="cls-21" d="M355.85,103.12c.1-1.46,6.23,1,8.78,4.7A33.49,33.49,0,0,0,359,105,7.51,7.51,0,0,1,355.85,103.12Z"/><path class="cls-14" d="M362.27,109.84a3.65,3.65,0,0,1-1.09.89,5.8,5.8,0,0,1-3.32-.1c-.69-.32-.58-1.55-.08-2.3s2,0,2.59.24A12.77,12.77,0,0,1,362.27,109.84Z"/><path class="cls-15" d="M359.33,108.19s.29,1.45-.48,2.12-1.2-.14-1.18-.79a3.54,3.54,0,0,1,.48-1.41Z"/><path class="cls-21" d="M362.43,110a6.77,6.77,0,0,0-5.95-2.48,1.68,1.68,0,0,0,1,1C358.32,108.83,359.83,107.85,362.43,110Z"/><path class="cls-14" d="M357.85,109.38c0,.19,0,.37.11.38s.2-.12.24-.32,0-.37-.11-.39S357.89,109.18,357.85,109.38Z"/><path class="cls-24" d="M279.23,192.41c-3.53-.95-8-.08-10,.22s-.64,2.26,1.63,2.62,11.18.75,12.51,1.14,6.74,2.55,6.74,2.55.08-2-2.56-3.89S279.23,192.41,279.23,192.41Z"/><path class="cls-7" d="M303.09,199.75c-3.66-.62-11.61-5.78-13.07-6.55s-12.14-3.2-13.85-3.48-6.45-.34-8.81-.37-1.79,1.82.76,2.85a27.52,27.52,0,0,0,7.16,1.42c.52,0,10,2.57,11.39,3.46s3.61,4.25,3.56,5.12-2,1.44-4.17,1.35-3.05-.32-8.1-1.25c-1.38-.25-4.24-.6-4.42,1.08s3.48,3.32,6.19,4,8.63,1.51,11.21,1.84,8-.14,11.38.21Z"/><path class="cls-25" d="M361.05,161.28c-4.65,8.64-8.48,53.72-8.48,53.72s-45.15-16.16-50.35-17.8L298,210.92s37.86,16.76,51.4,20.36,14.33,2.07,18.27-5.8c3.19-6.36,16.83-35.7,18-48.47S368.36,147.7,361.05,161.28Z"/><path class="cls-6" d="M239.24,202.28c.32-1.32-.44-1.62-1.11-1s-1.57,2-2.14,2.5a14.69,14.69,0,0,1-5,2.14l-9.7,1.79,1.1,1.56,5.86.13,6-2,4.14-1.95Z"/><path class="cls-26" d="M241,202c.38-1.3-.37-1.63-1.06-1s-1.66,1.93-2.24,2.41a14.71,14.71,0,0,1-5.08,1.92l-9.76,1.39,1,1.6,5.85.37,6.09-1.68L240,205.2Z"/><path class="cls-27" d="M229.35,196.9a2.15,2.15,0,1,1-2.16,2.15A2.15,2.15,0,0,1,229.35,196.9Zm0,3.78a1.63,1.63,0,1,0-1.63-1.63A1.63,1.63,0,0,0,229.35,200.68Z"/><path class="cls-11" d="M229.35,202h6.13v2.46a2.27,2.27,0,0,1-2.4,2.51h-7.47a2.27,2.27,0,0,1-2.4-2.51V202Z"/><path class="cls-11" d="M223.21,195.87V202h-2.46a2.27,2.27,0,0,1-2.5-2.4v-7.47a2.26,2.26,0,0,1,2.5-2.4h2.46Z"/><circle class="cls-11" cx="223.21" cy="202.01" r="0.64"/><path class="cls-28" d="M234.84,202s-.05-2.08-5.49-2.08-5.5,2.08-5.5,2.08Z"/><path class="cls-9" d="M241.85,206.41c-.8,1.28-6.14,4-7.84,4.32a43.61,43.61,0,0,1-7.21.87,2.59,2.59,0,0,0-.48,0h-.06c-1.09.06-5.3.67-9.19,1.06-1.06.11-2.1.21-3,.27h-.45l.16-.47.38-1.17.1-.32s1.15-2.62,2-4.26a8,8,0,0,1,.67-1.17,8.25,8.25,0,0,1,1.43-1.47h0a4.43,4.43,0,0,1,3.1-1c1.45.09,3.07.39,4.49.6a15.61,15.61,0,0,0,2.45.2c1.71-.05,3.31-.39,3.47.64s-2.51,2.38-3.31,2.5c-.45.07-1.8.15-2.9.24a4.67,4.67,0,0,0-1.53.25,5.45,5.45,0,0,0,1.5.12,59.93,59.93,0,0,0,8.16-.28c1.76-.37,5.87-2.23,6.35-2.88s2-2.72,2.67-2S242.65,205.14,241.85,206.41Z"/><path class="cls-9" d="M203.33,204c4.3.8,13.45.78,15.34,0s2.45,5.67,2.45,5.83-2.45,2.94-10.68,2.78S203.33,204,203.33,204Z"/></svg>