<svg xmlns="http://www.w3.org/2000/svg" xmlns:xlink="http://www.w3.org/1999/xlink" viewBox="0 0 150 150"><defs><style>.cls-1{mask:url(#mask);filter:url(#luminosity-noclip-2);}.cls-111,.cls-2{mix-blend-mode:multiply;}.cls-2{fill:url(#radial-gradient);}.cls-3{isolation:isolate;}.cls-4{opacity:0.41;}.cls-5{fill:#fff;opacity:0;}.cls-6{fill:#fdfdfd;opacity:0.01;}.cls-7{fill:#fafafa;opacity:0.02;}.cls-8{fill:#f8f8f8;opacity:0.03;}.cls-9{fill:#f5f5f5;opacity:0.04;}.cls-10{fill:#f3f3f3;opacity:0.05;}.cls-11{fill:#f0f0f0;opacity:0.06;}.cls-12{fill:#eee;opacity:0.07;}.cls-13{fill:#ebebeb;opacity:0.08;}.cls-14{fill:#e9e9e9;opacity:0.09;}.cls-15{fill:#e6e6e6;opacity:0.1;}.cls-16{fill:#e4e4e4;opacity:0.11;}.cls-17{fill:#e1e1e1;opacity:0.12;}.cls-18{fill:#dfdfdf;opacity:0.13;}.cls-19{fill:#dcdcdc;opacity:0.14;}.cls-20{fill:#dadada;opacity:0.15;}.cls-21{fill:#d7d7d7;opacity:0.16;}.cls-22{fill:#d5d5d5;opacity:0.17;}.cls-23{fill:#d2d2d2;opacity:0.17;}.cls-24{fill:#d0d0d0;opacity:0.18;}.cls-25{fill:#cdcdcd;opacity:0.19;}.cls-26{fill:#cbcbcb;opacity:0.2;}.cls-27{fill:#c9c9c9;opacity:0.21;}.cls-28{fill:#c6c6c6;opacity:0.22;}.cls-29{fill:#c4c4c4;opacity:0.23;}.cls-30{fill:#c1c1c1;opacity:0.24;}.cls-31{fill:#bfbfbf;opacity:0.25;}.cls-32{fill:#bcbcbc;opacity:0.26;}.cls-33{fill:#bababa;opacity:0.27;}.cls-34{fill:#b7b7b7;opacity:0.28;}.cls-35{fill:#b5b5b5;opacity:0.29;}.cls-36{fill:#b2b2b2;opacity:0.3;}.cls-37{fill:#b0b0b0;opacity:0.31;}.cls-38{fill:#adadad;opacity:0.32;}.cls-39{fill:#ababab;opacity:0.33;}.cls-40{fill:#a8a8a8;opacity:0.34;}.cls-41{fill:#a6a6a6;opacity:0.35;}.cls-42{fill:#a3a3a3;opacity:0.36;}.cls-43{fill:#a1a1a1;opacity:0.37;}.cls-44{fill:#9e9e9e;opacity:0.38;}.cls-45{fill:#9c9c9c;opacity:0.39;}.cls-46{fill:#999;opacity:0.4;}.cls-47{fill:#979797;opacity:0.41;}.cls-48{fill:#959595;opacity:0.42;}.cls-49{fill:#929292;opacity:0.43;}.cls-50{fill:#909090;opacity:0.44;}.cls-51{fill:#8d8d8d;opacity:0.45;}.cls-52{fill:#8b8b8b;opacity:0.46;}.cls-53{fill:#888;opacity:0.47;}.cls-54{fill:#868686;opacity:0.48;}.cls-55{fill:#838383;opacity:0.49;}.cls-56{fill:#818181;opacity:0.5;}.cls-57{fill:#7e7e7e;opacity:0.5;}.cls-58{fill:#7c7c7c;opacity:0.51;}.cls-59{fill:#797979;opacity:0.52;}.cls-60{fill:#777;opacity:0.53;}.cls-61{fill:#747474;opacity:0.54;}.cls-62{fill:#727272;opacity:0.55;}.cls-63{fill:#6f6f6f;opacity:0.56;}.cls-64{fill:#6d6d6d;opacity:0.57;}.cls-65{fill:#6a6a6a;opacity:0.58;}.cls-66{fill:#686868;opacity:0.59;}.cls-67{fill:#666;opacity:0.6;}.cls-68{fill:#636363;opacity:0.61;}.cls-69{fill:#616161;opacity:0.62;}.cls-70{fill:#5e5e5e;opacity:0.63;}.cls-71{fill:#5c5c5c;opacity:0.64;}.cls-72{fill:#595959;opacity:0.65;}.cls-73{fill:#575757;opacity:0.66;}.cls-74{fill:#545454;opacity:0.67;}.cls-75{fill:#525252;opacity:0.68;}.cls-76{fill:#4f4f4f;opacity:0.69;}.cls-77{fill:#4d4d4d;opacity:0.7;}.cls-78{fill:#4a4a4a;opacity:0.71;}.cls-79{fill:#484848;opacity:0.72;}.cls-80{fill:#454545;opacity:0.73;}.cls-81{fill:#434343;opacity:0.74;}.cls-82{fill:#404040;opacity:0.75;}.cls-83{fill:#3e3e3e;opacity:0.76;}.cls-84{fill:#3b3b3b;opacity:0.77;}.cls-85{fill:#393939;opacity:0.78;}.cls-86{fill:#363636;opacity:0.79;}.cls-87{fill:#343434;opacity:0.8;}.cls-88{fill:#323232;opacity:0.81;}.cls-89{fill:#2f2f2f;opacity:0.82;}.cls-90{fill:#2d2d2d;opacity:0.83;}.cls-91{fill:#2a2a2a;opacity:0.83;}.cls-92{fill:#282828;opacity:0.84;}.cls-93{fill:#252525;opacity:0.85;}.cls-94{fill:#232323;opacity:0.86;}.cls-95{fill:#202020;opacity:0.87;}.cls-96{fill:#1e1e1e;opacity:0.88;}.cls-97{fill:#1b1b1b;opacity:0.89;}.cls-98{fill:#191919;opacity:0.9;}.cls-99{fill:#161616;opacity:0.91;}.cls-100{fill:#141414;opacity:0.92;}.cls-101{fill:#111;opacity:0.93;}.cls-102{fill:#0f0f0f;opacity:0.94;}.cls-103{fill:#0c0c0c;opacity:0.95;}.cls-104{fill:#0a0a0a;opacity:0.96;}.cls-105{fill:#070707;opacity:0.97;}.cls-106{fill:#050505;opacity:0.98;}.cls-107{fill:#020202;opacity:0.99;}.cls-108{fill:url(#linear-gradient);}.cls-109{fill:url(#radial-gradient-2);}.cls-110{fill:url(#linear-gradient-2);}.cls-111{fill:url(#linear-gradient-3);}.cls-112{fill:url(#linear-gradient-4);}.cls-113{fill:url(#linear-gradient-5);}.cls-114{fill:url(#linear-gradient-6);}.cls-115{mask:url(#mask-2);}.cls-116{fill:url(#radial-gradient-3);}.cls-117{filter:url(#luminosity-noclip);}</style><filter id="luminosity-noclip" x="55.06" y="-7412.19" width="16.7" height="32766" filterUnits="userSpaceOnUse" color-interpolation-filters="sRGB"><feFlood flood-color="#fff" result="bg"/><feBlend in="SourceGraphic" in2="bg"/></filter><mask id="mask" x="55.06" y="-7412.19" width="16.7" height="32766" maskUnits="userSpaceOnUse"><g class="cls-117"/></mask><radialGradient id="radial-gradient" cx="566.95" cy="-698.88" r="5.76" gradientTransform="matrix(1.25, -0.38, 0.34, 1.09, -407.75, 1067.53)" gradientUnits="userSpaceOnUse"><stop offset="0" stop-color="#999"/><stop offset="0.17" stop-color="#8a8a8a"/><stop offset="0.5" stop-color="#616161"/><stop offset="0.96" stop-color="#202020"/><stop offset="1" stop-color="#1a1a1a"/></radialGradient><linearGradient id="linear-gradient" x1="57.55" y1="99.17" x2="64.9" y2="104.91" gradientUnits="userSpaceOnUse"><stop offset="0" stop-color="#343434"/><stop offset="0.09" stop-color="#535353"/><stop offset="0.29" stop-color="#a2a2a2"/><stop offset="0.46" stop-color="#e6e6e6"/><stop offset="0.51" stop-color="#c4c4c4"/><stop offset="0.57" stop-color="#a2a2a2"/><stop offset="0.64" stop-color="#858585"/><stop offset="0.71" stop-color="#6f6f6f"/><stop offset="0.79" stop-color="#5f5f5f"/><stop offset="0.88" stop-color="#565656"/><stop offset="1" stop-color="#535353"/></linearGradient><radialGradient id="radial-gradient-2" cx="63.14" cy="-666.95" r="22.75" gradientTransform="translate(0 815.45) scale(1 1.09)" gradientUnits="userSpaceOnUse"><stop offset="0" stop-color="#ffa3a3"/><stop offset="0.05" stop-color="#fd9393"/><stop offset="0.22" stop-color="#f85b5b"/><stop offset="0.37" stop-color="#f43232"/><stop offset="0.49" stop-color="#f21919"/><stop offset="0.57" stop-color="#f11010"/><stop offset="0.74" stop-color="#f00a0a"/><stop offset="1" stop-color="#d10909"/></radialGradient><linearGradient id="linear-gradient-2" x1="80.24" y1="57.57" x2="100.86" y2="79.68" gradientUnits="userSpaceOnUse"><stop offset="0" stop-color="#f31b1b"/><stop offset="0.03" stop-color="#f94343"/><stop offset="0.06" stop-color="#ff6b6b"/><stop offset="0.16" stop-color="#fd6060"/><stop offset="0.33" stop-color="#f94444"/><stop offset="0.54" stop-color="#f21515"/><stop offset="0.57" stop-color="#f11010"/><stop offset="0.74" stop-color="#f00a0a"/><stop offset="1" stop-color="#d10909"/></linearGradient><linearGradient id="linear-gradient-3" x1="109.65" y1="52.87" x2="71.62" y2="84.78" gradientUnits="userSpaceOnUse"><stop offset="0" stop-color="#b0b0b0"/><stop offset="0.05" stop-color="#bcbcbc"/><stop offset="0.16" stop-color="#d4d4d4"/><stop offset="0.29" stop-color="#e7e7e7"/><stop offset="0.44" stop-color="#f5f5f5"/><stop offset="0.63" stop-color="#fdfdfd"/><stop offset="1" stop-color="#fff"/></linearGradient><linearGradient id="linear-gradient-4" x1="89.87" y1="44.43" x2="122.95" y2="44.43" gradientUnits="userSpaceOnUse"><stop offset="0.07" stop-color="#f61e1e"/><stop offset="0.54" stop-color="#f41717"/><stop offset="0.67" stop-color="#f31212"/><stop offset="1" stop-color="#f00a0a"/></linearGradient><linearGradient id="linear-gradient-5" x1="90.3" y1="42.76" x2="124.2" y2="42.76" gradientUnits="userSpaceOnUse"><stop offset="0" stop-color="#ff6b6b"/><stop offset="1" stop-color="#f50000"/></linearGradient><linearGradient id="linear-gradient-6" x1="90.3" y1="39.42" x2="105.22" y2="39.42" gradientUnits="userSpaceOnUse"><stop offset="0" stop-color="#f50000"/><stop offset="1" stop-color="#ff9e9e"/></linearGradient><filter id="luminosity-noclip-2" x="55.06" y="82.25" width="16.7" height="11.74" filterUnits="userSpaceOnUse" color-interpolation-filters="sRGB"><feFlood flood-color="#fff" result="bg"/><feBlend in="SourceGraphic" in2="bg"/></filter><mask id="mask-2" x="55.06" y="82.25" width="16.7" height="11.74" maskUnits="userSpaceOnUse"><g class="cls-1"><path class="cls-2" d="M55.35,85.91c-1.19,2.72,1.43,6.82,5.41,7.83,4.63,1.17,10.43-2,11-5.4.4-2.51-2.2-4.37-2.5-4.58C65.11,80.91,56.91,82.34,55.35,85.91Z"/></g></mask><radialGradient id="radial-gradient-3" cx="566.95" cy="-698.88" r="5.76" gradientTransform="matrix(1.25, -0.38, 0.34, 1.09, -407.75, 1067.53)" gradientUnits="userSpaceOnUse"><stop offset="0" stop-color="#fff"/><stop offset="0.14" stop-color="#fff0f0"/><stop offset="0.4" stop-color="#ffc7c7"/><stop offset="0.76" stop-color="#ff8686"/><stop offset="1" stop-color="#ff5757"/></radialGradient></defs><g class="cls-3"><g id="Layer_1" data-name="Layer 1"><g class="cls-4"><ellipse class="cls-5" cx="83.6" cy="115.49" rx="19.83" ry="9.7" transform="translate(-18.6 16.09) rotate(-9.9)"/><path class="cls-6" d="M102.67,112.1c.92,5.23-7,11-17.72,12.86s-20.11-.87-21-6.1,7-11,17.72-12.86S101.76,106.87,102.67,112.1Z"/><path class="cls-7" d="M102.2,112.12c.91,5.19-7,10.91-17.56,12.76S64.7,124,63.79,118.82s7-10.89,17.57-12.74S101.3,106.93,102.2,112.12Z"/><path class="cls-8" d="M101.73,112.14c.9,5.15-6.9,10.82-17.41,12.65s-19.77-.86-20.67-6,6.9-10.8,17.41-12.64S100.83,107,101.73,112.14Z"/><path class="cls-9" d="M101.26,112.16c.89,5.1-6.84,10.73-17.26,12.55s-19.59-.86-20.48-6S70.35,108,80.77,106.22,100.37,107.07,101.26,112.16Z"/><path class="cls-10" d="M100.79,112.19c.88,5-6.78,10.63-17.11,12.44s-19.42-.86-20.3-5.92,6.77-10.61,17.1-12.41S99.9,107.13,100.79,112.19Z"/><path class="cls-11" d="M100.31,112.21c.88,5-6.71,10.55-17,12.33s-19.24-.85-20.12-5.86S70,108.16,80.19,106.37,99.44,107.2,100.31,112.21Z"/><path class="cls-12" d="M99.84,112.23c.87,5-6.65,10.46-16.79,12.23S64,123.61,63.1,118.64s6.66-10.42,16.8-12.19S99,107.26,99.84,112.23Z"/><path class="cls-13" d="M99.37,112.25c.86,4.92-6.59,10.37-16.64,12.13s-18.9-.86-19.76-5.78,6.59-10.33,16.64-12.08S98.51,107.33,99.37,112.25Z"/><path class="cls-14" d="M98.9,112.27c.85,4.87-6.53,10.28-16.49,12s-18.72-.85-19.58-5.72,6.53-10.24,16.49-12S98.05,107.4,98.9,112.27Z"/><path class="cls-15" d="M98.43,112.29c.84,4.83-6.47,10.2-16.34,11.92s-18.55-.85-19.4-5.68S69.16,108.39,79,106.67,97.58,107.46,98.43,112.29Z"/><path class="cls-16" d="M98,112.31c.83,4.79-6.41,10.11-16.19,11.82s-18.37-.85-19.22-5.64,6.41-10,16.19-11.75S97.12,107.53,98,112.31Z"/><path class="cls-17" d="M97.48,112.33c.83,4.74-6.34,10-16,11.71s-18.21-.84-19-5.58,6.34-9.95,16-11.64S96.66,107.6,97.48,112.33Z"/><path class="cls-18" d="M97,112.36c.82,4.69-6.28,9.92-15.87,11.6s-18-.84-18.86-5.54,6.29-9.86,15.88-11.53S96.19,107.66,97,112.36Z"/><path class="cls-19" d="M96.54,112.38c.81,4.64-6.22,9.84-15.72,11.49S63,123,62.14,118.38s6.23-9.76,15.73-11.42S95.73,107.73,96.54,112.38Z"/><path class="cls-20" d="M96.07,112.4c.8,4.6-6.16,9.75-15.57,11.39S62.82,123,62,118.35s6.17-9.67,15.58-11.31S95.27,107.8,96.07,112.4Z"/><path class="cls-21" d="M95.6,112.42c.79,4.56-6.1,9.66-15.42,11.29s-17.5-.84-18.31-5.4,6.1-9.57,15.42-11.2S94.8,107.86,95.6,112.42Z"/><path class="cls-22" d="M95.13,112.44c.78,4.51-6,9.57-15.27,11.18s-17.33-.83-18.13-5.35,6-9.48,15.27-11.09S94.34,107.93,95.13,112.44Z"/><path class="cls-23" d="M94.65,112.46c.78,4.47-6,9.49-15.1,11.08s-17.16-.83-18-5.31,6-9.38,15.12-11S93.87,108,94.65,112.46Z"/><path class="cls-24" d="M94.18,112.48c.77,4.43-5.91,9.4-15,11s-17-.83-17.78-5.26,5.92-9.29,15-10.87S93.41,108.06,94.18,112.48Z"/><path class="cls-25" d="M93.71,112.51c.76,4.37-5.85,9.3-14.8,10.86s-16.81-.82-17.59-5.21,5.86-9.19,14.8-10.75S93,108.13,93.71,112.51Z"/><path class="cls-26" d="M93.24,112.53c.75,4.33-5.79,9.21-14.65,10.76s-16.63-.82-17.41-5.17S67,109,75.83,107.48,92.48,108.19,93.24,112.53Z"/><path class="cls-27" d="M92.77,112.55c.74,4.28-5.73,9.13-14.5,10.66s-16.46-.82-17.23-5.12,5.74-9,14.5-10.54S92,108.26,92.77,112.55Z"/><path class="cls-28" d="M92.3,112.57c.74,4.24-5.67,9-14.34,10.55s-16.29-.81-17.06-5.07,5.68-8.91,14.35-10.42S91.56,108.33,92.3,112.57Z"/><path class="cls-29" d="M91.82,112.59c.74,4.2-5.6,9-14.18,10.45s-16.12-.82-16.87-5S66.38,109.2,75,107.7,91.09,108.39,91.82,112.59Z"/><path class="cls-30" d="M91.35,112.61c.73,4.15-5.54,8.86-14,10.34s-15.94-.81-16.69-5,5.55-8.72,14-10.2S90.63,108.46,91.35,112.61Z"/><path class="cls-31" d="M90.88,112.63c.72,4.11-5.48,8.78-13.88,10.24s-15.77-.81-16.51-4.93,5.5-8.63,13.89-10.09S90.16,108.53,90.88,112.63Z"/><path class="cls-32" d="M90.41,112.65c.71,4.07-5.42,8.69-13.73,10.14S61.09,122,60.36,117.9s5.43-8.53,13.73-10S89.7,108.59,90.41,112.65Z"/><path class="cls-33" d="M89.94,112.68c.7,4-5.36,8.59-13.57,10s-15.43-.8-16.15-4.83,5.37-8.44,13.58-9.87S89.24,108.66,89.94,112.68Z"/><path class="cls-34" d="M89.47,112.7c.69,4-5.3,8.5-13.42,9.92s-15.25-.8-16-4.79,5.31-8.34,13.43-9.76S88.77,108.73,89.47,112.7Z"/><path class="cls-35" d="M89,112.72c.69,3.92-5.23,8.42-13.26,9.82s-15.07-.8-15.79-4.75,5.25-8.25,13.28-9.65S88.31,108.79,89,112.72Z"/><path class="cls-36" d="M88.52,112.74c.68,3.88-5.17,8.33-13.11,9.71s-14.9-.79-15.6-4.69,5.18-8.16,13.12-9.54S87.84,108.86,88.52,112.74Z"/><path class="cls-37" d="M88.05,112.76c.67,3.84-5.11,8.24-13,9.61s-14.72-.8-15.42-4.65,5.12-8.06,13-9.43S87.38,108.92,88.05,112.76Z"/><path class="cls-38" d="M87.58,112.78c.66,3.79-5,8.15-12.8,9.51s-14.56-.8-15.25-4.61,5.07-8,12.82-9.31S86.92,109,87.58,112.78Z"/><path class="cls-39" d="M87.11,112.8c.65,3.75-5,8.07-12.65,9.4s-14.38-.79-15.07-4.55,5-7.87,12.67-9.21S86.45,109.06,87.11,112.8Z"/><path class="cls-40" d="M86.64,112.83c.64,3.7-4.93,8-12.5,9.29s-14.21-.79-14.88-4.51,4.94-7.78,12.51-9.1S86,109.12,86.64,112.83Z"/><path class="cls-41" d="M86.16,112.85c.64,3.65-4.86,7.88-12.34,9.18s-14-.78-14.7-4.46,4.88-7.68,12.36-9S85.53,109.19,86.16,112.85Z"/><path class="cls-42" d="M85.69,112.87c.63,3.61-4.8,7.79-12.19,9.08s-13.85-.78-14.52-4.41,4.82-7.59,12.2-8.88S85.06,109.26,85.69,112.87Z"/><path class="cls-43" d="M85.22,112.89c.62,3.57-4.74,7.71-12,9s-13.69-.78-14.35-4.37,4.76-7.49,12-8.76S84.6,109.32,85.22,112.89Z"/><path class="cls-44" d="M84.75,112.91c.61,3.52-4.68,7.62-11.88,8.87s-13.51-.77-14.16-4.32,4.7-7.4,11.89-8.65S84.13,109.39,84.75,112.91Z"/><path class="cls-45" d="M84.28,112.93c.6,3.48-4.62,7.53-11.73,8.77s-13.34-.78-14-4.27,4.64-7.31,11.74-8.55S83.67,109.46,84.28,112.93Z"/><path class="cls-46" d="M83.81,113c.59,3.43-4.56,7.44-11.58,8.67s-13.16-.78-13.8-4.23S63,110.18,70,109,83.21,109.52,83.81,113Z"/><path class="cls-47" d="M83.33,113c.59,3.39-4.49,7.35-11.42,8.56s-13-.77-13.62-4.18,4.52-7.11,11.44-8.32S82.74,109.59,83.33,113Z"/><path class="cls-48" d="M82.86,113c.58,3.34-4.43,7.26-11.26,8.45s-12.82-.77-13.44-4.13,4.45-7,11.28-8.22S82.28,109.66,82.86,113Z"/><path class="cls-49" d="M82.39,113c.58,3.29-4.37,7.17-11.11,8.35S58.64,120.6,58,117.28s4.39-6.93,11.13-8.1S81.82,109.72,82.39,113Z"/><path class="cls-50" d="M81.92,113c.57,3.25-4.31,7.08-11,8.24s-12.47-.76-13.08-4,4.33-6.83,11-8S81.35,109.79,81.92,113Z"/><path class="cls-51" d="M81.45,113.06c.56,3.21-4.26,7-10.81,8.14s-12.29-.76-12.9-4,4.28-6.74,10.83-7.88S80.89,109.85,81.45,113.06Z"/><path class="cls-52" d="M81,113.08c.55,3.16-4.2,6.91-10.66,8s-12.12-.75-12.71-3.94,4.21-6.64,10.67-7.77S80.42,109.92,81,113.08Z"/><path class="cls-53" d="M80.5,113.1c.55,3.12-4.13,6.82-10.49,7.93s-12-.76-12.54-3.9,4.15-6.55,10.52-7.66S80,110,80.5,113.1Z"/><path class="cls-54" d="M80,113.12c.54,3.07-4.07,6.73-10.34,7.83s-11.78-.76-12.36-3.85,4.09-6.46,10.37-7.55S79.5,110.05,80,113.12Z"/><path class="cls-55" d="M79.56,113.14c.53,3-4,6.64-10.19,7.72s-11.6-.75-12.17-3.8,4-6.36,10.21-7.44S79,110.12,79.56,113.14Z"/><path class="cls-56" d="M79.09,113.17c.52,3-4,6.55-10,7.61s-11.42-.75-12-3.76,4-6.26,10.06-7.33S78.57,110.19,79.09,113.17Z"/><path class="cls-57" d="M78.62,113.19c.51,2.93-3.89,6.46-9.89,7.51S57.48,120,56.92,117s3.91-6.17,9.91-7.22S78.1,110.25,78.62,113.19Z"/><path class="cls-58" d="M78.15,113.21c.5,2.89-3.83,6.37-9.73,7.4s-11.08-.74-11.64-3.66,3.85-6.08,9.76-7.11S77.64,110.32,78.15,113.21Z"/><path class="cls-59" d="M77.67,113.23c.5,2.85-3.76,6.28-9.57,7.3s-10.91-.74-11.45-3.62,3.78-6,9.59-7S77.18,110.39,77.67,113.23Z"/><path class="cls-60" d="M77.2,113.25c.49,2.8-3.7,6.2-9.42,7.2s-10.73-.74-11.27-3.57S60.23,111,66,110,76.71,110.45,77.2,113.25Z"/><path class="cls-61" d="M76.73,113.27c.48,2.76-3.64,6.11-9.27,7.09s-10.56-.74-11.09-3.52,3.66-5.79,9.29-6.78S76.25,110.52,76.73,113.27Z"/><path class="cls-62" d="M76.26,113.29c.47,2.71-3.58,6-9.12,7s-10.38-.74-10.91-3.48,3.6-5.7,9.14-6.66S75.79,110.58,76.26,113.29Z"/><path class="cls-63" d="M75.79,113.32c.46,2.66-3.52,5.92-9,6.87s-10.21-.73-10.73-3.42,3.54-5.61,9-6.56S75.32,110.65,75.79,113.32Z"/><path class="cls-64" d="M75.32,113.34c.45,2.62-3.46,5.84-8.81,6.77s-10-.73-10.55-3.38,3.48-5.51,8.83-6.44S74.86,110.72,75.32,113.34Z"/><path class="cls-65" d="M74.84,113.36c.45,2.57-3.39,5.75-8.65,6.67s-9.86-.73-10.37-3.34,3.42-5.41,8.68-6.33S74.39,110.78,74.84,113.36Z"/><path class="cls-66" d="M74.37,113.38c.44,2.53-3.33,5.66-8.5,6.56s-9.69-.72-10.19-3.28,3.36-5.32,8.53-6.23S73.93,110.85,74.37,113.38Z"/><path class="cls-67" d="M73.9,113.4c.43,2.49-3.27,5.57-8.35,6.46s-9.51-.72-10-3.24,3.29-5.23,8.37-6.11S73.47,110.92,73.9,113.4Z"/><path class="cls-68" d="M73.43,113.42c.42,2.44-3.21,5.49-8.19,6.36s-9.35-.72-9.83-3.2,3.23-5.13,8.22-6S73,111,73.43,113.42Z"/><path class="cls-69" d="M73,113.44c.41,2.4-3.15,5.4-8,6.25s-9.17-.72-9.65-3.15,3.17-5,8.07-5.89S72.54,111.05,73,113.44Z"/><path class="cls-70" d="M72.49,113.46c.4,2.35-3.09,5.31-7.89,6.15s-9-.72-9.47-3.1,3.12-4.94,7.92-5.78S72.08,111.12,72.49,113.46Z"/><path class="cls-71" d="M72,113.49c.41,2.3-3,5.21-7.73,6s-8.82-.72-9.28-3.06,3-4.85,7.76-5.67S71.61,111.18,72,113.49Z"/><path class="cls-72" d="M71.54,113.51c.4,2.26-3,5.13-7.58,5.93s-8.64-.71-9.1-3,3-4.75,7.61-5.55S71.15,111.25,71.54,113.51Z"/><path class="cls-73" d="M71.07,113.53c.39,2.21-2.9,5-7.42,5.83s-8.48-.71-8.93-3,2.93-4.66,7.46-5.45S70.68,111.32,71.07,113.53Z"/><path class="cls-74" d="M70.6,113.55c.38,2.17-2.84,5-7.27,5.72s-8.3-.7-8.75-2.91,2.87-4.56,7.31-5.34S70.22,111.38,70.6,113.55Z"/><path class="cls-75" d="M70.13,113.57c.37,2.13-2.78,4.86-7.12,5.62s-8.13-.7-8.56-2.87,2.8-4.46,7.14-5.22S69.76,111.45,70.13,113.57Z"/><path class="cls-76" d="M69.66,113.59c.36,2.08-2.72,4.78-7,5.52s-7.95-.7-8.38-2.82,2.75-4.38,7-5.12S69.29,111.51,69.66,113.59Z"/><path class="cls-77" d="M69.18,113.61c.36,2-2.65,4.69-6.81,5.41s-7.77-.7-8.2-2.77,2.69-4.28,6.84-5S68.83,111.58,69.18,113.61Z"/><path class="cls-78" d="M68.71,113.64c.35,2-2.59,4.59-6.65,5.3s-7.61-.7-8-2.73,2.62-4.18,6.68-4.89S68.36,111.65,68.71,113.64Z"/><path class="cls-79" d="M68.24,113.66c.34,1.94-2.53,4.5-6.5,5.2s-7.43-.7-7.84-2.68,2.56-4.09,6.53-4.79S67.9,111.71,68.24,113.66Z"/><path class="cls-80" d="M67.77,113.68c.33,1.9-2.47,4.42-6.35,5.09s-7.26-.69-7.66-2.63,2.5-4,6.38-4.67S67.44,111.78,67.77,113.68Z"/><path class="cls-81" d="M67.3,113.7c.32,1.85-2.41,4.33-6.2,5S54,118,53.62,116.1s2.44-3.9,6.23-4.56S67,111.85,67.3,113.7Z"/><path class="cls-82" d="M66.83,113.72c.31,1.81-2.35,4.24-6,4.89s-6.91-.69-7.29-2.54,2.37-3.81,6.07-4.46S66.51,111.91,66.83,113.72Z"/><path class="cls-83" d="M66.35,113.74c.31,1.77-2.28,4.15-5.88,4.78s-6.74-.68-7.12-2.49,2.32-3.71,5.92-4.34S66.05,112,66.35,113.74Z"/><path class="cls-84" d="M65.88,113.76c.3,1.72-2.22,4.07-5.73,4.68s-6.56-.68-6.94-2.45,2.26-3.62,5.77-4.23S65.58,112.05,65.88,113.76Z"/><path class="cls-85" d="M65.41,113.78c.29,1.68-2.16,4-5.58,4.57s-6.39-.68-6.76-2.39,2.2-3.53,5.62-4.12S65.12,112.11,65.41,113.78Z"/><path class="cls-86" d="M64.94,113.81c.28,1.62-2.1,3.88-5.43,4.46s-6.21-.68-6.57-2.35,2.13-3.43,5.46-4S64.65,112.18,64.94,113.81Z"/><path class="cls-87" d="M64.47,113.83c.27,1.58-2,3.79-5.28,4.36s-6-.68-6.39-2.31,2.07-3.33,5.31-3.9S64.19,112.24,64.47,113.83Z"/><path class="cls-88" d="M64,113.85c.27,1.54-2,3.7-5.12,4.25s-5.86-.67-6.21-2.25,2-3.24,5.16-3.79S63.73,112.31,64,113.85Z"/><path class="cls-89" d="M63.52,113.87c.26,1.49-1.91,3.62-5,4.15s-5.7-.67-6-2.21,2-3.15,5-3.68S63.26,112.38,63.52,113.87Z"/><path class="cls-90" d="M63.05,113.89c.25,1.45-1.85,3.53-4.81,4s-5.52-.67-5.85-2.17,1.89-3,4.85-3.56S62.8,112.44,63.05,113.89Z"/><path class="cls-91" d="M62.58,113.91c.24,1.41-1.79,3.44-4.66,3.94s-5.34-.66-5.67-2.11,1.83-3,4.7-3.46S62.34,112.51,62.58,113.91Z"/><path class="cls-92" d="M62.11,113.93c.24,1.36-1.73,3.35-4.51,3.84s-5.17-.67-5.49-2.07,1.77-2.86,4.54-3.35S61.87,112.58,62.11,113.93Z"/><path class="cls-93" d="M61.64,114c.23,1.31-1.67,3.26-4.36,3.73s-5-.67-5.31-2,1.71-2.77,4.39-3.23S61.41,112.64,61.64,114Z"/><path class="cls-94" d="M61.16,114c.23,1.26-1.6,3.17-4.19,3.62s-4.83-.66-5.13-2,1.64-2.68,4.23-3.13S60.94,112.71,61.16,114Z"/><path class="cls-95" d="M60.69,114c.22,1.22-1.54,3.08-4,3.52s-4.65-.66-4.95-1.93,1.58-2.58,4.08-3S60.48,112.78,60.69,114Z"/><path class="cls-96" d="M60.22,114c.21,1.18-1.48,3-3.89,3.41s-4.48-.65-4.77-1.88,1.53-2.48,3.93-2.9S60,112.84,60.22,114Z"/><path class="cls-97" d="M59.75,114c.2,1.13-1.42,2.91-3.74,3.31s-4.3-.65-4.58-1.83,1.46-2.39,3.77-2.8S59.55,112.91,59.75,114Z"/><path class="cls-98" d="M59.28,114.06c.19,1.09-1.36,2.82-3.59,3.21s-4.12-.65-4.4-1.79,1.4-2.3,3.62-2.68S59.09,113,59.28,114.06Z"/><path class="cls-99" d="M58.81,114.08c.18,1-1.3,2.73-3.43,3.1s-4-.64-4.23-1.74,1.34-2.2,3.47-2.57S58.62,113,58.81,114.08Z"/><path class="cls-100" d="M58.33,114.1c.18,1-1.23,2.64-3.27,3s-3.78-.65-4.05-1.69,1.28-2.11,3.32-2.47S58.16,113.11,58.33,114.1Z"/><path class="cls-101" d="M57.86,114.13c.17,1-1.17,2.55-3.12,2.89s-3.61-.65-3.86-1.65,1.21-2,3.16-2.35S57.7,113.17,57.86,114.13Z"/><path class="cls-102" d="M57.39,114.15c.16.9-1.11,2.46-3,2.78s-3.43-.64-3.68-1.6,1.16-1.92,3-2.24S57.23,113.24,57.39,114.15Z"/><path class="cls-103" d="M56.92,114.17c.15.86-1.05,2.37-2.82,2.68s-3.26-.64-3.5-1.55,1.1-1.83,2.86-2.14S56.77,113.31,56.92,114.17Z"/><path class="cls-104" d="M56.45,114.19c.14.82-1,2.28-2.66,2.58a3,3,0,0,1-3.33-1.51c-.21-.8,1-1.73,2.71-2S56.31,113.37,56.45,114.19Z"/><path class="cls-105" d="M56,114.21c.13.77-.93,2.2-2.51,2.47a2.77,2.77,0,0,1-3.14-1.46c-.21-.75,1-1.63,2.55-1.91S55.84,113.44,56,114.21Z"/><path class="cls-106" d="M55.5,114.23c.13.73-.86,2.11-2.35,2.37a2.65,2.65,0,0,1-3-1.41c-.2-.71.91-1.54,2.4-1.8S55.38,113.51,55.5,114.23Z"/><path class="cls-107" d="M55,114.25c.12.69-.8,2-2.2,2.26a2.5,2.5,0,0,1-2.78-1.36c-.19-.66.85-1.45,2.25-1.69S54.91,113.57,55,114.25Z"/><path d="M54.56,114.28c.11.63-.74,1.92-2.05,2.15a2.37,2.37,0,0,1-2.6-1.32c-.18-.62.79-1.35,2.1-1.58S54.45,113.64,54.56,114.28Z"/></g><path class="cls-108" d="M68.34,85.37a2.29,2.29,0,0,0,.17,2.24,8,8,0,0,0,5.3,3.92,2.1,2.1,0,0,0,1.89-.46L51.93,116.24a.59.59,0,0,1-.52.13A2.21,2.21,0,0,1,50,115.29a.64.64,0,0,1-.05-.62Q59.13,100,68.34,85.37Z"/><path class="cls-109" d="M96.69,90.23c-.21-.85-.52-2-.82-2.82s-.82-2-1.21-2.82-1.11-2-1.65-2.85a32.35,32.35,0,0,0-2.16-3,39,39,0,0,0-6-5.94,40.82,40.82,0,0,0-4.12-2.92c-.85-.55-1.95-1.13-2.92-1.65,0,0-1.36-.71-3.11-1.4-.92-.37-2.16-.78-3.11-1.05a27,27,0,0,0-3.29-.72A23.35,23.35,0,0,0,65,64.82a18.66,18.66,0,0,0-4.79.55,15.4,15.4,0,0,0-3.11,1.15,16.9,16.9,0,0,0-2.24,1.34,18.84,18.84,0,0,0-1.79,1.5,19.49,19.49,0,0,0-1.68,1.84l0,0-.39.48c-2.32,3-2.31,7.77.56,13.48C56.94,96,70.56,106.06,81.93,107.67c5.36.75,9.25-.5,11.32-3.16l.46-.63a17.81,17.81,0,0,0,2.35-4.21,16,16,0,0,0,1-4.87A17.82,17.82,0,0,0,96.69,90.23ZM84.11,91c-6.49-.92-14.25-6.65-17.35-12.81s-.35-10.4,6.13-9.48,14.25,6.65,17.35,12.8S90.59,91.92,84.11,91Z"/><path class="cls-110" d="M97,43c-1,.85-1.06,2.4-.11,4.3A13.62,13.62,0,0,0,106,54c1.8.26,3.05-.26,3.57-1.27Q100.26,70.65,91,88.56c-1,2-3.41,2.94-6.86,2.45-6.49-.92-14.25-6.65-17.35-12.81-1.83-3.64-1.62-6.61.2-8.25Z"/><path class="cls-111" d="M97,43c-1,.85-1.06,2.4-.11,4.3A13.62,13.62,0,0,0,106,54c1.8.26,3.05-.26,3.57-1.27Q100.26,70.65,91,88.56c-1,2-3.41,2.94-6.86,2.45-6.49-.92-14.25-6.65-17.35-12.81-1.83-3.64-1.62-6.61.2-8.25Z"/><path class="cls-112" d="M91.54,30.58c-1.72,2.23-1.71,5.77.42,10,4,8,14.15,15.49,22.59,16.68,4,.56,6.87-.37,8.4-2.34-.11.14-.26.33-.38.46a10.76,10.76,0,0,1-.93.86,9.39,9.39,0,0,1-2,1.15,12.69,12.69,0,0,1-5,.88,20.69,20.69,0,0,1-5.42-.84A27.89,27.89,0,0,1,103.34,55a31.38,31.38,0,0,1-5-3.55,28.7,28.7,0,0,1-4.38-4.75A24.21,24.21,0,0,1,91.27,42a19.45,19.45,0,0,1-.93-2.67,14.11,14.11,0,0,1-.44-2.6,10.22,10.22,0,0,1,.28-3.38,7.11,7.11,0,0,1,.42-1.2A14.25,14.25,0,0,1,91.54,30.58Z"/><path class="cls-113" d="M122.54,44.92c4,8,.46,13.54-8,12.35S96,48.61,92,40.59s-.46-13.54,8-12.35S118.5,36.9,122.54,44.92Z"/><path class="cls-114" d="M105.22,29.7A23,23,0,0,0,100,28.24c-8.45-1.19-12,4.34-8,12.35a31.61,31.61,0,0,0,8.7,10.18c.38-1,.75-2,1.08-3A76.67,76.67,0,0,0,105.22,29.7Z"/><g class="cls-115"><path class="cls-116" d="M55.35,85.91c-1.19,2.72,1.43,6.82,5.41,7.83,4.63,1.17,10.43-2,11-5.4.4-2.51-2.2-4.37-2.5-4.58C65.11,80.91,56.91,82.34,55.35,85.91Z"/></g></g></g></svg>