<svg width="32" height="32" viewBox="0 0 32 32" fill="none" xmlns="http://www.w3.org/2000/svg">
<path d="M6.8125 25.1875C5.6625 24.0375 6.425 21.625 5.8375 20.2125C5.25 18.8 3 17.5625 3 16C3 14.4375 5.225 13.25 5.8375 11.7875C6.45 10.325 5.6625 7.9625 6.8125 6.8125C7.9625 5.6625 10.375 6.425 11.7875 5.8375C13.2 5.25 14.4375 3 16 3C17.5625 3 18.75 5.225 20.2125 5.8375C21.675 6.45 24.0375 5.6625 25.1875 6.8125C26.3375 7.9625 25.575 10.375 26.1625 11.7875C26.75 13.2 29 14.4375 29 16C29 17.5625 26.775 18.75 26.1625 20.2125C25.55 21.675 26.3375 24.0375 25.1875 25.1875C24.0375 26.3375 21.625 25.575 20.2125 26.1625C18.8 26.75 17.5625 29 16 29C14.4375 29 13.25 26.775 11.7875 26.1625C10.325 25.55 7.9625 26.3375 6.8125 25.1875Z" fill="#F2B344"/>
<path d="M22.1903 13.7236L22.9138 13.0333L21.5333 11.5862L20.8097 12.2764L22.1903 13.7236ZM14.1625 20L13.4716 20.723C13.8579 21.0921 14.4662 21.0924 14.8528 20.7236L14.1625 20ZM11.1909 15.777L10.4679 15.0862L9.08615 16.5321L9.80911 17.223L11.1909 15.777ZM20.8097 12.2764L13.4722 19.2764L14.8528 20.7236L22.1903 13.7236L20.8097 12.2764ZM14.8534 19.277L11.1909 15.777L9.80911 17.223L13.4716 20.723L14.8534 19.277Z" fill="#172327"/>
</svg>
