<svg width="24" height="24" viewBox="0 0 24 24" fill="none" xmlns="http://www.w3.org/2000/svg">
<path d="M5.10938 18.8906C4.24688 18.0281 4.81875 16.2188 4.37813 15.1594C3.9375 14.1 2.25 13.1719 2.25 12C2.25 10.8281 3.91875 9.9375 4.37813 8.84063C4.8375 7.74375 4.24688 5.97187 5.10938 5.10938C5.97187 4.24688 7.78125 4.81875 8.84063 4.37813C9.9 3.9375 10.8281 2.25 12 2.25C13.1719 2.25 14.0625 3.91875 15.1594 4.37813C16.2562 4.8375 18.0281 4.24688 18.8906 5.10938C19.7531 5.97187 19.1812 7.78125 19.6219 8.84063C20.0625 9.9 21.75 10.8281 21.75 12C21.75 13.1719 20.0813 14.0625 19.6219 15.1594C19.1625 16.2562 19.7531 18.0281 18.8906 18.8906C18.0281 19.7531 16.2188 19.1812 15.1594 19.6219C14.1 20.0625 13.1719 21.75 12 21.75C10.8281 21.75 9.9375 20.0813 8.84063 19.6219C7.74375 19.1625 5.97187 19.7531 5.10938 18.8906Z" fill="#172327"/>
<path d="M16.8153 10.4736L17.5388 9.78328L16.1583 8.33618L15.4347 9.02645L16.8153 10.4736ZM10.6219 15L9.93099 15.723C10.3173 16.0921 10.9255 16.0924 11.3121 15.7236L10.6219 15ZM8.56589 11.652L7.84292 10.9612L6.46115 12.4071L7.18411 13.098L8.56589 11.652ZM15.4347 9.02645L9.9316 14.2764L11.3121 15.7236L16.8153 10.4736L15.4347 9.02645ZM11.3128 14.277L8.56589 11.652L7.18411 13.098L9.93099 15.723L11.3128 14.277Z" fill="#F9F5F2"/>
</svg>
