<?xml version="1.0" encoding="UTF-8" standalone="no"?><!DOCTYPE svg PUBLIC "-//W3C//DTD SVG 1.1//EN" "http://www.w3.org/Graphics/SVG/1.1/DTD/svg11.dtd"><svg width="100%" height="100%" viewBox="0 0 1418 1418" version="1.1" xmlns="http://www.w3.org/2000/svg" xmlns:xlink="http://www.w3.org/1999/xlink" xml:space="preserve" xmlns:serif="http://www.serif.com/" style="fill-rule:evenodd;clip-rule:evenodd;stroke-linejoin:round;stroke-miterlimit:2;"><path d="M0,0l0,1418l1418,0l0,-1418l-1418,0Zm1387.3,620.065c-92.1,394.108 -637.327,766.115 -678.709,787.209c-41.266,-21.094 -586.493,-393.101 -678.709,-787.209c-17.982,-77 -40.344,-297.312 44.494,-427.798c10.029,-15.446 53.601,-76.308 134.29,-124.606c115.27,-69.047 332.323,-114.579 499.925,129.448c167.718,-244.142 384.656,-198.495 499.926,-129.448c80.689,48.298 124.261,109.275 134.289,124.606c84.839,130.371 62.477,350.798 44.494,427.798Z" style="fill:#fff;fill-rule:nonzero;"/><path d="M1387.3,620.065c-92.1,394.108 -637.327,766.115 -678.709,787.209c-41.266,-21.094 -586.493,-393.101 -678.709,-787.209c-17.982,-77 -40.344,-297.312 44.494,-427.798c10.029,-15.446 53.601,-76.308 134.29,-124.606c115.27,-69.047 332.323,-114.579 499.925,129.448c167.718,-244.142 384.656,-198.495 499.926,-129.448c80.689,48.298 124.261,109.275 134.289,124.606c84.839,130.371 62.477,350.798 44.494,427.798Z" style="fill:none;fill-rule:nonzero;stroke:#000;stroke-width:1px;"/></svg>