<?xml version="1.0" encoding="UTF-8" standalone="no"?><!DOCTYPE svg PUBLIC "-//W3C//DTD SVG 1.1//EN" "http://www.w3.org/Graphics/SVG/1.1/DTD/svg11.dtd"><svg width="100%" height="100%" viewBox="0 0 1418 1418" version="1.1" xmlns="http://www.w3.org/2000/svg" xmlns:xlink="http://www.w3.org/1999/xlink" xml:space="preserve" xmlns:serif="http://www.serif.com/" style="fill-rule:evenodd;clip-rule:evenodd;stroke-linejoin:round;stroke-miterlimit:2;"><path d="M0,0l0,1418l1418,0l0,-1418l-1418,0Zm708.66,1400.47c-382.062,0 -691.785,-309.734 -691.785,-691.808c0,-382.074 309.723,-691.808 691.785,-691.808c382.062,0 691.785,309.734 691.785,691.808c0,382.074 -309.723,691.808 -691.785,691.808Z" style="fill:#fff;fill-rule:nonzero;"/><path d="M709,16.883c-381.99,-0 -692.117,310.127 -692.117,692.117c-0,381.99 310.127,692.117 692.117,692.117c381.99,0 692.117,-310.127 692.117,-692.117c0,-381.99 -310.127,-692.117 -692.117,-692.117Zm0,1c381.438,-0 691.117,309.679 691.117,691.117c0,381.438 -309.679,691.117 -691.117,691.117c-381.438,0 -691.117,-309.679 -691.117,-691.117c-0,-381.438 309.679,-691.117 691.117,-691.117Z"/></svg>