<svg width="160" height="160" viewBox="0 0 160 160" fill="none" xmlns="http://www.w3.org/2000/svg">
<path fill-rule="evenodd" clip-rule="evenodd" d="M65.0982 12.9213C63.2608 13.2052 61.1623 16.207 61.1623 18.5512C61.1623 19.0642 61.0358 19.7202 60.8814 20.009C60.7268 20.2975 60.5099 21.6323 60.3994 22.975C60.2888 24.3173 60.1369 25.8983 60.0618 26.4879C59.7911 28.6134 59.5972 31.9343 59.472 36.5948C59.4015 39.2058 59.2707 42.5824 59.181 44.0985C59.0913 45.6145 58.9657 48.5777 58.902 50.6833C58.8074 53.8112 58.6423 54.919 58 56.7379C57.5676 57.9624 57.2025 59.065 57.1887 59.1881C57.1746 59.3112 57.0043 59.9633 56.8105 60.6371C56.3636 62.1893 56.3964 62.0873 56.1685 62.6278C55.8347 63.4202 54.9928 66.044 54.8733 66.6639C54.8105 66.9897 54.477 67.7132 54.1321 68.2709C53.7876 68.8286 53.5055 69.5107 53.5055 69.7863C53.5055 70.0619 53.1521 71.0105 52.7199 71.8941C52.2881 72.7776 51.584 74.603 51.1558 75.9506C50.7273 77.2982 50.2551 78.5512 50.1062 78.7352C49.9574 78.9193 49.9136 79.1475 50.0085 79.2427C50.1038 79.338 49.9904 79.8075 49.7564 80.2865C49.5228 80.7655 49.3494 81.3639 49.3715 81.6166C49.3935 81.8693 49.2995 82.307 49.1629 82.589C49.0263 82.8711 48.8597 83.6291 48.7929 84.2735C48.7262 84.9179 48.5963 85.7896 48.5044 86.2107C48.0116 88.47 47.9868 88.7007 48.2539 88.5356C48.4266 88.4287 48.4456 88.776 48.302 89.4134C48.1712 89.9934 48.1295 90.5334 48.2098 90.6133C48.3455 90.749 48.6477 95.3121 48.6229 96.8536C48.6171 97.2324 48.7188 97.5427 48.8493 97.5427C48.9797 97.5427 49.0928 97.784 49.1001 98.0787C49.1289 99.1956 49.5007 101.114 49.8587 101.991C50.3962 103.308 50.3938 103.299 50.8737 105.812C51.1148 107.075 51.41 108.358 51.5295 108.662C51.6578 108.989 51.4486 109.991 51.018 111.112C50.1923 113.263 47.8426 115.854 46.1207 116.513C44.3842 117.177 43.2892 117.708 42.3352 118.349L41.425 118.961L40.7285 118.306C40.1132 117.728 39.9441 117.699 39.2811 118.054C38.4321 118.508 38.1809 119.732 38.5963 121.394C38.7381 121.962 38.9041 122.651 38.965 122.925C39.0256 123.199 39.2979 124.181 39.5696 125.107C39.8415 126.034 40.1059 126.998 40.1573 127.251C40.2088 127.504 40.327 127.917 40.4204 128.17C40.5729 128.583 40.7178 129.381 41.0945 131.88C41.2997 133.243 42.2295 135.827 42.515 135.827C42.6641 135.827 42.786 136.046 42.786 136.315C42.786 136.74 43.3082 137.624 44.4623 139.153C44.6353 139.382 45.634 140.431 46.6818 141.483C48.5237 143.333 52.293 145.563 53.9352 145.774C54.2886 145.82 55.197 145.955 55.9541 146.074C56.7112 146.194 57.8827 146.334 58.5574 146.386C59.2322 146.437 59.9908 146.56 60.2435 146.659C60.4961 146.758 61.1852 146.893 61.7748 146.96C62.3644 147.027 62.9846 147.13 63.153 147.19C63.3215 147.25 63.9074 147.031 64.4547 146.703C65.2822 146.208 65.4485 145.925 65.4403 145.025C65.4277 143.614 64.7824 142.75 63.9411 143.017C63.3533 143.203 63.1595 143.679 63.2832 144.632C63.3423 145.085 62.569 145.133 61.8045 144.724C61.3491 144.481 57.8493 144.05 56.2619 144.043C54.2038 144.033 49.441 141.619 47.5387 139.622C45.5461 137.529 45.2362 137.144 45.2362 136.758C45.2362 136.583 45.1311 136.439 45.0025 136.439C44.6108 136.439 43.1931 133.552 42.956 132.27C42.8657 131.784 42.647 130.594 42.4697 129.626C42.292 128.658 41.8084 126.966 41.3946 125.867C40.5123 123.523 40.4281 122.192 41.1453 121.917C41.4222 121.811 41.5643 121.639 41.4617 121.537C41.2234 121.299 44.3918 118.997 44.7002 119.184C44.8267 119.261 44.9299 119.178 44.9299 119C44.9299 118.821 45.1382 118.675 45.3927 118.675C46.147 118.675 49.4287 116.281 50.4615 114.977C51.9637 113.08 53.576 108.956 53.3257 107.65C53.2127 107.06 53.0764 106.302 53.0231 105.965C52.8844 105.09 52.6409 104.015 52.4336 103.362C52.1092 102.34 51.9022 101.387 51.7521 100.224C51.6706 99.5935 51.4933 99.1457 51.3582 99.2293C51.2232 99.3129 51.1821 99.1145 51.2676 98.7883C51.3527 98.4624 51.2605 97.7047 51.0624 97.105C50.4596 95.2781 50.2376 89.8198 50.6195 86.2107C50.7353 85.1158 50.8529 84.0107 50.8808 83.755C50.9083 83.4996 51.0036 83.155 51.0918 82.9893C51.18 82.8239 51.2759 82.3024 51.305 81.8301C51.3337 81.3578 51.4951 80.714 51.6636 80.3995C51.832 80.085 52.0529 79.2997 52.1542 78.6547C52.2556 78.0097 52.4388 77.3441 52.5607 77.1757C52.6829 77.0072 52.9701 76.2492 53.1992 75.4912C53.4283 74.7332 53.726 73.9644 53.8608 73.7828C53.9955 73.6009 54.1674 73.1185 54.2424 72.7109C54.3174 72.3029 54.4053 71.9002 54.4378 71.816C54.4703 71.7317 54.4807 71.5593 54.4605 71.4331C54.4406 71.3066 54.5511 71.2034 54.7064 71.2034C54.8614 71.2034 55.084 70.7556 55.201 70.208C55.318 69.6607 55.5217 69.0748 55.6534 68.9064C55.8595 68.6424 56.4708 66.8923 57.8196 62.702C57.9964 62.1531 58.2062 61.3262 58.2855 60.8643C58.5143 59.5342 58.7335 58.9526 59.0067 58.9526C59.1461 58.9526 59.1528 59.4279 59.0217 60.0092C58.8907 60.5902 58.8466 61.1289 58.9237 61.2058C59.1415 61.4236 59.0995 70.1367 58.8757 71.1556C58.7185 71.8711 58.8135 72.1587 59.3256 72.517C59.9504 72.955 59.9562 73.0153 59.4842 74.1549C58.4904 76.5527 58.2512 77.0226 58.0248 77.0226C57.8974 77.0226 57.7933 77.2195 57.7933 77.4602C57.7933 77.7006 57.6209 78.0798 57.4105 78.3025C56.3155 79.4599 56.0368 81.0041 56.9229 81.0041C57.5645 81.0041 59.1201 78.964 60.1883 76.7212C60.7914 75.4551 61.309 74.3157 61.3384 74.1896C61.3678 74.0634 61.4199 73.9252 61.4538 73.8833C61.4875 73.8413 61.5647 73.5452 61.6247 73.2254C61.6848 72.906 61.9393 72.0101 62.1901 71.2347C62.6459 69.8264 63.565 66.3882 63.7947 65.2311C63.8617 64.8942 64.0127 64.1362 64.1303 63.5466C64.2483 62.9571 64.3634 62.3369 64.3867 62.1684C64.542 61.0355 64.9747 59.8325 65.334 59.5345C65.6596 59.2641 65.7563 59.2843 65.7563 59.623C65.7563 59.8647 66.0666 60.3951 66.4454 60.8018C66.8243 61.2086 67.1462 61.6138 67.1603 61.702C67.1744 61.7899 67.3603 62.2756 67.5734 62.781C67.7866 63.2863 68.0056 63.9065 68.0604 64.1592C68.1149 64.4119 68.1808 64.6186 68.2065 64.6186C68.39 64.6186 68.5593 66.3239 68.6555 69.133C68.759 72.1516 68.571 73.5237 67.8592 74.9509C67.7134 75.2434 67.594 75.6872 67.594 75.9371C67.594 76.1867 67.2479 77.4516 66.8246 78.7478C65.7367 82.0803 65.4764 84.019 65.9579 85.1994C66.1744 85.7298 66.5254 86.2713 66.7376 86.4024C67.3211 86.7629 68.1792 86.7604 68.1125 86.3987C68.0785 86.2147 68.7305 86.0594 69.6506 86.033C72.449 85.9522 75.6045 83.8499 75.8774 81.8846C76.1625 79.8329 75.3028 79.7138 74.3062 81.6672C73.7041 82.8472 72.4989 84.287 72.4897 83.8371C72.4869 83.7106 72.3663 83.7948 72.2211 84.0236C71.8006 84.6873 69.272 84.8459 68.3841 84.264C67.7419 83.8432 67.6549 83.6006 67.7952 82.6169C67.8855 81.9826 68.1508 80.9122 68.3844 80.2384C68.6184 79.5646 68.8687 78.6688 68.9403 78.2476C69.2595 76.3727 69.099 76.4281 73.8232 76.569C76.2084 76.64 78.8231 76.7022 79.6332 76.7071C80.4653 76.7123 81.0291 76.8406 80.9293 77.0023C80.7333 77.319 82.1761 77.2437 82.4995 76.92C82.7945 76.625 83.5853 76.6691 83.3991 76.9702C83.313 77.1101 83.8903 77.233 84.6826 77.2434C85.475 77.2538 91.6362 77.3374 98.3742 77.429C110.165 77.5895 113.901 77.4324 116.233 76.6783C116.79 76.4979 117.41 76.3209 117.611 76.2851C120.583 75.7509 120.72 74.2104 120.99 38.249C121.049 30.3154 121.167 23.6999 121.251 23.548C121.525 23.0528 121.283 18.044 120.955 17.4305C120.149 15.9249 113.174 14.6903 102.049 14.0852C100.533 14.0028 98.9484 13.8671 98.5273 13.7841C97.4832 13.5783 93.6934 13.2885 90.6816 13.1844C89.3144 13.1372 88.074 13.0313 87.9251 12.9489C87.5989 12.7688 66.2528 12.7431 65.0982 12.9213ZM88.5735 14.9813C96.8842 15.3568 98.3852 15.4404 99.5417 15.592C100.184 15.6762 102.596 15.8238 104.901 15.9197C110.637 16.1586 113.545 16.3512 113.8 16.5093C113.919 16.5822 114.837 16.7365 115.842 16.852C118.007 17.1004 118.129 17.158 118.129 17.9304C118.129 18.2575 118.244 18.5249 118.386 18.5249C118.943 18.5249 119.256 20.0112 119.16 22.2001C119.044 24.8405 118.984 27.7598 119.017 29.0912C119.03 29.5965 119.03 30.2167 119.017 30.4694C119.005 30.7221 119.005 32.4449 119.019 34.2978C119.032 36.1507 119.035 38.5626 119.026 39.6575C119.017 40.7524 119.025 41.7861 119.045 41.9546C119.116 42.5591 119.028 56.684 118.945 57.9762C118.899 58.7024 118.974 59.3667 119.112 59.4521C119.25 59.5376 119.291 59.725 119.202 59.8686C119.114 60.0123 118.988 62.9314 118.923 66.3558C118.798 72.9874 118.637 74.3298 117.891 74.9485C117.548 75.233 115.638 75.3537 110.808 75.3963C101.206 75.4805 78.9989 75.4639 75.2507 75.3696C69.6812 75.2293 69.782 75.2428 69.8864 74.649C69.9382 74.354 70.08 73.253 70.2009 72.2019C70.4015 70.4598 70.479 70.303 71.0747 70.4307C71.4343 70.5079 73.4514 70.6472 75.557 70.7403C77.6626 70.8337 80.0745 70.9814 80.9167 71.068C82.9758 71.2806 93.1418 71.3008 96.3834 71.0993C101.215 70.7988 106.933 70.5403 109.889 70.4889C113.024 70.4344 114.045 70.0515 113.582 69.1039C113.313 68.5554 113.334 67.0308 113.666 62.781C113.784 61.2649 113.938 58.7841 114.007 57.2681C114.174 53.6045 114.422 48.9988 114.452 48.9988C114.49 48.9988 114.78 41.587 114.849 38.815C114.884 37.4251 114.844 36.2882 114.76 36.2882C114.615 36.2882 114.536 34.5336 114.468 29.7803C114.451 28.6431 114.338 27.713 114.216 27.7127C114.094 27.7127 113.994 26.253 113.994 24.469C113.994 22.6852 113.925 21.1349 113.841 21.0237C113.64 20.7588 113.386 20.7174 110.729 20.5184C109.492 20.4259 107.723 20.2614 106.797 20.1533C104.899 19.9316 104.482 19.9012 99.1398 19.5971C91.1808 19.1438 78.3137 18.8599 78.3128 19.1374C78.3128 19.2216 76.9 19.2838 75.1739 19.2758C73.3154 19.2669 71.943 19.3919 71.8098 19.5821C71.6615 19.7934 71.5831 19.775 71.5801 19.5279C71.5767 19.2544 71.3678 19.2314 70.8098 19.4437C70.389 19.6038 69.6475 19.6553 69.1627 19.5582C68.1694 19.3597 68.0022 19.527 67.7471 20.975C67.6482 21.5361 67.4739 22.145 67.3597 22.3275C67.2454 22.51 67.129 22.8077 67.1015 22.9887C67.0093 23.5936 66.6782 26.6199 66.5006 28.4787C66.4041 29.4893 66.2733 30.7987 66.2099 31.3882C66.1462 31.9778 66.0179 35.4233 65.9242 39.045C65.7808 44.6053 65.4201 56.9928 65.3646 58.2635C65.3554 58.4742 65.0988 58.6463 64.7943 58.6463C64.0143 58.6463 63.4847 59.8634 62.7292 63.3935C62.0425 66.6038 61.3604 68.8494 61.1396 68.6283C60.8263 68.315 61.233 32.3885 61.6131 26.7942C61.9191 22.2938 62.339 18.9215 62.8342 16.9843C63.0504 16.1393 65.4681 14.6355 66.0412 14.9896C66.2216 15.1011 66.3689 15.0805 66.3689 14.9442C66.3689 14.6625 82.0962 14.6885 88.5735 14.9813ZM100.365 21.0957C103.523 21.2494 105.295 21.3649 110.272 21.7404C111.089 21.8019 111.804 21.8987 111.86 21.9551C111.917 22.0117 112.049 23.2959 112.154 24.8089C112.259 26.3219 112.401 28.18 112.469 28.9381C112.963 34.4289 113.11 45.288 112.789 52.5209C112.718 54.1212 112.577 57.9802 112.477 61.0965C112.295 66.7711 112.133 68.413 111.749 68.4862C110.774 68.6718 105.454 69.009 100.212 69.2172C98.5273 69.2843 95.7709 69.435 94.0864 69.5523C89.9949 69.8374 84.543 69.8289 77.854 69.5269C74.8219 69.39 71.8931 69.2736 71.3458 69.2684C70.4901 69.2601 70.3467 69.148 70.3238 68.4699C70.2104 65.1019 68.7452 61.0622 67.2307 59.9406C66.7854 59.6108 66.7287 59.1899 66.865 57.2215C66.9535 55.941 67.1416 54.5898 67.2825 54.2192C67.4234 53.8486 67.5572 51.9711 67.5799 50.0471C67.6721 42.247 68.0099 34.062 68.3753 30.7757C68.5354 29.3335 68.8965 24.7204 68.9385 23.5783C68.9569 23.073 69.2598 22.3407 69.6111 21.9511C70.204 21.2935 70.5433 21.2329 74.3356 21.1058C76.583 21.0305 78.458 20.9324 78.5024 20.888C78.6445 20.7459 96.7056 20.9174 100.365 21.0957ZM102.797 29.6048C101.881 30.6452 100.717 31.938 100.212 32.4776C99.2697 33.484 97.4324 35.6194 95.373 38.102C94.7329 38.8732 93.906 39.8649 93.5354 40.3053C93.1645 40.7454 92.4478 41.6152 91.9425 42.2376C91.4371 42.8599 90.6791 43.7401 90.258 44.1934C89.8369 44.6464 89.1128 45.5765 88.6495 46.2598C88.1858 46.9434 87.353 47.9976 86.799 48.6025L85.7913 49.7023L85.0385 48.7985C84.6244 48.3014 83.9173 47.4886 83.467 46.9921C83.0168 46.4953 82.7164 46.0892 82.7997 46.0892C82.883 46.0892 82.7691 45.9051 82.5464 45.6803C80.4077 43.5193 76.7441 38.8502 76.6424 38.1556C76.5175 37.2999 75.6492 37.4481 74.6707 38.4925C74.1491 39.049 73.7215 39.5978 73.7209 39.7124C73.72 39.8266 73.5436 40.1022 73.3289 40.3249C73.1139 40.5472 72.3485 41.6002 71.6275 42.6648L70.317 44.6001L71.1559 46.0338C71.6174 46.8221 72.1626 47.6362 72.3678 47.842C72.5727 48.0481 73.041 48.7029 73.4082 49.2968C73.7751 49.891 74.18 50.377 74.3077 50.377C74.4354 50.377 74.6936 50.7142 74.8814 51.1261C75.0691 51.5384 75.7114 52.4165 76.3086 53.0777C76.9058 53.7386 77.3946 54.376 77.3946 54.4936C77.3946 54.8648 79.141 57.2185 80.3618 58.4932C81.0074 59.167 81.9357 60.2432 82.4248 60.8848C83.2661 61.9883 85.0459 63.2248 85.056 62.7124C85.0587 62.5816 85.1944 62.6814 85.3577 62.9341C85.5209 63.1868 85.6566 63.2404 85.6593 63.0532C85.6618 62.8658 85.9739 62.7703 86.353 62.8404C86.8599 62.9341 87.4676 62.5602 88.6501 61.4266C89.5343 60.5789 90.258 59.7443 90.258 59.5719C90.258 59.3997 90.4647 59.2589 90.7174 59.2589C90.9701 59.2589 91.1789 59.1553 91.1817 59.0292C91.1845 58.903 91.5964 58.3171 92.0971 57.7275C92.5982 57.1379 93.1526 56.4834 93.3296 56.2727C93.5063 56.0623 93.5614 55.8899 93.4521 55.8899C93.3424 55.8899 93.5783 55.6188 93.9758 55.2874C94.3737 54.9564 94.5954 54.6807 94.4692 54.6749C94.343 54.6694 94.4805 54.399 94.7755 54.0743C95.3709 53.418 95.3712 53.418 97.2893 50.8361C98.04 49.8257 98.9705 48.6558 99.3567 48.2362C99.7426 47.8169 100.059 47.3835 100.059 47.2733C100.059 47.163 100.491 46.6102 101.021 46.0451C101.55 45.4797 102.324 44.466 102.74 43.7922C103.157 43.1184 103.792 42.2685 104.152 41.9031C104.512 41.538 105.288 40.527 105.878 39.6566C106.467 38.7862 107.232 37.7755 107.576 37.4107C107.921 37.046 108.468 36.2996 108.791 35.7523C109.114 35.205 109.487 34.7572 109.619 34.7572C109.751 34.7572 109.859 34.5505 109.859 34.2978C109.859 34.0451 109.985 33.8384 110.139 33.8384C110.764 33.8384 110.193 32.3257 109.257 31.5031C108.707 31.0189 107.56 29.9677 106.711 29.1678C105.861 28.3678 105.008 27.713 104.815 27.713C104.622 27.713 103.714 28.5644 102.797 29.6048ZM106.296 30.6863C107.161 31.311 108.177 32.1432 108.554 32.5355L109.239 33.2488L107.65 35.3048C106.776 36.4353 105.528 37.9807 104.878 38.7387C104.228 39.4967 103.601 40.2554 103.485 40.4244C102.965 41.1849 99.5362 45.4142 98.7689 46.2424C98.3007 46.7477 97.9169 47.2583 97.9163 47.3771C97.9154 47.4956 97.6048 47.9091 97.2256 48.2959C96.8465 48.6824 96.1699 49.5501 95.7215 50.2239C95.2735 50.8977 94.5709 51.7993 94.1605 52.2275C93.7501 52.6554 93.3587 53.1644 93.291 53.3586C92.9409 54.3585 86.1555 61.4028 85.542 61.4028C85.331 61.4028 84.931 61.1617 84.6529 60.8668C83.7476 59.9072 81.8597 57.7664 80.7636 56.4568C80.174 55.7524 79.4506 54.9233 79.1557 54.6143C78.8607 54.3052 78.5983 53.9487 78.5719 53.8226C78.4779 53.3726 76.0911 50.377 75.8265 50.377C75.6783 50.377 75.557 50.177 75.557 49.9323C75.557 49.6879 75.0973 49.0331 74.5356 48.4775C73.9736 47.9219 73.2548 47.0197 72.9381 46.4721C72.6214 45.9248 72.2542 45.4767 72.1219 45.4767C71.7014 45.4767 71.864 44.3413 72.3412 43.9453C72.5938 43.7355 72.8006 43.3698 72.8006 43.1325C72.8006 42.8951 73.0073 42.6216 73.26 42.5248C73.5126 42.4278 73.7194 42.2195 73.7194 42.0621C73.7194 41.9043 73.8599 41.6091 74.0318 41.4057C74.2033 41.2024 74.659 40.6529 75.0443 40.1849L75.7444 39.3341L77.9346 42.3288C79.1391 43.9759 80.5097 45.7575 80.9801 46.2877C81.4506 46.8178 82.3179 47.8353 82.9075 48.5486C83.4971 49.2616 84.2177 50.1204 84.509 50.4569C84.8002 50.7932 84.977 51.1684 84.9016 51.2906C84.7099 51.6003 86.1175 52.2024 86.4578 51.9564C86.991 51.5705 89.0329 48.8931 89.0329 48.5795C89.0329 48.4058 89.2084 48.1535 89.4231 48.0187C89.6378 47.884 90.0353 47.4291 90.3067 47.008C90.578 46.5869 91.0913 45.9113 91.4478 45.5064C91.804 45.1015 92.0956 44.6752 92.0956 44.5588C92.0956 44.4421 92.45 43.9465 92.8833 43.4571C93.3164 42.9674 94.0386 42.0847 94.4879 41.4952C94.9372 40.9056 95.5684 40.1822 95.8909 39.8872C96.2134 39.5923 96.3837 39.3513 96.2698 39.3513C96.0958 39.3513 96.9129 38.3586 98.3852 36.7817C98.5595 36.5945 99.4342 35.5572 100.329 34.476C101.224 33.3949 102.115 32.3459 102.309 32.145C102.503 31.9441 103.056 31.278 103.538 30.6651C104.02 30.0523 104.484 29.5506 104.569 29.5506C104.654 29.5506 105.431 30.0618 106.296 30.6863ZM81.5813 79.3962C81.506 79.5223 81.3498 80.4494 81.234 81.4558C80.974 83.7192 80.9905 83.4968 81.0337 84.1902C81.0674 84.7348 81.1082 84.7286 81.6558 84.0974C82.2968 83.3584 82.7718 80.7986 82.4536 79.7968C82.2524 79.1622 81.8355 78.9707 81.5813 79.3962ZM86.0921 80.5934C85.8492 80.6834 85.8452 81.0583 86.0777 81.929C86.3129 82.8108 86.2994 83.63 86.0278 84.9449C85.6713 86.6707 85.7647 87.742 86.2719 87.742C87.2259 87.742 87.9411 83.8539 87.3193 82.0463C86.8823 80.7747 86.5769 80.4133 86.0921 80.5934ZM79.1878 86.5935C77.3116 89.2663 74.7533 90.0357 72.5555 88.5883C71.3534 87.7962 69.9464 87.3295 69.6512 87.6244C69.3667 87.909 69.766 88.6609 70.2019 88.6609C70.5562 88.6609 72.4637 90.4489 73.7194 91.9579C74.6777 93.1094 75.0728 94.7103 75.2859 98.3084C75.3261 98.9822 75.4823 99.6976 75.6333 99.8982C75.9438 100.31 76.8712 100.079 76.609 99.6544C76.5159 99.5037 76.5551 99.3803 76.6963 99.3803C76.9842 99.3803 76.9352 96.6557 76.6216 95.2457C76.5095 94.7403 76.3478 93.9587 76.2623 93.5088C76.1769 93.0589 75.8486 92.4133 75.5325 92.0739C74.689 91.1686 74.6958 90.7533 75.557 90.5928C76.821 90.3576 76.9 90.3309 77.854 89.8167C78.7973 89.3086 79.8448 88.24 79.8448 87.7861C79.8448 87.6456 80.1198 87.2817 80.4561 86.9773C80.9229 86.5552 80.9866 86.3261 80.725 86.011C80.216 85.3978 79.9587 85.4952 79.1878 86.5935ZM83.8493 89.8624C82.4729 91.2703 78.8932 91.9533 77.9312 90.9913C77.6375 90.6975 77.3453 90.655 76.9907 90.8534C76.2633 91.2605 76.3487 91.5655 77.3181 92.0209C80.0191 93.2904 83.7072 92.5431 85.1904 90.4256C86.2948 88.8489 85.2633 88.4158 83.8493 89.8624ZM85.2085 91.4109C85.1065 91.5759 85.1714 91.9879 85.3525 92.3266C86.0354 93.6025 85.5466 101.966 84.7304 102.979C84.6964 103.021 84.6499 103.159 84.6266 103.285C84.4949 104.009 83.6046 105.801 82.9262 106.707C82.4949 107.283 82.1792 107.802 82.2245 107.86C82.2701 107.918 81.7816 108.687 81.1388 109.568C80.4962 110.45 79.9413 111.579 79.9057 112.078C79.8515 112.838 79.1943 114.929 78.4099 116.838C78.3058 117.09 78.186 117.463 78.1431 117.667C78.1003 117.87 77.8455 118.477 77.5769 119.015C77.3083 119.554 77.0884 120.105 77.0884 120.24C77.0884 120.375 76.6786 121.181 76.1775 122.031C75.6764 122.88 75.3665 123.578 75.4884 123.58C75.6103 123.583 75.5665 123.686 75.391 123.81C75.2155 123.934 74.429 125.069 73.6434 126.332C72.8575 127.596 71.7954 129.194 71.2827 129.884C70.77 130.575 70.3504 131.298 70.3504 131.492C70.3504 131.686 70.2447 131.845 70.1158 131.845C69.9088 131.845 68.2886 134.059 67.439 135.503C67.2693 135.792 66.9248 136.236 66.6733 136.491C66.4216 136.746 65.8825 137.393 65.4755 137.929C65.0685 138.465 63.9542 139.724 62.9999 140.727C62.0453 141.73 61.2643 142.755 61.2643 143.004C61.2643 143.253 61.3675 143.393 61.4934 143.315C61.6195 143.237 61.777 143.337 61.8434 143.536C62.0244 144.079 64.5898 142.203 66.0767 140.439C66.7735 139.613 67.3251 138.849 67.3024 138.743C67.2794 138.637 67.5413 138.316 67.8837 138.03C68.7529 137.306 75.3003 127.329 76.5325 124.851C77.0908 123.729 77.6602 122.727 77.7977 122.626C77.9355 122.525 78.0801 122.25 78.1196 122.014C78.1588 121.778 78.4166 121.103 78.692 120.513C79.1897 119.448 80.4625 115.573 80.6034 114.694C80.8092 113.41 81.9516 111.059 82.7608 110.255C83.1011 109.917 83.6493 109.124 83.9788 108.492C84.3084 107.86 84.6845 107.343 84.8146 107.343C84.9448 107.343 85.0514 107.076 85.0514 106.749C85.0514 106.422 85.1892 106.069 85.3577 105.965C85.5261 105.861 85.6639 105.508 85.6639 105.181C85.6639 104.854 85.7723 104.587 85.9047 104.587C86.037 104.587 86.165 104.346 86.1892 104.051C86.2131 103.756 86.4541 102.757 86.7245 101.83C87.187 100.245 87.4137 95.1642 87.0673 94.1483C86.9858 93.9097 86.7693 93.1284 86.5861 92.4127C86.2703 91.1799 85.6364 90.7187 85.2085 91.4109ZM72.0946 105.842C71.4104 106.245 70.1302 106.401 66.2598 106.554C63.4415 106.665 62.2593 107.013 62.8177 107.568C63.1732 107.921 70.5415 107.807 71.3403 107.436C71.7222 107.259 72.4248 106.957 72.9013 106.765C73.776 106.412 73.8823 105.719 73.0814 105.588C72.8428 105.548 72.3987 105.663 72.0946 105.842Z" fill="#59D8C9"/>
</svg>
