<svg width="1440" height="30" viewBox="0 0 1440 30" fill="none" xmlns="http://www.w3.org/2000/svg">
<path d="M1420.34 2.9974C1425.63 6.8557 1440 2.1419 1440 2.1419V30H0V2.1419L7.59117 0.3151C9.03715 -0.4513 8.87918 2.8557 10.3251 2.0467C16.7219 -0.787701 23.4987 1.7224 30.4081 1.1151C33.5812 1.1151 38.3583 0.233101 41.5314 0.233101C50.8499 -0.9165 61.2529 2.5888 71.8567 2.0353C74.4273 2.163 77.1586 2.3761 79.8899 2.3761C87.6017 2.3761 95.3539 1.3046 103.066 1.3046C105.917 1.3046 105.757 0.495399 107.082 0.0695992L111.5 1.3046H112.344H125.76C134.65 1.4749 143.526 1.6594 152.39 1.8581C154.132 1.672 155.863 1.3733 157.571 0.9638C165.162 1.7728 177.453 0.836201 185.486 1.3046C200.126 2.1463 214.801 2.0325 229.428 0.9638C229.428 0.9638 232.231 1.645 232.753 1.645H258.869C267.668 1.2969 276.479 1.4817 285.258 2.1985C293.533 1.9714 301.686 1.8581 309.72 1.8581L369.486 0.226H413.428C420.13 -0.0228996 426.84 0.218899 433.511 0.949699C435.158 0.6091 436.805 0.608999 438.492 0.608999C447.127 1.1625 455.562 0.4813 462.591 1.4606L478.216 0.949699H489.462C495.014 1.2753 500.579 1.2753 506.131 0.949699C517.659 1.1626 527.74 0.9496 537.942 1.6734C542.719 1.5482 547.498 1.7903 552.242 2.3974L553.527 1.5033C559.351 3.3767 568.388 0.524 576.703 1.5033L590.761 1.1199C599.276 1.4606 607.791 1.7587 616.306 2.0142L631.248 1.5033C638.197 1.7587 645.105 1.9715 652.014 2.227C657.334 1.4204 662.722 1.2348 668.08 1.6734C674.266 1.9289 680.491 2.142 686.677 2.3974C697.614 1.2079 708.636 1.2079 719.573 2.3974H737.125C741.463 2.6529 745.801 2.8657 750.139 3.1212C756.346 3.5073 762.573 3.265 768.736 2.3974C772.873 1.7588 778.055 2.951 783.035 2.3974C784.843 2.2697 786.65 2.0568 788.458 2.0568H801.431C808.97 3.7093 816.68 4.3105 824.366 3.845C838.685 2.3463 853.083 1.8628 867.464 2.3974C872.163 2.2271 876.823 1.8439 881.522 1.8439H889.314C890.585 2.4164 891.95 2.72 893.331 2.7379L910 1.8439L923.857 2.3549C929.526 1.536 935.247 1.1801 940.968 1.2904C948.72 1.7587 955.588 1.0349 964.786 1.2904C971.132 1.2904 981.575 1.631 987.922 1.2904C992.98 1.6309 998.039 1.6309 1003.1 1.6309C1013.19 2.3547 1025.92 1.4607 1036.44 2.3549L1044.88 1.8439C1047.25 2.1844 1049.65 2.1844 1052.02 2.1844H1052.03C1057.33 1.2229 1062.72 0.922899 1068.09 1.2904C1072.75 1.9761 1077.45 2.2749 1082.15 2.1844C1085.04 2.0566 1087.93 1.8439 1090.83 1.8439C1099.01 3.0756 1107.31 3.0756 1115.49 1.8439C1125.49 0.4389 1135.21 2.6529 1144.49 1.5033C1147.62 1.8439 1150.71 1.8439 1153.81 1.8439C1161.16 2.3975 1168.79 1.5885 1176.34 2.3974C1179.51 2.2271 1182.69 1.8439 1185.86 1.8439C1192.61 2.3975 1199.4 1.5885 1205.54 2.3974C1210.24 3.0361 1215.5 3.8023 1219.84 4.5687C1221.62 4.5534 1223.38 4.1779 1225.02 3.4619C1228.15 2.951 1230.81 3.1638 1234.14 2.5677C1252.53 2.3406 1270.93 2.227 1289.33 2.227L1328.09 3.1212C1333.32 2.437 1338.61 2.3228 1343.87 2.7805C1358.82 4.7702 1373.91 4.177 1388.94 3.1219C1393.08 2.909 1399.22 4.7398 1402.76 4.3992L1404.08 2.611C1404.44 2.5904 1404.8 3.6541 1405.17 3.6747L1406.01 4.3992C1407.29 6.2726 1418.02 1.8904 1420.34 2.9974Z" fill="#172327"/>
</svg>
