<svg width="168" height="369" viewBox="0 0 168 369" fill="none" xmlns="http://www.w3.org/2000/svg">
<path d="M101.5 12.6035L79 11.1035L61 50.1035L91.5 65.6035L105.5 50.1035L101.5 12.6035Z" fill="#F7D0CB"/>
<path d="M16.5 340.603L54 259.503L73.61 266.603L25.55 344.603C26.55 348.273 28.75 356.203 29.55 358.603C26.05 357.603 22.55 352.103 22.05 350.603C21.55 349.103 17.5 341.603 16.5 340.603Z" fill="#F7D0CB"/>
<path d="M8.5 358.104C8.9 350.504 14 343.274 16.5 340.604C18.17 342.934 21.7 348.404 22.5 351.604C24.1 355.204 27.83 357.774 29.5 358.604C34 360.604 40.5 367.604 32 368.104L19 362.604L16 353.104C15.6 351.904 14.83 352.604 14.5 353.104L12 359.604L8.5 358.104Z" fill="black"/>
<path d="M81.9999 349.603L75.4199 264.793L95.1799 261.223L91.9999 352.103C93.9999 354.273 98.4999 359.103 98.9999 359.603C96.9999 359.103 91.7999 356.903 90.9999 356.103C88.3299 354.103 82.7999 350.003 81.9999 349.603Z" fill="#F7D0CB"/>
<path d="M80.4999 368.104C77.6999 358.904 80.3299 351.934 81.9999 349.604C83.8299 350.934 88.1999 354.104 90.9999 356.104C93.4359 357.739 96.1454 358.924 98.9999 359.604C111.8 364.004 110.33 367.104 108 368.104H92.4999L86.9999 361.104C85.7999 360.304 85.1699 360.774 84.9999 361.104V368.104H80.4999Z" fill="black"/>
<path d="M116 90.6034L109 91.1034L107.38 88.3034L107.5 84.1034C102.25 69.8934 96.0699 62.7034 90.6899 59.4234L90.4999 59.1034L87.9999 49.6034C94.7999 50.8034 98.4999 46.7734 99.4999 44.6034C102.7 35.8034 100.17 20.9334 98.4999 14.6034C96.7314 18.7437 93.5387 22.1139 89.4999 24.1034C71.0999 30.5034 75.4999 43.7734 79.9999 49.6034C79.6699 51.4334 79.0999 55.5034 79.4999 57.1034C79.6796 57.2545 79.8377 57.4295 79.9699 57.6234C81.3499 59.5534 80.6099 63.6234 79.9699 65.6234C78.4699 69.6234 76.1699 78.5234 78.9699 82.1234C82.4699 86.6234 87.4699 98.1234 87.9699 111.123C88.4699 124.123 82.9699 134.623 70.9699 135.123C67.6221 135.315 64.3005 134.432 61.4899 132.603C58.545 130.671 56.268 127.878 54.9699 124.603C53.7699 121.403 55.1399 117.603 55.9699 116.103C59.9699 102.503 53.2999 97.7734 49.4699 97.1034C38.2999 78.7034 41.8299 57.1034 44.9999 48.6034C44.9999 15.8034 67.6699 2.60344 78.9999 0.103435C106.6 -1.89656 111.5 25.6034 110.5 39.6034C107.7 45.6034 109 50.1034 110 51.6034C115.2 57.2034 114.83 62.9334 114 65.1034C106.5 73.6034 111 83.1034 114.5 85.6034C117.3 87.6034 116.67 89.7734 116 90.6034Z" fill="black"/>
<path d="M112 106.103C111.2 110.103 107.33 111.773 105.5 112.103V98.1034C108 99.1034 112.8 102.103 112 106.103Z" fill="#B73152"/>
<path d="M123.5 267.103C118 263.933 104.1 259.203 92.5 265.603C86.5 268.103 70.9 271.003 56.5 262.603C52.83 261.103 43.3 258.303 34.5 259.103C29.5 259.603 18.4 257.803 14 246.603C13.67 244.773 10.4 240.203 0 236.603C31.5 197.103 19 176.603 61.5 132.603C64.3203 134.426 67.6481 135.301 71 135.103C83 134.603 88.5 124.103 88 111.103C87.5 98.1034 82.5 86.6034 79 82.1034C76.2 78.5034 78.5 69.6034 80 65.6034C80.61 63.6034 81.35 59.6034 80 57.6034C82.34 56.6934 86.24 56.7134 90.69 59.4234C96.07 62.7034 102.25 69.8934 107.5 84.1034L107.38 88.3034L106 136.603C114 151.433 128.7 198.303 123.5 267.103Z" fill="#B73152"/>
<path d="M135.5 106L107 83.6034L101 88.1034L135.5 106Z" fill="#F7D0CB"/>
<path d="M131.5 120.103L94 96.1034L103.66 84.6034L135 105.603L157 76.6034L157.5 66.1034L160 72.1034L162 66.6034C166.8 65.0034 167.67 67.9334 167.5 69.6034C166.3 71.2034 166.33 74.2734 166.5 75.6034C168.5 79.1034 167 84.1034 166 84.6034C165.201 85.1227 164.519 85.8041 164 86.6034L141.5 119.103C138.7 122.703 133.67 121.273 131.5 120.103Z" fill="#F7D0CB"/>
</svg>
