<svg width="80" height="80" viewBox="0 0 80 80" fill="none" xmlns="http://www.w3.org/2000/svg">
<path d="M60 0H20C8.9543 0 0 8.9543 0 20V60C0 71.0457 8.9543 80 20 80H60C71.0457 80 80 71.0457 80 60V20C80 8.9543 71.0457 0 60 0Z" fill="#00AA45"/>
<mask id="mask0_170_5600" style="mask-type:alpha" maskUnits="userSpaceOnUse" x="0" y="0" width="80" height="80">
<path d="M60 0H20C8.9543 0 0 8.9543 0 20V60C0 71.0457 8.9543 80 20 80H60C71.0457 80 80 71.0457 80 60V20C80 8.9543 71.0457 0 60 0Z" fill="#172327"/>
</mask>
<g mask="url(#mask0_170_5600)">
<g opacity="0.6">
<path opacity="0.2" fill-rule="evenodd" clip-rule="evenodd" d="M80.1795 -45.1182C79.9663 -44.9043 79.7885 -44.7272 79.5636 -44.5023C78.4045 -44.6317 77.2074 -44.8171 76.0033 -44.885C74.8124 -44.9514 73.6139 -44.8995 72.4189 -44.8995C71.4757 -44.8995 70.444 -45.1396 69.6122 -44.8351C68.6877 -44.4961 67.6781 -44.8476 66.9501 -44.4559C66.1045 -44.0006 65.0859 -44.5189 64.3967 -43.7667C62.9678 -43.9072 61.7817 -43.0256 60.4621 -42.818C58.9778 -42.5848 57.6464 -42.0063 56.2839 -41.4873C54.7096 -40.8874 53.0842 -40.432 51.575 -39.639C50.4996 -39.0744 49.3398 -38.6447 48.2244 -38.1672C46.2398 -37.3174 44.5326 -36.0871 42.7978 -34.8823C41.8477 -34.2236 41.0229 -33.3863 40.1392 -32.6327C39.304 -31.9186 38.3705 -31.293 37.6446 -30.482C35.0781 -27.6117 32.3544 -24.8507 30.6895 -21.2946C29.545 -20.2677 29.0841 -18.7951 28.5091 -17.479C27.934 -16.1628 27.0794 -14.9124 26.9293 -13.4177C25.6699 -11.3438 25.1709 -8.9717 24.4817 -6.702C23.9385 -4.9146 23.1338 -3.14659 23.1552 -1.20627C22.4708 -0.640915 22.8611 0.250359 22.4888 0.97694C22.111 1.71459 21.8723 2.65846 22.0044 3.60994C22.1297 4.51297 21.482 5.32329 21.6176 6.28584C21.7332 7.11137 21.6052 7.93552 21.3235 8.78528C21.0502 9.60735 21.3567 10.581 20.9249 11.4577C20.8205 11.6694 21.2059 12.0839 21.246 12.4196C21.2737 12.6521 20.945 13.0181 21.0322 13.1378C21.5422 13.836 21.1118 14.5993 21.2695 15.1792C21.0197 15.647 20.8253 16.0096 20.5437 16.5362C20.7699 16.6566 21.0827 16.824 21.3644 16.9742C21.3644 19.4632 21.3616 21.7724 21.3754 24.0809C21.3761 24.1701 21.5422 24.2587 21.6335 24.35C21.5117 24.4836 21.39 24.6178 21.2682 24.7521C21.5789 25.9561 22.0508 27.1152 22.046 28.4016C22.0432 29.104 22.2286 29.8188 22.4099 30.5073C22.7857 31.9314 23.0881 33.3825 23.3538 34.8191C23.6541 36.4397 24.5087 37.7579 25.1786 39.1689C25.8387 40.5618 26.7487 41.7866 28.1721 42.6392C30.1359 43.8148 32.0576 45.0715 34.1314 46.0354C35.1224 46.4956 36.2102 46.8367 37.1997 47.2741C38.2363 47.7315 39.3407 47.9301 40.3773 48.2352C41.2997 48.5058 42.382 48.6047 43.4019 48.6961C44.2413 48.7715 45.0606 48.712 45.9035 49.0414C46.657 49.3355 47.6203 48.8248 48.3752 49.458C48.4119 49.4891 48.4977 49.4621 48.5607 49.4621C51.6594 49.4407 54.7553 50.2724 57.8298 49.7832C59.9085 49.4531 62.0973 49.4289 64.0355 48.402C67.0373 48.0249 69.6343 46.38 72.5351 45.6873C73.3295 44.9345 74.4533 44.85 75.3563 44.2895C76.24 43.7408 77.2641 43.4246 78.1817 42.9242C81.425 41.1562 84.6843 39.4166 87.7816 37.3932C88.385 36.9988 88.8133 36.4272 89.4963 36.0819C90.3433 35.6536 91.0595 34.927 91.7529 34.2482C92.4006 33.6129 93.0863 33.0268 93.5368 32.1681C93.9797 31.3225 94.8253 30.7412 95.419 29.9413C96.8037 28.0757 98.27 26.2502 99.1869 24.1251C99.757 22.8048 100.303 21.4396 100.789 20.0674C101.257 18.7429 101.42 17.3458 101.977 16.0359C102.409 15.0228 102.303 13.7779 102.416 12.6341C102.553 11.2404 102.721 9.84748 102.782 8.45036C102.845 7.0062 102.882 5.55095 102.772 4.11301C102.663 2.6896 102.46 1.27242 102.135 -0.135078C101.949 -0.934319 101.74 -1.77162 101.693 -2.59162C101.62 -3.87594 101.093 -4.98449 100.614 -6.11866C99.665 -8.37244 98.2866 -10.3363 96.8182 -12.3036C95.1969 -14.4758 92.8684 -15.803 91.1391 -17.8077C90.4167 -18.6443 89.3815 -19.2532 88.4002 -19.8096C87.6536 -20.2337 86.7498 -20.3202 85.943 -20.7064C84.9535 -21.1797 83.8352 -21.3818 82.7744 -21.7077C82.6651 -21.7409 82.573 -21.8585 82.4665 -21.8689C81.1358 -22.0045 79.8044 -22.1395 78.4716 -22.246C77.9713 -22.2862 77.4565 -22.3104 76.9652 -22.235C76.5528 -22.1713 76.1881 -22.8501 75.7785 -22.2827C75.1155 -22.7927 74.5059 -22.035 73.8049 -22.2156C73.189 -22.3741 72.5365 -22.1658 71.8743 -21.9333C71.1172 -21.6675 70.2004 -21.9609 69.4025 -21.5098C68.9084 -21.2302 68.3472 -21.0697 67.7833 -20.842C67.6269 -20.9984 67.4048 -21.2212 67.1743 -21.4509C67.0968 -21.3928 66.946 -21.3292 66.9501 -21.2759C66.9923 -20.6683 66.7993 -20.2753 66.2069 -19.968C65.1634 -19.4262 64.1836 -18.7619 63.1172 -18.1128C62.9359 -18.2166 62.6841 -18.3599 62.2239 -18.6228C62.1505 -18.3315 62.0668 -18 62.0045 -17.7516C61.9153 -17.7952 62.1561 -17.6783 62.4557 -17.5336C61.5402 -16.6347 60.633 -15.7725 59.759 -14.8785C57.6907 -12.7624 55.9621 -10.3917 54.5546 -7.7898C53.8329 -6.45496 53.0579 -5.14158 52.4372 -3.76038C51.6753 -2.0664 50.892 -0.38073 50.301 1.3942C49.8768 2.66745 49.4118 3.92133 49.0139 5.20634C48.7669 6.0042 48.9108 6.81867 48.5233 7.64213C48.0604 8.62613 48.3358 9.93051 48.0292 11.0224C47.6715 12.2978 47.7296 13.5606 47.6722 14.8387C47.6549 15.2318 47.4376 15.6158 47.3068 16.0199C47.4231 16.1507 47.5455 16.2877 47.6694 16.4268C47.596 16.5099 47.5172 16.5984 47.4542 16.6704C47.5338 17.1825 47.677 17.6793 47.677 18.1769C47.6763 19.6335 48.0576 21.0091 48.4389 22.3938C49.0395 24.5708 50.546 25.9977 52.5209 26.7741C54.837 27.684 57.2859 28.1124 59.7929 28.4203C61.8371 28.6708 63.8535 28.5421 65.8526 28.7282C66.791 28.0618 67.9044 27.8238 68.8655 27.2446C69.188 27.0502 69.6046 26.9408 69.9381 26.6606C71.3304 25.4856 72.8534 24.4836 74.2042 23.2366C74.8083 22.6789 75.5141 22.162 76.13 21.5786C78.0675 19.7456 79.2771 17.4593 80.1435 14.9744C80.432 14.1481 80.4902 13.1932 80.9469 12.4867C81.4762 11.6674 80.9268 10.6363 81.6596 9.94089C81.7849 8.4213 82.0527 6.89478 81.9883 5.3821C81.9433 4.3116 81.5572 3.24872 81.6527 2.13947C81.6741 1.8952 80.3718 -1.08932 80.0826 -1.35089C79.4543 -1.9197 78.7727 -2.429 78.1139 -2.96321C77.4607 -2.60892 76.9382 -3.49119 76.1473 -3.06078C75.4947 -2.70579 74.5052 -2.64144 73.7765 -2.84488C72.9531 -3.07462 73.5143 -2.41585 73.2375 -2.28438C71.001 -1.22218 69.5734 0.874527 67.5598 2.23219C67.4615 2.29793 67.3958 2.41281 67.4968 2.29794C67.2643 3.10618 67.2546 3.79815 66.91 4.21265C65.9018 5.42708 65.6769 6.99235 64.9039 8.30227C64.7337 8.59152 64.7254 8.98665 64.6783 9.33679C64.5759 10.1069 64.9192 10.9346 64.3151 11.6487C64.1905 11.7954 64.2486 12.1483 64.3061 12.3857C64.4694 13.0569 64.6763 13.717 64.9005 14.5024C67.3625 12.8271 68.2663 10.0447 70.0461 7.97843H71.4217C71.1512 8.57492 70.9055 9.11605 70.5007 10.0066C71.0771 9.76029 71.3567 9.70839 71.5435 9.54784C71.9705 9.17902 72.3524 8.75691 72.7745 8.3348C73.3344 8.70916 73.6347 9.33818 74.1578 9.7762C74.6464 10.1838 74.8048 10.9871 75.2629 11.9366C75.2809 13.344 74.0942 14.7467 73.7329 16.4068C73.052 16.8559 72.2839 17.1216 72.1663 18.1955C72.0964 18.8322 71.4619 19.4065 71.1747 19.8598C70.3664 20.2196 69.7125 19.8957 69.0358 20.3006C68.0877 20.868 67.074 19.8563 66.0339 20.021C64.5662 19.0494 62.819 18.6758 61.3208 17.7015C60.1943 16.9687 59.4919 15.968 58.7349 14.9834C58.2104 14.3011 57.9606 13.4146 57.4963 12.6777C57.0368 11.9497 57.0368 11.0861 56.8306 10.3208C56.515 9.14718 56.5469 7.78537 56.796 6.57855C57.1496 4.8735 57.4603 3.13524 58.2422 1.52568C59.2179 -0.483147 60.4538 -2.29752 61.9955 -3.89531C63.439 -5.39138 64.8915 -6.86323 66.7273 -7.93719C67.9168 -8.63263 69.2454 -8.85199 70.4619 -9.41249C71.0314 -9.67545 71.5574 -9.01253 72.2473 -9.36959C72.7434 -9.62562 73.4845 -9.46855 74.1073 -9.40627C74.7529 -9.34053 75.62 -9.38412 75.9805 -8.998C76.786 -8.13509 78.19 -8.6271 78.8073 -7.55314C80.0099 -7.55106 80.751 -6.66117 81.551 -6.00033C83.5944 -4.31119 85.7278 -2.66704 86.6973 -0.0395813C86.8384 0.343086 86.965 0.729904 87.0972 1.11049C87.2709 1.14924 87.4425 1.1873 87.5968 1.2219C87.8764 2.26818 88.1476 3.28609 88.4265 4.3296C88.3795 4.3905 88.3047 4.48529 88.1684 4.65967C88.3975 5.02297 88.6514 5.42639 88.9766 5.94261C88.4722 6.02219 88.1262 6.07755 87.7477 6.13775C87.7359 6.32666 87.7255 6.49689 87.711 6.73978H88.5538C88.6763 6.85257 88.722 6.89478 88.7677 6.9363C88.2445 7.41446 89.0908 7.85041 88.8244 8.2912C88.2002 9.32364 88.5836 10.4571 88.4397 11.5338C88.3303 12.349 88.1566 13.169 87.8923 13.9461C87.7248 14.4395 87.338 14.8574 87.0529 15.3044C87.83 16.451 86.3748 17.5769 86.8689 18.8142C86.7291 18.8432 86.5575 18.8792 86.3658 18.9194C85.9914 19.7352 85.6025 20.5822 85.051 21.7828V23.0463C84.6317 24.0566 84.1528 24.8081 83.1847 25.0835V25.916C82.1475 26.9339 81.1482 28.0874 79.9608 28.9932C79.4896 29.3531 79.028 29.7447 78.5512 30.1066C78.1243 30.4319 77.6226 30.6768 77.2524 31.054C76.0158 32.312 74.4492 33.0614 72.9178 33.8198C70.7726 34.8827 67.7078 35.3546 65.3468 35.0972C64.4867 35.0038 63.6528 34.664 62.7069 34.4101C62.5014 34.4897 62.1305 34.7879 61.8578 34.7153C58.8608 33.9195 55.7774 33.5486 52.8655 32.2871C50.6961 31.3467 48.5932 30.3136 46.7186 28.9531C45.3519 27.9622 44.1368 26.673 43.186 25.1783C42.0809 23.4408 40.9634 21.7302 40.4008 19.7227C40.3544 19.5587 40.1752 19.4252 40.1489 19.2633C40.0043 18.3748 39.7988 17.4842 39.7801 16.5908C39.7296 14.1384 39.6507 11.6777 39.8057 9.23438C39.8957 7.82827 40.2022 6.40762 40.4403 5.0029C40.67 3.65007 40.9876 2.32562 41.2436 0.983864C41.5322 -0.528812 42.1142 -1.93285 42.611 -3.36456C43.0103 -4.51326 43.3666 -5.72907 43.9624 -6.75736C44.99 -8.53229 45.6682 -10.4657 46.7795 -12.2192C47.8445 -13.9 48.8382 -15.6438 49.9613 -17.2984C50.5328 -18.1419 51.0982 -19.0145 51.8082 -19.7341C53.5492 -21.4994 55.1663 -23.4141 57.2451 -24.8112C59.0435 -26.0194 60.8012 -27.2304 62.9117 -27.9895C65.0126 -28.7445 67.083 -29.3029 69.2946 -29.4385C69.6883 -29.4627 70.0717 -29.6759 70.4792 -29.808C70.6086 -29.6945 70.747 -29.5748 70.8882 -29.4517C70.9692 -29.5195 71.0577 -29.5928 71.1539 -29.6724C71.5158 -29.5907 71.9186 -29.5728 72.2473 -29.4081C72.7033 -29.179 72.9434 -29.9381 73.5122 -29.5368C73.8942 -29.2669 74.5938 -29.4607 75.1494 -29.4191C75.6214 -29.3845 76.1673 -29.624 76.5209 -29.0891C77.0621 -29.889 77.5541 -28.9361 78.0772 -29.0448C78.7678 -29.1887 79.3678 -28.8669 79.9995 -28.678C80.5635 -28.5099 81.1503 -28.4178 81.7267 -28.2919C82.3038 -28.166 82.946 -28.1611 83.4463 -27.8933C85.5576 -26.764 88.0874 -26.4145 89.771 -24.5344C91.0491 -24.5718 91.8415 -23.6383 92.7473 -23.0217C95.9906 -20.8129 98.7101 -17.9966 101.363 -15.1463C103.961 -12.3555 106.131 -9.20283 107.479 -5.61766C108.194 -3.71609 109.003 -1.8249 109.27 0.262814C109.441 1.6018 109.832 2.94286 109.943 4.29915C110.055 5.67343 109.967 7.06432 109.967 8.44829C109.967 9.45443 109.977 10.4612 109.965 11.4674C109.953 12.4894 110.035 13.4811 109.39 14.4478C109.019 15.0034 109.111 15.8677 108.994 16.5936C109.717 16.9915 108.351 17.6987 109.174 18.0592C108.638 19.1007 108.103 20.1386 107.564 21.187C107.384 21.0237 107.262 20.8728 107.105 20.7863C107.013 20.7358 106.864 20.7877 106.675 20.796C106.547 21.2603 107.088 21.3046 107.263 21.7558V23.292C107.095 23.4601 106.873 23.683 106.604 23.9521C106.692 24.0677 106.787 24.1902 106.895 24.33C106.098 25.1313 105.998 26.2987 105.442 27.2439C104.811 28.3144 104.249 29.4327 103.368 30.2049C102.755 30.0416 102.268 29.9122 101.781 29.7828C101.751 29.8735 101.72 29.9641 101.69 30.0547C101.916 30.153 102.142 30.252 102.504 30.409C102.162 30.6436 101.864 30.8471 101.567 31.0505C101.612 31.1356 101.657 31.2207 101.702 31.3052C101.999 31.2387 102.297 31.173 102.708 31.0803C102.737 31.3065 102.777 31.6255 102.819 31.9598C102.547 32.0594 102.329 32.139 102.011 32.2552C102.09 32.6268 102.171 33.013 102.291 33.5846C101.855 33.833 101.268 34.17 100.593 34.5554C100.314 35.1844 99.984 35.9276 99.6546 36.6694C99.7107 36.7033 99.7674 36.7372 99.8242 36.7698C98.4513 38.1426 97.1739 39.6304 95.682 40.858C93.8911 42.3312 91.9639 43.6557 90.0125 44.9158C87.246 46.7032 84.413 48.3875 81.5828 50.0738C81.2472 50.2738 80.7545 50.2094 80.2494 50.28C79.6217 51.4218 78.2447 51.5761 77.1797 52.2017C76.1853 52.7857 75.0616 53.1518 73.9482 53.6341C73.825 53.3863 73.7011 53.1372 73.5752 52.884C72.9538 54.3987 71.3705 54.4209 70.1229 55.0312C69.9561 54.9378 69.7146 54.8028 69.3818 54.6153C69.2828 54.9364 69.2178 55.1509 69.152 55.364C69.1077 55.409 69.0475 55.5004 69.0205 55.4907C68.2448 55.236 67.5895 55.7294 66.9218 55.9142C63.7262 56.804 60.4669 56.5169 57.2257 56.6643C54.7345 56.7771 52.2988 56.328 49.8353 56.2C48.8984 56.1515 47.8784 56.0602 46.9899 55.8083C46.0723 55.5481 45.1603 55.6913 44.3057 55.4644C43.2227 55.1772 42.1398 54.9226 41.0485 54.6727C39.8604 54.4015 38.6819 54.0423 37.527 53.623C36.3769 53.205 35.1888 52.8916 34.0401 52.4722C32.8942 52.0543 31.7918 51.5173 30.6425 51.1104C27.2877 49.923 24.4658 47.7806 21.4239 46.032C20.0385 44.4418 18.3819 43.1277 17.0644 41.4413C16.0257 40.1134 15.1337 38.6997 14.2646 37.2894C13.327 35.7678 12.7118 34.0399 12.2108 32.3002C11.6842 30.4748 11.1977 28.6431 11.0635 26.7325C11.0268 26.2129 10.8088 25.7077 10.7043 25.1894C10.5985 24.6684 10.9334 24.0553 10.359 23.6262C10.294 23.5778 10.33 23.3923 10.3224 23.2712C10.1964 21.1219 10.02 18.974 9.9584 16.8226C9.89543 14.6228 9.93556 12.4202 9.95908 10.219C9.96185 10.0163 10.1722 9.81633 10.2864 9.61496C10.1791 9.49456 10.0567 9.35755 9.91064 9.19355C10.047 8.87524 10.3341 8.53685 10.2975 8.23792C10.0691 6.36956 10.777 4.58079 10.7099 2.72973C10.6933 2.26196 10.5044 1.71114 11.049 1.36583C10.4622 0.956181 11.1396 0.588043 11.1022 0.178391C11.0593 -0.281776 11.0123 -0.737099 11.3251 -1.23395C11.7264 -1.87265 11.2026 -2.81513 11.8316 -3.46905C11.8399 -5.46612 12.7727 -7.2369 13.1996 -9.1274C13.5269 -10.5757 14.0715 -11.8988 14.6576 -13.2468C15.1407 -14.356 15.4085 -15.5629 15.8409 -16.7164C16.8665 -19.4504 18.1279 -22.0703 19.4192 -24.668C20.2786 -26.3959 21.5685 -27.9016 22.4362 -29.6482C23.5745 -30.1886 23.8001 -31.4847 24.6236 -32.3275C25.4657 -33.1884 26.2214 -34.1765 27.0843 -35.0491C27.9686 -35.9432 28.8295 -36.8642 29.7588 -37.7105C31.2756 -39.0938 33.0056 -40.2286 34.5584 -41.551C36.1271 -42.8872 37.9408 -43.7771 39.6417 -44.8448C41.2464 -45.8524 43.0899 -46.5485 44.9112 -47.1166C46.1934 -47.5159 47.3905 -48.1338 48.7219 -48.4196C50.3757 -48.7739 51.9798 -49.3552 53.617 -49.796C54.3034 -49.9814 55.1933 -49.8416 55.6812 -50.2347C56.4112 -50.8222 57.272 -50.2229 57.9308 -50.7827C58.5059 -51.2706 59.4393 -50.5426 59.9756 -51.3121C59.9964 -51.3419 60.0974 -51.3252 60.1583 -51.3149C61.7125 -51.036 63.1754 -51.7771 64.7206 -51.7079C66.227 -51.6408 67.7819 -51.9197 69.2385 -51.6415C71.5899 -51.1924 74.0395 -51.1675 76.2296 -49.8499C77.8786 -48.8576 79.275 -47.7691 80.0134 -45.9679C80.1248 -45.6967 80.1303 -45.3832 80.1795 -45.1182Z" fill="#172327"/>
</g>
<path d="M52.0001 21C50.1301 21 48.3719 21.7288 47.0509 23.0508L40.1115 29.9902L39.1212 29L37.5607 30.5605C37.2677 30.8535 36.8841 31 36.5001 31C36.1161 31 35.7326 30.8535 35.4396 30.5605C34.8536 29.9745 34.8536 29.0255 35.4396 28.4395L37.0001 26.8789L35.1212 25L33.5607 26.5605C33.2687 26.8535 32.8841 27 32.5001 27C32.1161 27 31.7326 26.8535 31.4396 26.5605C30.8536 25.9745 30.8536 25.0255 31.4396 24.4395L33.0001 22.8789L32.1466 22.0254C30.8246 20.7034 28.5174 20.7044 27.1974 22.0254L22.0255 27.1953C21.3635 27.8563 21.0001 28.7359 21.0001 29.6719C21.0001 30.6069 21.3645 31.4845 22.0255 32.1465L29.9904 40.1113L24.9142 45.1855C24.4962 45.6055 24.1885 46.1283 24.0255 46.6973L21.0568 57.0879C20.9078 57.6119 21.0536 58.1755 21.4396 58.5605C21.7256 58.8455 22.1071 59 22.5001 59C22.6381 59 22.7763 58.9804 22.9123 58.9414L33.3029 55.9746C33.8759 55.8106 34.3986 55.5 34.8146 55.082L39.8888 50.0098L48.0255 58.1465C48.7085 58.8295 49.6031 59.1699 50.5001 59.1699C51.3971 59.1699 52.2918 58.8285 52.9748 58.1465L58.1466 52.9746C59.5106 51.6106 59.5106 49.3894 58.1466 48.0254L57.1212 47L55.5607 48.5605C55.2687 48.8535 54.8841 49 54.5001 49C54.1161 49 53.7326 48.8535 53.4396 48.5605C52.8536 47.9745 52.8536 47.0255 53.4396 46.4395L55.0001 44.8789L53.1212 43L51.5607 44.5605C51.2687 44.8535 50.8841 45 50.5001 45C50.1161 45 49.7326 44.8535 49.4396 44.5605C48.8536 43.9745 48.8536 43.0255 49.4396 42.4395L51.0001 40.8789L50.0099 39.8887L56.9494 32.9492C58.2714 31.6282 59.0001 29.87 59.0001 28C59.0001 26.13 58.2704 24.3718 56.9494 23.0508C55.6274 21.7288 53.8701 21 52.0001 21ZM52.0001 24C53.0681 24 54.0733 24.4159 54.8283 25.1719C55.5843 25.9279 56.0001 26.932 56.0001 28C56.0001 29.068 55.5843 30.0721 54.8283 30.8281L52.8888 32.7676L47.2326 27.1113L49.174 25.1719C49.928 24.4159 50.9321 24 52.0001 24ZM45.1115 29.2324L50.7677 34.8887L32.6915 52.9648C32.6315 53.0248 32.5577 53.0668 32.4767 53.0898L24.6837 55.3164L26.9103 47.5234C26.9333 47.4394 26.9773 47.3657 27.0373 47.3047L45.1115 29.2324Z" fill="white"/>
</g>
</svg>
