<svg width="80" height="80" viewBox="0 0 80 80" fill="none" xmlns="http://www.w3.org/2000/svg">
<path d="M60 0H20C8.9543 0 0 8.9543 0 20V60C0 71.0457 8.9543 80 20 80H60C71.0457 80 80 71.0457 80 60V20C80 8.9543 71.0457 0 60 0Z" fill="#00AA45"/>
<mask id="mask0_170_5611" style="mask-type:alpha" maskUnits="userSpaceOnUse" x="0" y="0" width="80" height="80">
<path d="M60 0H20C8.9543 0 0 8.9543 0 20V60C0 71.0457 8.9543 80 20 80H60C71.0457 80 80 71.0457 80 60V20C80 8.9543 71.0457 0 60 0Z" fill="#172327"/>
</mask>
<g mask="url(#mask0_170_5611)">
<g opacity="0.6">
<path opacity="0.2" fill-rule="evenodd" clip-rule="evenodd" d="M34.2688 13.6494C34.0557 13.8632 33.8778 14.0404 33.653 14.2653C32.4939 14.1359 31.2967 13.9504 30.0927 13.8826C28.9018 13.8162 27.7033 13.8681 26.5082 13.8681C25.5651 13.8681 24.5333 13.628 23.7015 13.9324C22.7771 14.2715 21.7674 13.92 21.0395 14.3116C20.1939 14.767 19.1753 14.2487 18.4861 15.0009C17.0571 14.8604 15.8711 15.742 14.5514 15.9496C13.0671 16.1828 11.7358 16.7613 10.3733 17.2803C8.79899 17.8802 7.17352 18.3355 5.66431 19.1285C4.58896 19.6932 3.4292 20.1229 2.31372 20.6004C0.329117 21.4501 -1.37801 22.6805 -3.11281 23.8852C-4.0629 24.544 -4.88775 25.3813 -5.77141 26.1349C-6.60663 26.849 -7.54012 27.4746 -8.26601 28.2856C-10.8326 31.1559 -13.5562 33.9169 -15.2211 37.473C-16.3657 38.4999 -16.8265 39.9725 -17.4016 41.2886C-17.9766 42.6048 -18.8312 43.8552 -18.9814 45.3499C-20.2408 47.4237 -20.7397 49.7959 -21.4289 52.0656C-21.9721 53.853 -22.7769 55.621 -22.7554 57.5613C-23.4398 58.1266 -23.0495 59.0179 -23.4218 59.7445C-23.7996 60.4822 -24.0384 61.426 -23.9062 62.3775C-23.781 63.2805 -24.4287 64.0908 -24.293 65.0534C-24.1775 65.8789 -24.3055 66.7031 -24.5871 67.5528C-24.8605 68.3749 -24.5539 69.3485 -24.9857 70.2253C-25.0902 70.437 -24.7048 70.8515 -24.6646 71.1871C-24.6369 71.4196 -24.9656 71.7857 -24.8784 71.9054C-24.3685 72.6036 -24.7989 73.3669 -24.6411 73.9468C-24.8909 74.4145 -25.0853 74.7771 -25.367 75.3037C-25.1407 75.4241 -24.8279 75.5916 -24.5463 75.7418C-24.5463 78.2308 -24.5491 80.54 -24.5352 82.8484C-24.5345 82.9377 -24.3685 83.0263 -24.2771 83.1176C-24.3989 83.2512 -24.5207 83.3854 -24.6425 83.5197C-24.3318 84.7237 -23.8598 85.8828 -23.8647 87.1692C-23.8675 87.8715 -23.682 88.5864 -23.5007 89.2749C-23.125 90.699 -22.8226 92.1501 -22.5568 93.5866C-22.2565 95.2073 -21.4019 96.5255 -20.7321 97.9364C-20.0719 99.3294 -19.162 100.554 -17.7386 101.407C-15.7747 102.582 -13.8531 103.839 -11.7792 104.803C-10.7883 105.263 -9.70049 105.604 -8.71095 106.042C-7.67436 106.499 -6.56995 106.698 -5.53336 107.003C-4.61095 107.273 -3.52869 107.372 -2.50871 107.464C-1.66933 107.539 -0.850021 107.48 -0.00718689 107.809C0.746384 108.103 1.70962 107.592 2.46458 108.226C2.50125 108.257 2.58706 108.23 2.65003 108.23C5.74873 108.208 8.84466 109.04 11.9191 108.551C13.9979 108.221 16.1866 108.196 18.1249 107.17C21.1267 106.792 23.7237 105.148 26.6245 104.455C27.4189 103.702 28.5427 103.618 29.4457 103.057C30.3294 102.508 31.3535 102.192 32.2711 101.692C35.5144 99.9238 38.7736 98.1842 41.8709 96.1608C42.4744 95.7664 42.9027 95.1948 43.5857 94.8495C44.4327 94.4212 45.1489 93.6946 45.8422 93.0157C46.4899 92.3805 47.1757 91.7944 47.6262 90.9356C48.069 90.09 48.9146 89.5088 49.5084 88.7088C50.893 86.8433 52.3593 85.0178 53.2762 82.8927C53.8464 81.5724 54.3924 80.2071 54.8782 78.8349C55.3466 77.5105 55.5092 76.1134 56.0663 74.8034C56.4981 73.7904 56.3922 72.5455 56.505 71.4016C56.6427 70.008 56.8102 68.615 56.8718 67.2179C56.9347 65.7738 56.9714 64.3185 56.8614 62.8806C56.752 61.4572 56.5493 60.04 56.2241 58.6325C56.0386 57.8332 55.8289 56.9959 55.7819 56.1759C55.7092 54.8916 55.1819 53.7831 54.7038 52.6489C53.7544 50.3951 52.3759 48.4313 50.9076 46.464C49.2862 44.2918 46.9577 42.9646 45.2284 40.9599C44.506 40.1233 43.4708 39.5144 42.4896 38.958C41.7429 38.5338 40.8392 38.4473 40.0323 38.0612C39.0428 37.5879 37.9246 37.3858 36.8638 37.0599C36.7544 37.0267 36.6624 36.9091 36.5558 36.8987C35.2251 36.763 33.8938 36.6281 32.561 36.5215C32.0607 36.4814 31.5459 36.4572 31.0546 36.5326C30.6421 36.5963 30.2775 35.9174 29.8678 36.4849C29.2049 35.9749 28.5952 36.7326 27.8943 36.552C27.2784 36.3935 26.6259 36.6018 25.9636 36.8343C25.2066 37.1 24.2897 36.8066 23.4919 37.2578C22.9978 37.5374 22.4366 37.6979 21.8726 37.9256C21.7162 37.7692 21.4941 37.5464 21.2637 37.3166C21.1862 37.3748 21.0353 37.4384 21.0395 37.4917C21.0817 38.0993 20.8886 38.4923 20.2963 38.7995C19.2528 39.3414 18.2729 40.0057 17.2066 40.6548C17.0253 40.551 16.7734 40.4077 16.3132 40.1448C16.2399 40.4361 16.1562 40.7676 16.0939 41.016C16.0046 40.9724 16.2454 41.0893 16.5451 41.2339C15.6296 42.1328 14.7224 42.995 13.8484 43.8891C11.7801 46.0052 10.0515 48.3759 8.64399 50.9778C7.92225 52.3126 7.14723 53.626 6.52652 55.0072C5.76465 56.7012 4.98132 58.3868 4.39036 60.1618C3.96618 61.435 3.50117 62.6889 3.10328 63.9739C2.85624 64.7718 3.00017 65.5862 2.61266 66.4097C2.14973 67.3937 2.42513 68.6981 2.11859 69.79C1.76083 71.0653 1.81896 72.3282 1.76152 73.6063C1.74422 73.9994 1.52694 74.3834 1.39615 74.7875C1.51241 74.9183 1.63489 75.0553 1.75875 75.1944C1.6854 75.2774 1.60652 75.366 1.54355 75.438C1.62312 75.9501 1.76637 76.4469 1.76637 76.9444C1.76567 78.4011 2.14696 79.7767 2.52824 81.1614C3.12888 83.3384 4.63533 84.7652 6.61025 85.5416C8.92632 86.4516 11.3752 86.8799 13.8823 87.1879C15.9264 87.4384 17.9429 87.3096 19.942 87.4958C20.8803 86.8294 21.9937 86.5914 22.9549 86.0122C23.2774 85.8177 23.6939 85.7084 24.0275 85.4281C25.4197 84.2532 26.9428 83.2512 28.2935 82.0042C28.8976 81.4465 29.6035 80.9296 30.2193 80.3462C32.1569 78.5132 33.3665 76.2268 34.2328 73.7419C34.5214 72.9157 34.5795 71.9608 35.0362 71.2543C35.5656 70.4349 35.0162 69.4039 35.749 68.7085C35.8742 67.1889 36.142 65.6623 36.0777 64.1497C36.0327 63.0792 35.6466 62.0163 35.742 60.907C35.7635 60.6628 34.4612 57.6782 34.1719 57.4167C33.5436 56.8479 32.862 56.3386 32.2032 55.8043C31.55 56.1586 31.0276 55.2764 30.2366 55.7068C29.5841 56.0618 28.5946 56.1261 27.8659 55.9227C27.0424 55.6929 27.6036 56.3517 27.3268 56.4832C25.0904 57.5454 23.6628 59.6421 21.6491 60.9998C21.5509 61.0655 21.4851 61.1804 21.5862 61.0655C21.3536 61.8737 21.344 62.5657 20.9993 62.9802C19.9911 64.1946 19.7662 65.7599 18.9933 67.0698C18.8231 67.3591 18.8148 67.7542 18.7677 68.1043C18.6653 68.8745 19.0085 69.7021 18.4044 70.4163C18.2799 70.563 18.338 70.9159 18.3954 71.1532C18.5587 71.8244 18.7656 72.4846 18.9898 73.27C21.4519 71.5947 22.3556 68.8122 24.1354 66.746H25.5111C25.2405 67.3425 24.9949 67.8836 24.59 68.7742C25.1665 68.5278 25.446 68.4759 25.6329 68.3154C26.0598 67.9466 26.4418 67.5245 26.8639 67.1024C27.4237 67.4767 27.724 68.1057 28.2472 68.5438C28.7357 68.9513 28.8942 69.7547 29.3523 70.7041C29.3703 72.1116 28.1835 73.5143 27.8223 75.1743C27.1414 75.6234 26.3733 75.8892 26.2557 76.9631C26.1858 77.5997 25.5512 78.1741 25.264 78.6273C24.4558 78.9872 23.8019 78.6633 23.1251 79.0681C22.1771 79.6356 21.1633 78.6239 20.1233 78.7886C18.6556 77.817 16.9083 77.4434 15.4102 76.469C14.2837 75.7362 13.5813 74.7356 12.8243 73.7509C12.2997 73.0686 12.0499 72.1822 11.5856 71.4452C11.1261 70.7173 11.1261 69.8537 10.9199 69.0883C10.6044 67.9147 10.6362 66.5529 10.8853 65.3461C11.2389 63.6411 11.5496 61.9028 12.3316 60.2932C13.3073 58.2844 14.5431 56.47 16.0849 54.8722C17.5284 53.3762 18.9808 51.9043 20.8167 50.8304C22.0062 50.1349 23.3348 49.9156 24.5513 49.3551C25.1208 49.0921 25.6467 49.755 26.3366 49.398C26.8328 49.1419 27.5739 49.299 28.1967 49.3613C28.8423 49.427 29.7093 49.3834 30.0699 49.7696C30.8753 50.6325 32.2794 50.1405 32.8966 51.2144C34.0993 51.2165 34.8404 52.1064 35.6403 52.7672C37.6838 54.4564 39.8171 56.1005 40.7866 58.728C40.9278 59.1106 41.0544 59.4975 41.1866 59.878C41.3603 59.9168 41.5319 59.9549 41.6862 59.9895C41.9657 61.0357 42.237 62.0536 42.5159 63.0972C42.4688 63.1581 42.3941 63.2529 42.2578 63.4272C42.4868 63.7905 42.7408 64.1939 43.066 64.7102C42.5615 64.7897 42.2156 64.8451 41.837 64.9053C41.8253 65.0942 41.8149 65.2644 41.8004 65.5073H42.6432C42.7657 65.6201 42.8113 65.6623 42.857 65.7039C42.3339 66.182 43.1802 66.618 42.9138 67.0588C42.2896 68.0912 42.673 69.2247 42.529 70.3014C42.4197 71.1166 42.246 71.9366 41.9817 72.7136C41.8142 73.207 41.4274 73.625 41.1423 74.072C41.9194 75.2186 40.4641 76.3445 40.9582 77.5818C40.8184 77.6108 40.6468 77.6468 40.4551 77.6869C40.0808 78.5028 39.6919 79.3498 39.1404 80.5504V81.8139C38.721 82.8242 38.2422 83.5757 37.2741 83.8511V84.6836C36.2368 85.7015 35.2376 86.855 34.0502 87.7608C33.5789 88.1207 33.1174 88.5123 32.6406 88.8742C32.2136 89.1995 31.7119 89.4444 31.3417 89.8216C30.1052 91.0796 28.5385 91.829 27.0071 92.5874C24.862 93.6503 21.7972 94.1222 19.4362 93.8648C18.576 93.7714 17.7422 93.4316 16.7962 93.1777C16.5907 93.2572 16.2198 93.5555 15.9472 93.4828C12.9502 92.6871 9.86672 92.3161 6.95486 91.0547C4.78549 90.1143 2.68255 89.0811 0.807968 87.7207C-0.558701 86.7298 -1.77382 85.4406 -2.7246 83.9459C-3.8297 82.2083 -4.94726 80.4978 -5.50984 78.4903C-5.5562 78.3263 -5.73542 78.1928 -5.76172 78.0308C-5.90634 77.1423 -6.11186 76.2518 -6.13055 75.3584C-6.18106 72.906 -6.25995 70.4453 -6.10494 68.0019C-6.01498 66.5958 -5.70844 65.1752 -5.4704 63.7705C-5.24066 62.4176 -4.92304 61.0932 -4.667 59.7514C-4.37844 58.2387 -3.79648 56.8347 -3.29964 55.403C-2.90037 54.2543 -2.544 53.0385 -1.9482 52.0102C-0.920605 50.2353 -0.242458 48.3019 0.868866 46.5484C1.93383 44.8676 2.92752 43.1238 4.0506 41.4692C4.62218 40.6257 5.18753 39.7531 5.89751 39.0334C7.63854 37.2682 9.2557 35.3535 11.3344 33.9564C13.1329 32.7482 14.8905 31.5372 17.0011 30.7781C19.1019 30.0231 21.1723 29.4647 23.3839 29.3291C23.7777 29.3048 24.161 29.0917 24.5686 28.9595C24.698 29.073 24.8364 29.1927 24.9776 29.3159C25.0585 29.2481 25.1471 29.1748 25.2433 29.0952C25.6052 29.1768 26.0079 29.1948 26.3366 29.3595C26.7926 29.5886 27.0328 28.8295 27.6016 29.2308C27.9835 29.5007 28.6831 29.3069 29.2388 29.3484C29.7107 29.383 30.2567 29.1436 30.6103 29.6785C31.1514 28.8786 31.6434 29.8314 32.1666 29.7228C32.8572 29.5789 33.4571 29.9006 34.0889 30.0896C34.6529 30.2577 35.2397 30.3497 35.8161 30.4757C36.3932 30.6016 37.0354 30.6065 37.5357 30.8743C39.6469 32.0036 42.1768 32.353 43.8604 34.2332C45.1385 34.1958 45.9308 35.1293 46.8366 35.7458C50.0799 37.9546 52.7994 40.771 55.4525 43.6213C58.0502 46.4121 60.2203 49.5647 61.5682 53.1499C62.2838 55.0515 63.0927 56.9427 63.3598 59.0304C63.5307 60.3694 63.921 61.7104 64.0324 63.0667C64.1445 64.441 64.0566 65.8319 64.0566 67.2158C64.0566 68.222 64.0663 69.2288 64.0545 70.235C64.0428 71.257 64.1244 72.2486 63.4795 73.2153C63.1086 73.771 63.1999 74.6353 63.083 75.3612C63.8061 75.7591 62.4408 76.4663 63.2629 76.8268C62.7273 77.8682 62.1924 78.9062 61.6534 79.9546C61.4734 79.7913 61.3517 79.6404 61.1946 79.5539C61.1025 79.5034 60.9538 79.5553 60.7642 79.5636C60.6361 80.0279 61.1773 80.0722 61.3523 80.5234V82.0596C61.1842 82.2277 60.9621 82.4505 60.6929 82.7197C60.7815 82.8353 60.8763 82.9578 60.9842 83.0976C60.187 83.8989 60.0874 85.0662 59.531 86.0115C58.9006 87.082 58.3388 88.2002 57.4572 88.9725C56.8448 88.8092 56.3576 88.6798 55.8705 88.5504C55.84 88.641 55.8096 88.7317 55.7791 88.8223C56.0054 88.9206 56.2317 89.0195 56.5929 89.1766C56.251 89.4112 55.9535 89.6146 55.6566 89.8181C55.7016 89.9032 55.7466 89.9883 55.7916 90.0727C56.0884 90.0063 56.386 89.9406 56.7977 89.8478C56.8261 90.0741 56.8662 90.3931 56.9084 90.7274C56.6365 90.827 56.4185 90.9066 56.1002 91.0228C56.1791 91.3944 56.26 91.7806 56.3804 92.3521C55.9445 92.6006 55.357 92.9375 54.6823 93.323C54.4035 93.952 54.0734 94.6952 53.744 95.437C53.8 95.4709 53.8568 95.5048 53.9135 95.5373C52.5406 96.9102 51.2632 98.398 49.7713 99.6256C47.9805 101.099 46.0533 102.423 44.1019 103.683C41.3353 105.471 38.5024 107.155 35.6722 108.841C35.3365 109.041 34.8439 108.977 34.3387 109.048C33.7111 110.189 32.334 110.344 31.2691 110.969C30.2747 111.553 29.1509 111.919 28.0375 112.402C27.9143 112.154 27.7905 111.905 27.6645 111.652C27.0431 113.166 25.4599 113.188 24.2122 113.799C24.0455 113.705 23.804 113.57 23.4711 113.383C23.3722 113.704 23.3071 113.918 23.2414 114.132C23.1971 114.177 23.1369 114.268 23.1099 114.258C22.3342 114.004 21.6789 114.497 21.0111 114.682C17.8155 115.572 14.5563 115.284 11.315 115.432C8.8239 115.545 6.38812 115.096 3.92466 114.968C2.98772 114.919 1.96773 114.828 1.07923 114.576C0.161655 114.316 -0.750378 114.459 -1.60498 114.232C-2.68793 113.945 -3.77088 113.69 -4.86214 113.44C-6.05027 113.169 -7.22872 112.81 -8.38364 112.391C-9.53372 111.973 -10.7219 111.659 -11.8705 111.24C-13.0165 110.822 -14.1188 110.285 -15.2682 109.878C-18.6229 108.691 -21.4448 106.548 -24.4868 104.8C-25.8721 103.209 -27.5287 101.895 -28.8463 100.209C-29.8849 98.881 -30.7769 97.4673 -31.646 96.057C-32.5837 94.5353 -33.1989 92.8075 -33.6998 91.0678C-34.2264 89.2424 -34.7129 87.4107 -34.8472 85.5001C-34.8838 84.9804 -35.1018 84.4753 -35.2063 83.957C-35.3122 83.4359 -34.9772 82.8228 -35.5516 82.3938C-35.6166 82.3454 -35.5807 82.1599 -35.5883 82.0388C-35.7142 79.8895 -35.8907 77.7416 -35.9523 75.5902C-36.0152 73.3904 -35.9751 71.1878 -35.9516 68.9866C-35.9488 68.7839 -35.7384 68.5839 -35.6243 68.3825C-35.7315 68.2621 -35.854 68.1251 -36 67.9611C-35.8637 67.6428 -35.5765 67.3044 -35.6132 67.0055C-35.8415 65.1371 -35.1336 63.3483 -35.2008 61.4973C-35.2174 61.0295 -35.4063 60.4787 -34.8617 60.1334C-35.4485 59.7237 -34.771 59.3556 -34.8084 58.9459C-34.8513 58.4858 -34.8984 58.0305 -34.5856 57.5336C-34.1842 56.8949 -34.7081 55.9524 -34.0791 55.2985C-34.0708 53.3014 -33.138 51.5307 -32.711 49.6402C-32.3837 48.1918 -31.8391 46.8688 -31.253 45.5208C-30.77 44.4115 -30.5022 43.2047 -30.0697 42.0512C-29.0442 39.3172 -27.7827 36.6973 -26.4915 34.0996C-25.632 32.3717 -24.3422 30.866 -23.4744 29.1194C-22.3361 28.579 -22.1105 27.2829 -21.2871 26.44C-20.4449 25.5792 -19.6893 24.5911 -18.8264 23.7185C-17.942 22.8244 -17.0812 21.9034 -16.1518 21.0571C-14.635 19.6738 -12.9051 18.539 -11.3523 17.2166C-9.78352 15.8804 -7.96984 14.9905 -6.26894 13.9228C-4.66423 12.9152 -2.82079 12.2191 -0.999489 11.651C0.282757 11.2517 1.47989 10.6338 2.81126 10.348C4.4651 9.99367 6.06912 9.41241 7.70635 8.97161C8.3928 8.78616 9.28269 8.92594 9.77054 8.5329C10.5006 7.9454 11.3614 8.54466 12.0202 7.98484C12.5952 7.497 13.5287 8.22496 14.065 7.45548C14.0857 7.42572 14.1868 7.44233 14.2477 7.45271C15.8019 7.73158 17.2647 6.99046 18.8099 7.05966C20.3164 7.12679 21.8712 6.84792 23.3279 7.12609C25.6792 7.57519 28.1289 7.6001 30.319 8.91764C31.968 9.90994 33.3644 10.9984 34.1027 12.7997C34.2141 13.0709 34.2197 13.3844 34.2688 13.6494Z" fill="#172327"/>
</g>
<path d="M40 39C37.243 39 35 36.757 35 34C35 31.243 37.243 29 40 29C42.757 29 45 31.243 45 34C45 36.757 42.757 39 40 39ZM40 51C34.869 51 31 48.399 31 44.949V44.052C31 42.369 32.369 41 34.052 41H45.948C47.631 41 49 42.369 49 44.051V44.948C49 48.399 45.131 51 40 51ZM24.5 45C23.5717 45 22.6815 45.3687 22.0251 46.0251C21.3687 46.6815 21 47.5717 21 48.5C21 49.4283 21.3687 50.3185 22.0251 50.9749C22.6815 51.6312 23.5717 52 24.5 52C25.4283 52 26.3185 51.6312 26.9749 50.9749C27.6313 50.3185 28 49.4283 28 48.5C28 47.5717 27.6313 46.6815 26.9749 46.0251C26.3185 45.3687 25.4283 45 24.5 45ZM55.5 45C54.5717 45 53.6815 45.3687 53.0251 46.0251C52.3688 46.6815 52 47.5717 52 48.5C52 49.4283 52.3688 50.3185 53.0251 50.9749C53.6815 51.6312 54.5717 52 55.5 52C56.4283 52 57.3185 51.6312 57.9749 50.9749C58.6312 50.3185 59 49.4283 59 48.5C59 47.5717 58.6312 46.6815 57.9749 46.0251C57.3185 45.3687 56.4283 45 55.5 45ZM55.5 28C55.0404 28 54.5852 28.0905 54.1606 28.2664C53.736 28.4423 53.3501 28.7001 53.0251 29.0251C52.7001 29.3501 52.4423 29.736 52.2664 30.1606C52.0905 30.5852 52 31.0404 52 31.5C52 31.9596 52.0905 32.4148 52.2664 32.8394C52.4423 33.264 52.7001 33.6499 53.0251 33.9749C53.3501 34.2999 53.736 34.5577 54.1606 34.7336C54.5852 34.9095 55.0404 35 55.5 35C55.9596 35 56.4148 34.9095 56.8394 34.7336C57.264 34.5577 57.6499 34.2999 57.9749 33.9749C58.2999 33.6499 58.5577 33.264 58.7336 32.8394C58.9095 32.4148 59 31.9596 59 31.5C59 31.0404 58.9095 30.5852 58.7336 30.1606C58.5577 29.736 58.2999 29.3501 57.9749 29.0251C57.6499 28.7001 57.264 28.4423 56.8394 28.2664C56.4148 28.0905 55.9596 28 55.5 28ZM40 19C39.5404 19 39.0852 19.0905 38.6606 19.2664C38.236 19.4423 37.8501 19.7001 37.5251 20.0251C37.2001 20.3501 36.9423 20.736 36.7664 21.1606C36.5905 21.5852 36.5 22.0404 36.5 22.5C36.5 22.9596 36.5905 23.4148 36.7664 23.8394C36.9423 24.264 37.2001 24.6499 37.5251 24.9749C37.8501 25.2999 38.236 25.5577 38.6606 25.7336C39.0852 25.9095 39.5404 26 40 26C40.4596 26 40.9148 25.9095 41.3394 25.7336C41.764 25.5577 42.1499 25.2999 42.4749 24.9749C42.7999 24.6499 43.0577 24.264 43.2336 23.8394C43.4095 23.4148 43.5 22.9596 43.5 22.5C43.5 22.0404 43.4095 21.5852 43.2336 21.1606C43.0577 20.736 42.7999 20.3501 42.4749 20.0251C42.1499 19.7001 41.764 19.4423 41.3394 19.2664C40.9148 19.0905 40.4596 19 40 19ZM40 54C39.0717 54 38.1815 54.3688 37.5251 55.0251C36.8687 55.6815 36.5 56.5717 36.5 57.5C36.5 58.4283 36.8687 59.3185 37.5251 59.9749C38.1815 60.6312 39.0717 61 40 61C40.9283 61 41.8185 60.6312 42.4749 59.9749C43.1313 59.3185 43.5 58.4283 43.5 57.5C43.5 56.5717 43.1313 55.6815 42.4749 55.0251C41.8185 54.3688 40.9283 54 40 54ZM24.5 28C24.0404 28 23.5852 28.0905 23.1606 28.2664C22.736 28.4423 22.3501 28.7001 22.0251 29.0251C21.7001 29.3501 21.4423 29.736 21.2664 30.1606C21.0905 30.5852 21 31.0404 21 31.5C21 31.9596 21.0905 32.4148 21.2664 32.8394C21.4423 33.264 21.7001 33.6499 22.0251 33.9749C22.3501 34.2999 22.736 34.5577 23.1606 34.7336C23.5852 34.9095 24.0404 35 24.5 35C24.9596 35 25.4148 34.9095 25.8394 34.7336C26.264 34.5577 26.6499 34.2999 26.9749 33.9749C27.2999 33.6499 27.5577 33.264 27.7336 32.8394C27.9095 32.4148 28 31.9596 28 31.5C28 31.0404 27.9095 30.5852 27.7336 30.1606C27.5577 29.736 27.2999 29.3501 26.9749 29.0251C26.6499 28.7001 26.264 28.4423 25.8394 28.2664C25.4148 28.0905 24.9596 28 24.5 28Z" fill="white"/>
</g>
</svg>
