<svg width="80" height="80" viewBox="0 0 80 80" fill="none" xmlns="http://www.w3.org/2000/svg">
<g clip-path="url(#clip0_170_5586)">
<path d="M59.9998 0H19.9998C8.95406 0 -0.000244141 8.9543 -0.000244141 20V60C-0.000244141 71.0457 8.95406 80 19.9998 80H59.9998C71.0454 80 79.9998 71.0457 79.9998 60V20C79.9998 8.9543 71.0454 0 59.9998 0Z" fill="#00AA45"/>
<mask id="mask0_170_5586" style="mask-type:alpha" maskUnits="userSpaceOnUse" x="-1" y="0" width="81" height="80">
<path d="M59.9998 0H19.9998C8.95406 0 -0.000244141 8.9543 -0.000244141 20V60C-0.000244141 71.0457 8.95406 80 19.9998 80H59.9998C71.0454 80 79.9998 71.0457 79.9998 60V20C79.9998 8.9543 71.0454 0 59.9998 0Z" fill="#172327"/>
</mask>
<g mask="url(#mask0_170_5586)">
<g opacity="0.2">
<path opacity="0.6" fill-rule="evenodd" clip-rule="evenodd" d="M109.607 38.7999C108.79 38.3507 107.782 38.0755 107.19 37.4215C104.951 34.9537 102.244 33.0791 99.6625 31.0271C97.9959 29.7014 96.1327 28.7202 94.3814 27.5539C92.6351 26.3899 90.694 25.5208 88.8339 24.5294C86.5197 23.2953 84.1461 22.1586 81.7866 21.0395C79.9396 20.164 78.1657 18.9226 76.0261 18.7023C73.7649 17.3052 71.0541 16.9205 68.7958 15.4908C68.3274 15.1935 67.6229 15.2707 66.9518 15.4325C68.6141 16.1646 70.2748 16.898 71.9375 17.6279C73.2935 18.2226 74.6154 18.9249 76.0168 19.3799C78.4255 20.1631 80.5743 21.5076 82.9462 22.3857C85.0879 23.1792 87.1034 24.3624 89.0818 25.5319C90.2306 26.2103 91.3948 26.9512 92.5537 27.5328C93.7068 28.1119 94.5022 29.3167 95.8872 29.4322C97.1786 31.1225 99.5102 31.4403 100.786 33.1504C102.549 33.7016 103.511 35.3192 104.936 36.2656C106.439 37.2646 107.445 38.7144 108.832 39.7809C109.052 39.9492 109.168 40.2107 109.036 40.5257C108.395 41.3483 108.054 39.5033 107.39 40.3537C107.151 41.1784 108.503 40.984 108.336 41.9125C107.341 41.7532 106.34 41.5245 105.328 41.458C104.769 41.4215 104.712 40.6926 104.15 40.7934C103.501 39.7597 102.411 39.2637 101.479 38.5685C101.264 38.4071 100.88 38.2665 100.85 38.1732C100.378 36.7303 99.1201 36.2267 97.9323 35.6336C97.5441 35.44 97.9052 34.981 97.6065 34.757C97.0718 35.2967 96.189 35.1569 95.9369 34.8389C94.778 33.3729 92.9661 33.056 91.5146 32.1307C89.5781 30.8963 87.5667 29.7407 85.3592 28.9935C84.513 28.7066 83.7032 28.2117 82.9996 27.7306C81.2519 26.5326 79.1611 26.1995 77.3714 25.1908C75.6223 24.2033 73.6074 23.8908 71.8796 22.8036C71.1112 22.3191 70.0791 22.0355 69.1283 21.8164C68.3155 21.6286 67.6132 21.3654 67.1472 20.6441C66.977 20.756 66.8087 20.866 66.5665 21.0241C66.0492 20.7105 65.5425 20.2534 64.8315 20.2603C63.871 20.2696 63.0975 19.6443 62.2264 19.3595C60.4112 18.7652 58.6141 18.1537 56.7653 17.6448C55.6861 17.3482 54.432 17.2559 53.5561 16.698C52.4721 16.0085 51.2521 16.3515 50.2854 15.8038C49.0549 15.1077 47.6244 15.2809 46.4346 14.7528C44.5218 13.9037 42.4241 14.0509 40.5288 13.3998C36.4124 11.9849 32.0749 11.8751 27.8724 10.9985C27.1974 10.8574 26.4705 10.5895 25.8401 10.7224C25.2846 10.8396 24.786 10.5337 24.2034 10.7719C23.8356 10.9222 23.1 10.8813 22.7632 10.2899C22.1759 10.7449 21.6105 9.48705 20.9941 10.2628C20.9499 10.318 20.6344 10.199 20.475 10.1089C20.3658 10.0468 20.3077 9.89528 20.2063 9.75523C19.9429 9.96916 19.6789 10.1822 19.3297 10.4654C18.3707 10.3119 17.3656 10.1241 16.3526 10.0004C15.8413 9.93705 15.3333 9.6227 14.779 10.0446C14.5801 10.1965 14.1118 10.0901 13.8056 9.98569C13.2441 9.79354 12.8478 9.27173 12.0692 9.67698C11.5583 9.9428 10.7959 9.25319 10.1331 9.80001C9.99123 9.91728 9.60903 9.71536 9.33684 9.71024C8.54185 9.69449 7.78308 9.19312 6.95009 9.59734C6.21965 9.95184 5.36034 9.07445 4.6342 9.78648C4.60492 9.81563 4.49994 9.7796 4.43575 9.75779C2.7335 9.17383 0.941565 9.78907 -0.780407 9.36192C-1.21018 9.25544 -1.65875 9.04059 -2.16182 9.31997C-3.43221 10.0256 -4.84617 9.58164 -6.19059 9.7025C-7.18453 9.79102 -8.11169 9.66414 -8.70769 10.7546C-9.00866 11.3039 -9.72222 11.5865 -10.2638 11.0692C-10.8147 10.5419 -11.2388 10.4963 -11.8532 10.8947C-12.0233 11.0059 -12.3791 10.8313 -12.6775 10.7835C-13.0227 10.3453 -12.6297 9.88913 -12.6756 9.35422C-12.1791 9.05839 -11.6535 8.74416 -11.0908 8.40896C-12.3718 7.33641 -12.3831 6.65246 -11.577 5.63792C-10.2882 4.01541 -8.44426 3.73304 -6.62672 3.3903C-5.36757 3.1535 -4.07279 3.11698 -2.80527 2.91921C-1.5986 2.73169 -0.376782 2.86268 0.838563 2.52966C1.54082 2.33677 2.41108 2.46839 3.16857 2.49736C5.14672 2.57331 7.13147 2.1612 9.09301 2.54749C9.70877 2.66913 10.1818 2.13576 10.843 2.35773C11.3678 2.53327 12.0202 2.84457 12.5844 2.2935C12.6473 2.23205 12.8493 2.28207 12.9746 2.32059C14.7485 2.86526 16.6134 2.23632 18.3936 2.75586C19.2973 3.01973 20.1981 2.44178 21.1592 2.75559C22.0662 3.05152 23.069 3.27281 24.0084 3.21247C27.4697 2.98827 30.756 4.03959 34.1251 4.4628C36.7939 4.79774 39.4441 5.28273 42.0981 5.72451C44.0915 6.05591 45.9363 7.03721 47.9968 7.08404C48.9437 7.85625 50.2326 7.59654 51.208 8.0803C52.2134 8.57884 53.3358 8.51858 54.2443 8.98317C55.2175 9.48042 56.4193 9.35211 57.1954 10.0001C58.0324 10.7 59.31 10.0117 59.9044 11.0881C60.9204 11.1454 61.8072 11.6588 62.7523 11.8947C63.4867 12.0776 64.0967 12.4322 64.7378 12.727C65.8967 13.2602 67.1651 13.384 68.3269 13.8322C69.4163 14.252 70.5094 14.6784 71.5846 15.1151C73.7336 15.9874 75.8486 16.9474 78.0069 17.8151C79.3581 18.3582 80.7402 18.9579 81.9817 19.7295C83.2042 20.4905 84.6538 20.6979 85.8164 21.53C87.1777 22.5047 88.8254 22.93 90.2045 23.8898C91.5635 24.8356 93.0697 25.5582 94.5003 26.3932C97.5452 28.1695 100.377 30.2355 103.224 32.29C104.911 33.5084 106.294 35.078 107.881 36.4086C108.651 37.0541 109.189 37.8155 109.607 38.7999Z" fill="#172327"/>
<path opacity="0.6" fill-rule="evenodd" clip-rule="evenodd" d="M25.0979 47.0611C25.6294 47.1231 25.9799 47.1723 26.2802 47.5641C26.6783 48.0847 27.0704 47.2061 27.5514 47.4246C27.7937 47.5349 28.2729 47.4432 28.3332 47.5806C28.6825 48.3678 29.4252 47.7446 29.7442 47.9902C30.2997 48.416 30.9028 48.3095 31.4687 48.4785C32.2212 48.7021 33.0508 48.5542 33.7078 49.2353C34.2427 49.7901 35.1154 48.9454 35.8302 49.5582C36.1865 49.8644 36.8928 49.8667 37.4303 49.8336C38.1253 49.7918 38.3592 50.5744 39.036 50.5551C39.5783 50.5396 40.126 50.7842 40.6694 50.7766C41.3393 50.7662 41.6054 51.5639 42.2738 51.4718C42.9429 51.3805 43.2135 52.1498 43.8772 52.1737C44.5208 52.1983 45.2557 52.1814 45.6866 52.8571C47.0234 52.995 48.3257 53.205 49.3152 54.2632C49.4268 54.3826 49.7118 54.3705 49.916 54.3678C50.7619 54.3586 51.4881 54.7371 52.037 55.2857C52.3886 55.6357 52.7501 55.6159 53.1239 55.7265C53.4962 55.8361 53.8422 55.9376 54.2106 56.1443C55.7132 56.9854 57.2079 57.8523 58.7218 58.6568C60.8168 59.7712 62.8181 61.0044 64.7636 62.341C65.0449 62.5344 65.199 62.859 65.6927 62.5612C65.2364 62.0968 65.0299 61.5084 64.3585 61.1964C63.7349 60.9074 63.2798 60.1039 62.6645 59.9893C61.9303 59.8533 62.0606 58.756 61.0549 58.9372C60.575 59.0234 59.9486 58.2379 59.3765 57.8679C58.5737 57.348 57.8185 56.6372 56.936 56.3898C55.7187 56.0481 54.7018 55.3531 53.6176 54.8135C52.5229 54.2683 51.3633 53.8827 50.2644 53.3538C49.1698 52.8272 48.1032 52.0965 46.9371 51.8576C45.6824 51.6006 44.5567 51.0136 43.3252 50.7026C42.4632 50.4854 41.4495 50.347 40.7181 49.8907C40.0985 49.5047 39.5039 49.3088 38.8668 49.2768C38.1435 49.241 37.8291 48.5 37.0596 48.503C36.1062 48.5065 35.1437 48.2739 34.2019 48.0701C33.3455 47.8853 32.2476 48.1479 31.6755 47.475C30.9273 46.5954 29.7889 48.0474 29.2565 46.8716C28.4715 47.2643 27.7593 47.2264 27.1335 46.5426C27.0882 46.4945 26.8576 46.5415 26.7737 46.6141C26.2509 47.0696 25.6941 46.7336 25.2092 46.6206C21.8137 45.8286 18.3147 45.986 14.8943 45.4462C14.8463 45.4385 14.7838 45.5215 14.6211 45.6393C16.0368 46.3412 17.7308 45.8287 18.9139 46.7779C19.5029 46.5915 20.0507 46.417 20.5118 46.2701C20.998 46.5286 20.6026 46.9998 20.9332 47.2119C21.1665 47.0947 21.4206 46.7085 21.6321 46.9293C22.332 47.6596 22.9513 46.899 23.6157 46.9038C23.8082 47.1815 24.0046 47.4629 24.2678 47.8411C24.5767 47.5498 24.8754 47.2693 25.0979 47.0611ZM2.56892 50.5522L2.7294 49.5497C2.60414 49.2705 2.46711 49.4154 2.28636 49.4972C1.75855 49.7342 0.978947 49.3725 0.706984 50.2596C0.6231 50.5337 0.214637 50.6352 -0.184695 50.5644C-0.901987 50.438 -1.26954 50.9037 -1.4162 51.5701L-4.06912 51.1454C-4.30193 50.779 -4.64876 50.5243 -4.4932 50.0185C-4.40197 49.7224 -4.1951 49.3333 -4.50702 49.0527C-5.27951 48.3584 -5.15931 47.2856 -4.72523 46.8175C-4.11459 46.1593 -3.64807 45.3203 -2.55407 44.9671C-0.686519 44.3647 1.19945 44.1037 3.11057 43.969C4.8732 43.8443 6.65243 43.8945 8.42153 43.8832C9.56393 43.8761 10.6993 44.1386 11.7878 44.0168C12.9571 43.8848 14.0628 44.2418 15.1632 44.1511C17.0007 44.0007 18.7214 44.1093 20.4078 44.9214C20.6762 45.0513 21.2333 44.819 21.675 44.7882C23.388 44.6709 26.7796 45.0162 28.4854 45.6938C28.9952 45.8961 29.4745 45.3661 29.882 45.7274C30.3036 46.101 30.6399 46.5655 31.1929 45.9357C32.3982 46.9485 34.1253 45.7145 35.3644 46.958C35.791 47.387 36.7396 47.1543 37.372 47.7001C37.6625 47.9512 38.3087 47.2202 38.9168 47.6105C39.1236 47.8797 39.3679 48.1988 39.6187 48.525C39.8805 48.2631 40.1725 48.1207 40.5419 48.2583C41.5911 48.6508 42.7151 48.8884 43.7211 49.3155C45.1407 49.9165 46.5871 50.4749 48.0042 51.0871C51.1333 52.4378 54.2699 53.7374 57.2679 55.3886C59.5714 56.6556 61.797 57.9962 63.9427 59.5187C65.9323 60.9307 67.6997 62.4434 68.6073 64.7628C68.4156 64.9705 68.2105 64.8299 68.0159 64.8203C67.8205 64.8113 67.6122 64.6858 67.3607 64.9931C67.7449 65.4038 68.1556 65.8409 68.6639 66.3837C67.8542 66.9354 67.7411 67.6565 67.6887 68.3541C66.1873 68.8497 65.4156 67.7517 64.5798 66.9873C63.9953 66.4538 63.4326 65.9962 62.7153 65.6199C60.1166 64.2557 57.5797 62.7752 55.0188 61.3386C55.1215 60.8267 55.6571 61.3962 55.7893 60.969C55.751 60.9198 55.7005 60.784 55.6097 60.7457C54.8886 60.4464 54.2122 61.1503 53.4631 60.8235C52.5137 60.4085 51.539 60.0502 50.5686 59.6841C48.3171 58.8369 46.2484 57.539 43.8108 57.1288C42.9412 56.9835 42.1042 56.505 41.2323 56.22C40.6586 56.0328 39.9004 56.3298 39.4999 55.642C37.5683 55.6358 35.9303 54.3331 34.0091 54.3677C33.119 54.3837 32.4101 53.5519 31.4851 53.9399C30.8127 53.2639 29.9091 53.2784 29.0608 53.1342C28.1085 52.9725 27.1528 52.8265 26.199 52.6738C25.3127 52.5319 24.4302 52.3522 23.5388 52.261C22.8841 52.1954 22.2751 51.9164 21.5438 52.137C21.0664 52.2797 20.5251 51.3087 19.8652 51.9675C18.6124 50.8479 17.1025 51.9067 15.7214 51.4541C13.1171 50.6012 10.3105 51.1893 7.6574 50.5447C6.93304 51.0293 6.3141 49.9859 5.77377 50.2962C4.98217 50.7494 4.31124 50.3766 3.60444 50.2904C3.23174 50.2454 3.02851 50.5204 2.56892 50.5522Z" fill="#172327"/>
<path opacity="0.6" fill-rule="evenodd" clip-rule="evenodd" d="M47.315 30.4659C44.5212 30.0187 41.721 29.6058 38.9375 29.1033C38.1108 28.9541 37.1172 29.218 36.4944 28.3285C36.4186 28.221 36.1336 28.2384 35.9349 28.3889C35.4884 28.7281 35.0679 28.6308 34.6756 28.2519C34.541 28.1219 34.3235 27.9294 34.1971 27.9646C33.135 28.2529 32.1391 28.2481 31.2599 27.4759C30.1095 28.1762 28.9882 27.4899 27.8943 27.3186C25.6856 26.9727 23.4171 27.3748 21.2468 26.7121C19.7485 27.4051 18.2321 26.1164 16.7337 26.7525C15.9212 25.7411 14.8278 26.3359 14.0832 26.6012C13.0605 26.9651 12.1577 26.0808 11.1239 26.7066C10.6419 26.9986 9.70648 26.5436 8.93332 26.5451C9.50141 26.8637 9.81751 27.3488 10.1429 27.8239C10.9288 27.5413 11.6804 27.1602 12.5721 27.4076C13.0677 27.5446 13.6198 27.7329 14.0845 27.2705C14.4528 28.0824 15.0383 27.3894 15.3587 27.3045C15.7787 27.1934 15.8779 27.2608 16.1077 27.5306C16.2114 27.6518 16.5306 27.7136 16.6866 27.6471C18.3952 26.9185 20.1007 28.3905 21.7997 27.6396C22.5449 28.0242 23.2887 28.2156 24.0261 27.6207C24.4648 28.5984 25.4685 27.4786 25.6562 27.8817C26.0596 28.7484 27.0671 27.3646 27.2276 28.4424C27.8967 28.5718 28.6141 28.9235 29.2261 28.79C31.4693 28.3008 33.519 29.3134 35.6709 29.4618C36.1645 29.4962 36.5251 30.486 37.1696 29.6886C37.5317 30.6648 38.1694 29.861 38.674 29.9279C40.0186 30.1039 41.2682 30.6277 42.5072 31.1321C42.7844 31.245 43.0612 31.4377 43.3842 31.5194C43.9467 31.6617 44.5104 31.2728 45.1258 31.742C45.5602 32.0746 46.315 32.0432 46.9311 32.0718C49.054 32.1709 50.9018 33.4403 53.0331 33.477C53.366 33.4826 53.4635 33.7573 53.6442 33.9501C53.7335 34.0451 55.6534 34.3409 55.9346 34.3667C56.209 34.3914 56.5737 34.3521 56.7378 34.5091C57.8779 35.6022 59.539 35.4966 60.7945 36.3206C61.0582 36.4935 61.4398 36.5123 61.7722 36.5494C62.6684 36.649 63.4501 36.9395 63.965 37.7348C64.1341 37.625 64.3015 37.5157 64.3813 37.4638C66.2748 37.9438 67.8161 39.1396 69.6927 39.5038C70.0119 39.5657 70.3572 39.5225 70.5979 39.8687C70.7317 40.0608 71.0173 40.1457 71.2455 40.2861C71.1569 40.6334 70.8094 40.7046 70.5831 40.903C70.0322 40.9955 69.8342 39.9025 69.0357 40.543C68.4524 41.011 68.2352 39.7788 67.4674 39.9389C66.9207 40.0537 66.092 39.9264 65.7315 39.5649C65.1836 39.015 64.6002 39.3008 64.0324 39.1106C64.6448 39.6563 65.6359 39.725 65.96 40.895C65.2721 40.8064 64.905 40.1017 64.2042 40.4871C63.9999 40.6828 64.5451 40.7693 64.4577 41.0129C63.7758 41.4098 63.4147 40.7544 62.9096 40.5229C62.4231 40.2996 61.7798 40.5519 61.3651 40.1157C60.8649 39.5895 60.2713 40.5304 59.749 39.8823C59.7199 39.7277 59.6723 39.4778 59.6128 39.1622C59.4431 39.2566 59.292 39.3408 59.0243 39.4902C58.8665 39.1596 58.695 38.8038 58.5194 38.4358C57.9913 38.8765 57.6343 39.0601 57.2134 38.4797C57.1403 38.3796 56.5502 38.5251 56.2425 38.2851C55.6436 39.1105 55.6877 37.3357 55.1263 38.0087C54.9028 38.1698 54.6793 38.3317 54.4504 38.4981C54.6128 39.0832 55.3712 38.5971 55.5688 39.1262C55.1166 39.4815 54.6233 39.2195 54.2275 39.0784C53.989 38.9926 53.3561 38.7667 53.9147 38.0686C54.1886 37.7264 53.4729 37.1965 52.9066 37.2558C52.4951 37.2991 52.167 37.485 51.7935 37.0746C51.4808 36.7315 51.0467 36.489 50.5084 36.8396C50.0035 37.1687 49.8317 36.1376 49.1592 36.4568C48.9545 36.5539 48.2107 36.1942 47.8496 35.9518C47.3607 35.6236 46.6922 35.8942 46.3387 35.3592C45.9488 35.9836 45.462 35.172 44.9171 35.4816C44.3925 35.7806 44.6055 34.9495 44.3486 34.6085C43.6417 35.5704 43.3174 34.2911 42.7272 34.3458C42.2666 34.5951 42.4169 35.0306 42.3984 35.4583C43.9264 36.0159 45.7021 35.6849 47.122 36.5052C48.5252 37.3143 50.4198 36.5955 51.5146 38.1012C51.1662 38.3946 50.6453 38.242 50.4002 38.0582C49.351 37.2719 48.0389 37.5317 46.9455 37.0883C44.3829 36.0467 41.6535 35.9128 38.9862 35.4573C38.3162 35.3432 38.1356 34.5929 37.443 34.6197C38.4286 34.5067 39.3938 34.3529 40.1911 35.2334C40.6316 35.0947 41.1046 34.9459 41.5718 34.7992C41.3907 34.1096 40.6014 34.0871 40.3292 33.592C39.2723 34.045 38.2319 34.4145 37.1549 33.6622C36.7358 33.369 35.9811 34.1965 35.7649 33.2413C34.0399 33.8419 32.4296 32.9766 30.7657 32.8256C29.1217 32.6754 27.4963 32.3268 25.8782 32.0678C25.3994 32.2964 25.725 32.8615 25.2813 33.2358C22.4369 32.5567 19.3306 33.1722 16.4542 31.8804L19.2234 32.3237C19.3346 31.807 18.9836 31.6455 18.8659 31.3767C18.7006 31.4817 18.5361 31.5869 18.4198 31.6606C17.5364 30.8516 16.565 31.8182 15.4786 31.1482C15.8661 31.764 16.2084 31.9941 15.7942 32.53C15.4693 32.3211 15.3183 31.8809 15.0256 31.6048C14.5522 32.2466 13.9687 32.7784 13.1244 32.5279C11.406 32.0159 9.63911 32.3306 7.90322 32.2066C6.86754 32.1331 5.79611 32.0908 4.74183 32.0758C3.75348 32.0622 2.76243 32.2527 1.77932 31.9853C0.754493 32.7472 -0.46439 31.5169 -1.48745 32.3014C-2.59557 31.8156 -3.73631 32.5474 -4.86402 32.1985C-5.35501 32.0468 -5.86175 32.7478 -6.38158 32.3439C-6.80893 32.011 -7.38375 33.0364 -7.69103 32.1551C-8.16258 32.3288 -8.42288 33.0277 -9.0752 32.7356C-9.35625 32.4399 -8.98774 32.4343 -8.85293 32.1783C-9.3944 31.3379 -9.57401 30.2163 -10.4072 29.4546C-10.2099 29.1394 -9.90573 29.3388 -9.67489 29.2419C-9.35661 28.9976 -9.51632 28.6021 -9.35415 28.252C-9.13492 28.2133 -8.88402 28.1688 -8.62838 28.1236C-8.41904 27.8872 -8.75119 27.8194 -8.77825 27.5897C-8.53593 27.2386 -8.20796 26.9674 -7.69664 27.1169C-7.00821 27.3178 -6.3569 27.0829 -5.81819 26.7731C-4.85097 26.2174 -3.83212 26.0213 -2.80536 26.261C-2.29236 26.3808 -1.69818 25.6477 -1.28052 26.4736C-1.1449 26.2269 -1.02299 26.0034 -0.843684 25.676C0.217138 26.0297 1.29586 25.6709 2.39289 25.5966C3.87564 25.4956 5.35895 25.5592 6.84627 25.2951C7.45084 25.1889 8.1214 25.2901 8.78382 25.1731C9.40585 25.0635 10.0283 25.3454 10.7395 25.087C11.3087 24.8797 12.1506 25.4382 12.7285 25.2393C13.4226 25.0012 13.8533 24.9194 14.3132 25.5345C14.3537 25.5886 14.7936 25.2476 14.9688 25.311C15.7763 25.6041 16.5251 25.0195 17.3293 25.2321C18.0982 25.4352 18.8823 25.543 19.68 25.2146C20.3428 24.9416 20.8414 26.0742 21.5849 25.508C23.4642 25.6012 25.3512 25.5449 27.209 25.9692C27.764 26.0957 28.3719 26.4153 28.964 25.8872C29.1479 25.7236 29.397 26.0841 29.6166 26.2062C30.3272 26.6006 31.1589 26.8045 31.9253 26.5519C32.3637 26.4076 32.7766 26.3652 33.0598 26.5705C33.3396 26.773 33.413 26.9631 33.8182 26.7234C34.1223 26.5437 34.5634 26.6659 34.8927 27.0154C35.2861 27.4314 35.9798 27.5993 36.3526 27.3122C36.9745 26.8334 37.1253 28.005 37.6796 27.5208C38.2208 27.0468 38.9102 27.3809 39.4231 27.5784C39.8143 27.7287 40.2683 27.7321 40.6002 27.9598C41.3274 28.4569 42.1727 28.3454 42.9608 28.4908C43.7534 28.6369 44.286 29.3789 45.1776 29.3147C45.5401 29.2889 45.8163 29.2209 46.084 29.0138C46.3922 29.5915 47.3377 29.6182 47.315 30.4659Z" fill="#172327"/>
<path opacity="0.6" fill-rule="evenodd" clip-rule="evenodd" d="M47.3132 30.4629C48.055 30.8255 48.3964 30.0618 48.8881 29.9068C49.3767 29.8281 49.4221 30.3614 49.7366 30.424C50.8443 30.6483 51.9163 30.9991 52.9954 31.2964C54.7807 31.7891 56.5266 32.2877 58.2571 32.9831C59.3982 33.4411 60.6539 33.6098 61.6434 34.438C62.5754 34.0058 63.3679 34.6857 64.1459 34.9132C65.2032 35.2217 66.503 35.3559 67.1301 36.5499C67.6213 36.1525 68.0765 36.1 68.5664 36.5806C69.1964 37.1991 69.9614 37.5469 70.8612 37.5994C71.1842 37.6188 71.4918 37.6573 71.7566 37.9727C72.4001 38.7378 73.3375 38.8825 74.3168 38.967C74.3623 39.2257 74.4061 39.4758 74.4498 39.7266C74.9352 40.3695 75.517 39.1414 75.8514 39.7287C76.1773 40.3015 76.8847 39.9902 77.1577 40.4992C76.9255 40.6673 76.7019 40.8292 76.4715 40.9954C76.1356 40.3263 75.6866 40.3883 75.1886 40.8038C75.055 40.7694 74.858 40.7794 74.8058 40.6972C74.1493 39.6677 72.9256 39.5195 71.972 39.1107C70.7925 38.6051 69.5165 38.2408 68.3115 37.7357C67.1859 37.2633 66.0616 36.6334 64.9453 36.3286C63.663 35.9795 62.4323 35.448 61.1348 35.1264C59.9064 34.8206 58.6327 34.4998 57.4648 33.8345C56.6424 33.366 55.5799 33.2482 54.6438 32.9899C53.3639 32.6358 52.2144 31.7597 50.8144 31.8724C50.1413 31.9262 49.9161 31.1188 49.2068 31.1583C48.614 31.191 48.0028 30.964 47.407 30.8233C47.3515 30.8097 47.3436 30.5901 47.3132 30.4629Z" fill="#172327"/>
</g>
<path d="M39.9764 20.9787C39.5789 20.9849 39.2002 21.1486 38.9233 21.4339C38.6464 21.7192 38.4941 22.1027 38.4998 22.5002V25.5002C38.497 25.699 38.5338 25.8963 38.6079 26.0807C38.682 26.2652 38.792 26.4331 38.9316 26.5746C39.0712 26.7162 39.2375 26.8286 39.4209 26.9053C39.6043 26.982 39.8011 27.0215 39.9998 27.0215C40.1986 27.0215 40.3954 26.982 40.5788 26.9053C40.7622 26.8286 40.9285 26.7162 41.0681 26.5746C41.2077 26.4331 41.3177 26.2652 41.3918 26.0807C41.4659 25.8963 41.5027 25.699 41.4998 25.5002V22.5002C41.5027 22.2994 41.4653 22.1001 41.3897 21.9141C41.3141 21.7281 41.202 21.5591 41.0599 21.4172C40.9179 21.2753 40.7488 21.1634 40.5626 21.0881C40.3765 21.0128 40.1772 20.9756 39.9764 20.9787ZM26.4842 21.9846C26.1857 21.9846 25.894 22.0738 25.6464 22.2406C25.3988 22.4074 25.2066 22.6442 25.0944 22.9208C24.9822 23.1975 24.9551 23.5013 25.0165 23.7934C25.078 24.0856 25.2252 24.3527 25.4393 24.5607L27.4393 26.5607C27.5775 26.7047 27.7431 26.8196 27.9263 26.8988C28.1095 26.978 28.3066 27.0198 28.5062 27.0218C28.7057 27.0239 28.9037 26.986 29.0884 26.9106C29.2732 26.8352 29.4411 26.7236 29.5822 26.5825C29.7233 26.4414 29.8348 26.2735 29.9103 26.0888C29.9857 25.904 30.0235 25.7061 30.0215 25.5065C30.0195 25.3069 29.9776 25.1098 29.8985 24.9266C29.8193 24.7434 29.7044 24.5779 29.5604 24.4396L27.5604 22.4396C27.4206 22.2957 27.2533 22.1812 27.0684 22.103C26.8836 22.0248 26.6849 21.9846 26.4842 21.9846ZM53.4705 21.9865C53.081 21.9979 52.7111 22.1604 52.4393 22.4396L50.4393 24.4396C50.2953 24.5779 50.1804 24.7434 50.1012 24.9266C50.0221 25.1098 49.9802 25.3069 49.9782 25.5065C49.9762 25.7061 50.014 25.904 50.0894 26.0888C50.1649 26.2735 50.2764 26.4414 50.4175 26.5825C50.5586 26.7236 50.7265 26.8352 50.9113 26.9106C51.096 26.986 51.294 27.0239 51.4935 27.0218C51.6931 27.0198 51.8902 26.978 52.0734 26.8988C52.2566 26.8196 52.4222 26.7047 52.5604 26.5607L54.5604 24.5607C54.7768 24.35 54.9245 24.0788 54.9843 23.7827C55.044 23.4866 55.0129 23.1793 54.8952 22.9012C54.7774 22.623 54.5784 22.3869 54.3242 22.2237C54.07 22.0605 53.7725 21.9778 53.4705 21.9865ZM28.4998 29.0002C25.4668 29.0002 22.9998 31.4672 22.9998 34.5002V36.3791L20.4393 38.9396C19.8533 39.5246 19.8533 40.4757 20.4393 41.0607L22.9998 43.6213V45.5002C22.9998 48.5332 25.4668 51.0002 28.4998 51.0002H53.4998C56.5328 51.0002 58.9998 48.5332 58.9998 45.5002V34.5002C58.9998 31.4672 56.5328 29.0002 53.4998 29.0002H28.4998ZM31.4998 35.0002H50.4998C51.3288 35.0002 51.9998 35.6712 51.9998 36.5002C51.9998 37.3292 51.3288 38.0002 50.4998 38.0002H31.4998C30.6708 38.0002 29.9998 37.3292 29.9998 36.5002C29.9998 35.6712 30.6708 35.0002 31.4998 35.0002ZM31.4998 42.0002H44.4998C45.3288 42.0002 45.9998 42.6712 45.9998 43.5002C45.9998 44.3292 45.3288 45.0002 44.4998 45.0002H31.4998C30.6708 45.0002 29.9998 44.3292 29.9998 43.5002C29.9998 42.6712 30.6708 42.0002 31.4998 42.0002ZM39.9764 52.9787C39.5789 52.9849 39.2002 53.1486 38.9233 53.4339C38.6464 53.7192 38.4941 54.1027 38.4998 54.5002V57.5002C38.497 57.699 38.5338 57.8963 38.6079 58.0807C38.682 58.2652 38.792 58.4331 38.9316 58.5746C39.0712 58.7162 39.2375 58.8286 39.4209 58.9053C39.6043 58.982 39.8011 59.0215 39.9998 59.0215C40.1986 59.0215 40.3954 58.982 40.5788 58.9053C40.7622 58.8286 40.9285 58.7162 41.0681 58.5746C41.2077 58.4331 41.3177 58.2652 41.3918 58.0807C41.4659 57.8963 41.5027 57.699 41.4998 57.5002V54.5002C41.5027 54.2994 41.4653 54.1001 41.3897 53.9141C41.3141 53.7281 41.202 53.5591 41.0599 53.4172C40.9179 53.2753 40.7488 53.1634 40.5626 53.0881C40.3765 53.0128 40.1772 52.9756 39.9764 52.9787ZM51.4842 52.9846C51.1857 52.9846 50.894 53.0738 50.6464 53.2406C50.3988 53.4074 50.2066 53.6442 50.0944 53.9208C49.9822 54.1975 49.9551 54.5013 50.0165 54.7934C50.078 55.0856 50.2252 55.3527 50.4393 55.5607L52.4393 57.5607C52.5775 57.7047 52.7431 57.8196 52.9263 57.8988C53.1095 57.978 53.3066 58.0198 53.5062 58.0218C53.7057 58.0238 53.9037 57.986 54.0884 57.9106C54.2732 57.8352 54.4411 57.7236 54.5822 57.5825C54.7233 57.4414 54.8348 57.2735 54.9103 57.0888C54.9857 56.904 55.0235 56.7061 55.0215 56.5065C55.0195 56.3069 54.9776 56.1098 54.8985 55.9266C54.8193 55.7434 54.7043 55.5779 54.5604 55.4396L52.5604 53.4396C52.4206 53.2957 52.2533 53.1812 52.0684 53.103C51.8836 53.0248 51.6849 52.9846 51.4842 52.9846ZM28.4705 52.9865C28.081 52.9979 27.7111 53.1604 27.4393 53.4396L25.4393 55.4396C25.2953 55.5779 25.1804 55.7434 25.1012 55.9266C25.0221 56.1098 24.9802 56.3069 24.9782 56.5065C24.9762 56.7061 25.014 56.904 25.0894 57.0888C25.1649 57.2735 25.2764 57.4414 25.4175 57.5825C25.5586 57.7236 25.7265 57.8352 25.9112 57.9106C26.096 57.986 26.294 58.0239 26.4935 58.0218C26.6931 58.0198 26.8902 57.978 27.0734 57.8988C27.2566 57.8196 27.4222 57.7047 27.5604 57.5607L29.5604 55.5607C29.7768 55.35 29.9245 55.0788 29.9843 54.7827C30.044 54.4866 30.0129 54.1793 29.8952 53.9012C29.7774 53.623 29.5784 53.3869 29.3242 53.2237C29.07 53.0605 28.7725 52.9778 28.4705 52.9865Z" fill="white"/>
</g>
</g>
<defs>
<clipPath id="clip0_170_5586">
<rect width="80" height="80" fill="white" transform="translate(-0.000244141)"/>
</clipPath>
</defs>
</svg>
