<svg width="143" height="36" viewBox="0 0 143 36" fill="none" xmlns="http://www.w3.org/2000/svg">
<g clip-path="url(#clip0_170_6158)">
<path d="M34.5509 28.7923H30.3603L31.7811 30.447H15.7017L6.24112 19.5115H8.61526L5.8814 16.3281H0.611521C0.269789 16.3281 0 16.5978 0 16.9216C0 17.0655 0.0539577 17.2094 0.143887 17.3173L13.7413 33.037C14.065 33.4147 14.5326 33.6305 15.0183 33.6305H37.4108C37.7345 33.6305 38.0043 33.3608 38.0222 33.037C38.0222 32.8931 37.9683 32.7493 37.8783 32.6413L34.5509 28.7923Z" fill="white"/>
<path d="M37.8071 22.1195H33.5983L35.0373 23.7742H18.9399L9.49721 12.8388H11.8714L10.5044 11.238L9.11952 9.65527H3.84964C3.5079 9.65527 3.2561 9.92506 3.2561 10.2668C3.2561 10.4107 3.31006 10.5366 3.39999 10.6445L16.9793 26.3642C17.3032 26.7419 17.7707 26.9578 18.2563 26.9578H40.6488C40.9726 26.9578 41.2424 26.6879 41.2604 26.3642C41.2604 26.2203 41.2064 26.0765 41.1165 25.9685L37.8071 22.1195Z" fill="white"/>
<path d="M44.3714 19.2952L30.792 3.57555C30.4683 3.19785 30.0006 3 29.515 3H7.10452C6.78077 3 6.51099 3.26979 6.51099 3.61152C6.51099 3.75541 6.56494 3.8993 6.65487 4.00721L20.2342 19.7449C20.558 20.1226 21.0257 20.3385 21.5112 20.3385H43.9037C44.2274 20.3385 44.5153 20.0866 44.5153 19.7449C44.5153 19.5651 44.4613 19.4212 44.3714 19.2952ZM18.5076 12.8383H25.5761L29.2632 17.119H22.1947L18.5076 12.8383ZM33.472 17.119L27.5366 10.2483C27.2128 9.87063 26.7452 9.6548 26.2596 9.6548H15.7557L12.7341 6.16552H28.8136L38.2742 17.119H33.472Z" fill="white"/>
<path d="M55.5951 16H58.3351V3.5H62.1351V1.1H51.7351V3.5H55.5951V16ZM64.375 16H66.995V7.46H69.335C69.9616 7.46 70.4616 7.64667 70.835 8.02C71.2083 8.38 71.395 8.87333 71.395 9.5V16H74.015V9.38C74.015 8.06 73.595 7.02 72.755 6.26C71.9283 5.5 70.7883 5.12 69.335 5.12H66.995V0.859999H64.375V16ZM82.2904 16.24H86.2305V13.94H82.2904C81.4504 13.94 80.7571 13.7 80.2104 13.22C79.6771 12.74 79.3771 12.1 79.3104 11.3H87.1505C87.2038 11.1533 87.2371 10.9867 87.2505 10.8C87.2771 10.6 87.2904 10.4 87.2904 10.2C87.2904 9.22667 87.0838 8.34 86.6705 7.54C86.2571 6.74 85.6571 6.1 84.8704 5.62C84.0838 5.12667 83.1238 4.88 81.9904 4.88C80.9771 4.88 80.0571 5.12667 79.2304 5.62C78.4171 6.11333 77.7704 6.78667 77.2904 7.64C76.8238 8.48 76.5904 9.44667 76.5904 10.54C76.5904 11.5933 76.8238 12.5533 77.2904 13.42C77.7704 14.2867 78.4371 14.9733 79.2904 15.48C80.1438 15.9867 81.1438 16.24 82.2904 16.24ZM81.9904 7.04C82.6838 7.04 83.2571 7.25333 83.7104 7.68C84.1771 8.09333 84.4371 8.63333 84.4904 9.3H79.3704C79.5171 8.58 79.8238 8.02667 80.2904 7.64C80.7704 7.24 81.3371 7.04 81.9904 7.04ZM94.6512 16H97.3712V10.5H101.271C102.151 10.5 102.591 10.9067 102.591 11.72C102.591 12.4267 102.605 13.14 102.631 13.86C102.658 14.5667 102.718 15.28 102.811 16H105.531C105.438 15.2533 105.378 14.5067 105.351 13.76C105.338 13 105.331 12.2533 105.331 11.52C105.331 10.36 104.945 9.54 104.171 9.06C104.558 8.66 104.858 8.18667 105.071 7.64C105.285 7.09333 105.391 6.48 105.391 5.8C105.391 4.78667 105.171 3.93333 104.731 3.24C104.291 2.54667 103.678 2.02 102.891 1.66C102.118 1.28667 101.225 1.1 100.211 1.1H94.6512V16ZM97.3712 8.1V3.5H100.251C100.985 3.5 101.571 3.70667 102.011 4.12C102.451 4.53333 102.671 5.09333 102.671 5.8C102.671 6.49333 102.451 7.05333 102.011 7.48C101.571 7.89333 100.985 8.1 100.251 8.1H97.3712ZM111.793 16.24C113.206 16.24 114.34 15.7733 115.193 14.84V16H117.673V9.38C117.673 8.06 117.253 7.02 116.413 6.26C115.586 5.5 114.446 5.12 112.993 5.12H109.193V7.46H112.853C113.48 7.46 113.98 7.60667 114.353 7.9C114.726 8.19333 114.953 8.6 115.033 9.12L111.813 9.64C110.533 9.85333 109.586 10.26 108.973 10.86C108.36 11.46 108.053 12.2133 108.053 13.12C108.053 14.08 108.393 14.84 109.073 15.4C109.753 15.96 110.66 16.24 111.793 16.24ZM110.773 13.02C110.773 12.26 111.286 11.78 112.313 11.58L115.053 11.12V11.56C115.053 12.3067 114.793 12.94 114.273 13.46C113.766 13.98 113.1 14.24 112.273 14.24C111.833 14.24 111.473 14.1333 111.193 13.92C110.913 13.6933 110.773 13.3933 110.773 13.02ZM120.895 16H123.515V9.94C123.515 9.11333 123.741 8.47333 124.195 8.02C124.661 7.55333 125.261 7.32 125.995 7.32H126.935V5H126.295C125.628 5 125.041 5.12 124.535 5.36C124.028 5.6 123.635 6.03333 123.355 6.66V5.12H120.895V16ZM134.435 16.24H138.375V13.94H134.435C133.595 13.94 132.902 13.7 132.355 13.22C131.822 12.74 131.522 12.1 131.455 11.3H139.295C139.348 11.1533 139.382 10.9867 139.395 10.8C139.422 10.6 139.435 10.4 139.435 10.2C139.435 9.22667 139.228 8.34 138.815 7.54C138.402 6.74 137.802 6.1 137.015 5.62C136.228 5.12667 135.268 4.88 134.135 4.88C133.122 4.88 132.202 5.12667 131.375 5.62C130.562 6.11333 129.915 6.78667 129.435 7.64C128.968 8.48 128.735 9.44667 128.735 10.54C128.735 11.5933 128.968 12.5533 129.435 13.42C129.915 14.2867 130.582 14.9733 131.435 15.48C132.288 15.9867 133.288 16.24 134.435 16.24ZM134.135 7.04C134.828 7.04 135.402 7.25333 135.855 7.68C136.322 8.09333 136.582 8.63333 136.635 9.3H131.515C131.662 8.58 131.968 8.02667 132.435 7.64C132.915 7.24 133.482 7.04 134.135 7.04ZM55.7351 35H58.8551L61.7151 24.28L64.5751 35H67.6951L71.6951 20.1H68.7751L66.0151 31.3L63.1351 20.1H60.3151L57.4151 31.3L54.6551 20.1H51.7351L55.7351 35ZM73.9258 22.9H76.5458V20.1H73.9258V22.9ZM73.9258 35H76.5458V24.12H73.9258V35ZM79.7648 35H82.3848V26.46H84.7248C85.3515 26.46 85.8515 26.6467 86.2248 27.02C86.5982 27.38 86.7848 27.8733 86.7848 28.5V35H89.4048V28.38C89.4048 27.06 88.9848 26.02 88.1448 25.26C87.3182 24.5 86.1782 24.12 84.7248 24.12H79.7648V35ZM97.4803 35.24C98.187 35.24 98.8403 35.12 99.4403 34.88C100.04 34.6267 100.54 34.2667 100.94 33.8V35H103.42V19.86H100.8V25.22C99.987 24.3267 98.8736 23.88 97.4603 23.88C96.4336 23.88 95.5003 24.1333 94.6603 24.64C93.8336 25.1333 93.1803 25.8133 92.7003 26.68C92.2203 27.5333 91.9803 28.4933 91.9803 29.56C91.9803 30.6267 92.2203 31.5933 92.7003 32.46C93.1803 33.3133 93.8336 33.9933 94.6603 34.5C95.487 34.9933 96.427 35.24 97.4803 35.24ZM97.7603 32.84C97.1736 32.84 96.647 32.7 96.1803 32.42C95.7136 32.14 95.347 31.7533 95.0803 31.26C94.827 30.7533 94.7003 30.1867 94.7003 29.56C94.7003 28.9333 94.827 28.3733 95.0803 27.88C95.347 27.3867 95.7136 27 96.1803 26.72C96.647 26.4267 97.1736 26.28 97.7603 26.28C98.347 26.28 98.867 26.42 99.3203 26.7C99.787 26.98 100.147 27.3667 100.4 27.86C100.667 28.3533 100.8 28.92 100.8 29.56C100.8 30.2 100.667 30.7667 100.4 31.26C100.147 31.7533 99.787 32.14 99.3203 32.42C98.867 32.7 98.347 32.84 97.7603 32.84ZM111.978 35.24C113.031 35.24 113.991 35 114.858 34.52C115.724 34.0267 116.418 33.3533 116.938 32.5C117.458 31.6333 117.718 30.6533 117.718 29.56C117.718 28.4667 117.458 27.4933 116.938 26.64C116.431 25.7867 115.744 25.1133 114.878 24.62C114.011 24.1267 113.044 23.88 111.978 23.88C110.898 23.88 109.924 24.1267 109.058 24.62C108.191 25.1133 107.498 25.7867 106.978 26.64C106.471 27.4933 106.218 28.4667 106.218 29.56C106.218 30.6533 106.471 31.6267 106.978 32.48C107.498 33.3333 108.191 34.0067 109.058 34.5C109.938 34.9933 110.911 35.24 111.978 35.24ZM111.978 32.84C111.391 32.84 110.864 32.7 110.398 32.42C109.944 32.14 109.584 31.7533 109.318 31.26C109.064 30.7533 108.938 30.1867 108.938 29.56C108.938 28.9333 109.064 28.3733 109.318 27.88C109.584 27.3867 109.944 27 110.398 26.72C110.864 26.4267 111.391 26.28 111.978 26.28C112.564 26.28 113.078 26.4267 113.518 26.72C113.971 27 114.324 27.3867 114.578 27.88C114.844 28.3733 114.978 28.9333 114.978 29.56C114.978 30.1867 114.844 30.7533 114.578 31.26C114.324 31.7533 113.971 32.14 113.518 32.42C113.078 32.7 112.564 32.84 111.978 32.84ZM123.049 35H125.369L127.929 27.66L130.449 35H132.789L136.529 24.12H133.769L131.489 30.96L129.089 24.12H126.769L124.349 30.98L122.069 24.12H119.309L123.049 35Z" fill="white"/>
</g>
<defs>
<clipPath id="clip0_170_6158">
<rect width="143" height="36" fill="white"/>
</clipPath>
</defs>
</svg>
