<svg width="167" height="42" viewBox="0 0 167 42" fill="none" xmlns="http://www.w3.org/2000/svg">
<g clip-path="url(#clip0_175_6249)">
<path d="M40.3094 33.5908H35.4203L37.078 35.5213H18.3187L7.28131 22.7633H10.0511L6.86163 19.0493H0.713441C0.314754 19.0493 0 19.364 0 19.7417C0 19.9096 0.0629507 20.0775 0.167868 20.2033L16.0315 38.543C16.4092 38.9836 16.9547 39.2355 17.5213 39.2355H43.6459C44.0236 39.2355 44.3384 38.9208 44.3592 38.543C44.3592 38.3751 44.2964 38.2073 44.1914 38.0813L40.3094 33.5908Z" fill="#172327"/>
<path d="M44.1083 25.8063H39.1981L40.8769 27.7368H22.0966L11.0801 14.9787H13.85L12.2552 13.1112L10.6395 11.2646H4.49129C4.09259 11.2646 3.79883 11.5794 3.79883 11.9781C3.79883 12.146 3.86178 12.2928 3.96669 12.4187L19.8093 30.7584C20.1871 31.199 20.7326 31.4509 21.2991 31.4509H47.4236C47.8015 31.4509 48.1161 31.1361 48.1371 30.7584C48.1371 30.5906 48.0741 30.4227 47.9693 30.2967L44.1083 25.8063Z" fill="#172327"/>
<path d="M51.7667 22.5111L35.924 4.17147C35.5464 3.73082 35.0007 3.5 34.4342 3.5H8.28865C7.91094 3.5 7.59619 3.81475 7.59619 4.21344C7.59619 4.38131 7.65914 4.54918 7.76406 4.67508L23.6067 23.0357C23.9843 23.4764 24.53 23.7282 25.0965 23.7282H51.2211C51.5987 23.7282 51.9345 23.4344 51.9345 23.0357C51.9345 22.8259 51.8715 22.6581 51.7667 22.5111ZM21.5922 14.978H29.8388L34.1404 19.9721H25.8938L21.5922 14.978ZM39.0507 19.9721L32.1261 11.9564C31.7483 11.5157 31.2028 11.2639 30.6362 11.2639H18.3817L14.8565 7.19311H33.6159L44.6533 19.9721H39.0507Z" fill="#172327"/>
<path d="M64.861 18.6665H68.0576V4.08317H72.491V1.28317H60.3576V4.08317H64.861V18.6665ZM75.1041 18.6665H78.1608V8.70317H80.8908C81.6219 8.70317 82.2052 8.92095 82.6408 9.3565C83.0763 9.7765 83.2941 10.3521 83.2941 11.0832V18.6665H86.3508V10.9432C86.3508 9.40317 85.8608 8.18984 84.8808 7.30317C83.9163 6.4165 82.5863 5.97317 80.8908 5.97317H78.1608V1.00317H75.1041V18.6665ZM96.0055 18.9465H100.602V16.2632H96.0055C95.0255 16.2632 94.2166 15.9832 93.5788 15.4232C92.9566 14.8632 92.6066 14.1165 92.5288 13.1832H101.675C101.738 13.0121 101.777 12.8176 101.792 12.5998C101.823 12.3665 101.839 12.1332 101.839 11.8998C101.839 10.7643 101.598 9.72984 101.115 8.7965C100.633 7.86317 99.9333 7.1165 99.0155 6.5565C98.0977 5.98095 96.9777 5.69317 95.6555 5.69317C94.4733 5.69317 93.3999 5.98095 92.4355 6.5565C91.4866 7.13206 90.7322 7.91761 90.1722 8.91317C89.6277 9.89317 89.3555 11.0209 89.3555 12.2965C89.3555 13.5254 89.6277 14.6454 90.1722 15.6565C90.7322 16.6676 91.5099 17.4687 92.5055 18.0598C93.501 18.6509 94.6677 18.9465 96.0055 18.9465ZM95.6555 8.21317C96.4644 8.21317 97.1333 8.46206 97.6622 8.95984C98.2066 9.44206 98.5099 10.0721 98.5722 10.8498H92.5988C92.7699 10.0098 93.1277 9.36428 93.6722 8.91317C94.2322 8.4465 94.8933 8.21317 95.6555 8.21317ZM110.426 18.6665H113.6V12.2498H118.15C119.176 12.2498 119.69 12.7243 119.69 13.6732C119.69 14.4976 119.705 15.3298 119.736 16.1698C119.768 16.9943 119.838 17.8265 119.946 18.6665H123.12C123.011 17.7954 122.941 16.9243 122.91 16.0532C122.894 15.1665 122.886 14.2954 122.886 13.4398C122.886 12.0865 122.435 11.1298 121.533 10.5698C121.984 10.1032 122.334 9.55095 122.583 8.91317C122.832 8.27539 122.956 7.55984 122.956 6.7665C122.956 5.58428 122.7 4.58872 122.186 3.77984C121.673 2.97095 120.958 2.3565 120.04 1.9365C119.138 1.50095 118.095 1.28317 116.913 1.28317H110.426V18.6665ZM113.6 9.44984V4.08317H116.96C117.815 4.08317 118.5 4.32428 119.013 4.8065C119.526 5.28872 119.783 5.94206 119.783 6.7665C119.783 7.57539 119.526 8.22872 119.013 8.7265C118.5 9.20872 117.815 9.44984 116.96 9.44984H113.6ZM130.425 18.9465C132.074 18.9465 133.396 18.4021 134.392 17.3132V18.6665H137.285V10.9432C137.285 9.40317 136.795 8.18984 135.815 7.30317C134.851 6.4165 133.521 5.97317 131.825 5.97317H127.392V8.70317H131.662C132.393 8.70317 132.976 8.87428 133.412 9.2165C133.847 9.55872 134.112 10.0332 134.205 10.6398L130.448 11.2465C128.955 11.4954 127.851 11.9698 127.135 12.6698C126.42 13.3698 126.062 14.2487 126.062 15.3065C126.062 16.4265 126.458 17.3132 127.252 17.9665C128.045 18.6198 129.103 18.9465 130.425 18.9465ZM129.235 15.1898C129.235 14.3032 129.834 13.7432 131.032 13.5098L134.228 12.9732V13.4865C134.228 14.3576 133.925 15.0965 133.318 15.7032C132.727 16.3098 131.95 16.6132 130.985 16.6132C130.472 16.6132 130.052 16.4887 129.725 16.2398C129.398 15.9754 129.235 15.6254 129.235 15.1898ZM141.044 18.6665H144.1V11.5965C144.1 10.6321 144.365 9.88539 144.894 9.3565C145.438 8.81206 146.138 8.53984 146.994 8.53984H148.09V5.83317H147.344C146.566 5.83317 145.881 5.97317 145.29 6.25317C144.699 6.53317 144.24 7.03872 143.914 7.76984V5.97317H141.044V18.6665ZM156.841 18.9465H161.437V16.2632H156.841C155.861 16.2632 155.052 15.9832 154.414 15.4232C153.792 14.8632 153.442 14.1165 153.364 13.1832H162.511C162.573 13.0121 162.612 12.8176 162.627 12.5998C162.659 12.3665 162.674 12.1332 162.674 11.8998C162.674 10.7643 162.433 9.72984 161.951 8.7965C161.469 7.86317 160.769 7.1165 159.851 6.5565C158.933 5.98095 157.813 5.69317 156.491 5.69317C155.309 5.69317 154.235 5.98095 153.271 6.5565C152.322 7.13206 151.567 7.91761 151.007 8.91317C150.463 9.89317 150.191 11.0209 150.191 12.2965C150.191 13.5254 150.463 14.6454 151.007 15.6565C151.567 16.6676 152.345 17.4687 153.341 18.0598C154.336 18.6509 155.503 18.9465 156.841 18.9465ZM156.491 8.21317C157.3 8.21317 157.969 8.46206 158.497 8.95984C159.042 9.44206 159.345 10.0721 159.407 10.8498H153.434C153.605 10.0098 153.963 9.36428 154.507 8.91317C155.067 8.4465 155.729 8.21317 156.491 8.21317ZM65.0243 40.6665H68.6643L72.001 28.1598L75.3376 40.6665H78.9776L83.6443 23.2832H80.2376L77.0176 36.3498L73.6576 23.2832H70.3676L66.9843 36.3498L63.7643 23.2832H60.3576L65.0243 40.6665ZM86.2467 26.5498H89.3034V23.2832H86.2467V26.5498ZM86.2467 40.6665H89.3034V27.9732H86.2467V40.6665ZM93.0589 40.6665H96.1156V30.7032H98.8456C99.5767 30.7032 100.16 30.9209 100.596 31.3565C101.031 31.7765 101.249 32.3521 101.249 33.0832V40.6665H104.306V32.9432C104.306 31.4032 103.816 30.1898 102.836 29.3032C101.871 28.4165 100.541 27.9732 98.8456 27.9732H93.0589V40.6665ZM113.727 40.9465C114.551 40.9465 115.314 40.8065 116.014 40.5265C116.714 40.2309 117.297 39.8109 117.764 39.2665V40.6665H120.657V23.0032H117.6V29.2565C116.651 28.2143 115.353 27.6932 113.704 27.6932C112.506 27.6932 111.417 27.9887 110.437 28.5798C109.473 29.1554 108.71 29.9487 108.15 30.9598C107.59 31.9554 107.31 33.0754 107.31 34.3198C107.31 35.5643 107.59 36.6921 108.15 37.7032C108.71 38.6987 109.473 39.4921 110.437 40.0832C111.401 40.6587 112.498 40.9465 113.727 40.9465ZM114.054 38.1465C113.369 38.1465 112.755 37.9832 112.21 37.6565C111.666 37.3298 111.238 36.8787 110.927 36.3032C110.631 35.7121 110.484 35.0509 110.484 34.3198C110.484 33.5887 110.631 32.9354 110.927 32.3598C111.238 31.7843 111.666 31.3332 112.21 31.0065C112.755 30.6643 113.369 30.4932 114.054 30.4932C114.738 30.4932 115.345 30.6565 115.874 30.9832C116.418 31.3098 116.838 31.7609 117.134 32.3365C117.445 32.9121 117.6 33.5732 117.6 34.3198C117.6 35.0665 117.445 35.7276 117.134 36.3032C116.838 36.8787 116.418 37.3298 115.874 37.6565C115.345 37.9832 114.738 38.1465 114.054 38.1465ZM130.641 40.9465C131.87 40.9465 132.99 40.6665 134.001 40.1065C135.012 39.5309 135.821 38.7454 136.427 37.7498C137.034 36.7387 137.337 35.5954 137.337 34.3198C137.337 33.0443 137.034 31.9087 136.427 30.9132C135.836 29.9176 135.035 29.1321 134.024 28.5565C133.013 27.9809 131.885 27.6932 130.641 27.6932C129.381 27.6932 128.245 27.9809 127.234 28.5565C126.223 29.1321 125.414 29.9176 124.807 30.9132C124.216 31.9087 123.921 33.0443 123.921 34.3198C123.921 35.5954 124.216 36.7309 124.807 37.7265C125.414 38.7221 126.223 39.5076 127.234 40.0832C128.261 40.6587 129.396 40.9465 130.641 40.9465ZM130.641 38.1465C129.956 38.1465 129.342 37.9832 128.797 37.6565C128.269 37.3298 127.849 36.8787 127.537 36.3032C127.242 35.7121 127.094 35.0509 127.094 34.3198C127.094 33.5887 127.242 32.9354 127.537 32.3598C127.849 31.7843 128.269 31.3332 128.797 31.0065C129.342 30.6643 129.956 30.4932 130.641 30.4932C131.325 30.4932 131.924 30.6643 132.437 31.0065C132.966 31.3332 133.379 31.7843 133.674 32.3598C133.985 32.9354 134.141 33.5887 134.141 34.3198C134.141 35.0509 133.985 35.7121 133.674 36.3032C133.379 36.8787 132.966 37.3298 132.437 37.6565C131.924 37.9832 131.325 38.1465 130.641 38.1465ZM143.558 40.6665H146.264L149.251 32.1032L152.191 40.6665H154.921L159.284 27.9732H156.064L153.404 35.9532L150.604 27.9732H147.898L145.074 35.9765L142.414 27.9732H139.194L143.558 40.6665Z" fill="#172327"/>
</g>
<defs>
<clipPath id="clip0_175_6249">
<rect width="166.833" height="42" fill="white"/>
</clipPath>
</defs>
</svg>
