<svg width="153" height="389" viewBox="0 0 153 389" fill="none" xmlns="http://www.w3.org/2000/svg">
<path d="M148.076 363.6C148.076 363.6 150.846 369.32 152.376 372.6C152.823 373.522 153.012 374.548 152.924 375.569C152.836 376.59 152.474 377.568 151.876 378.4L122.476 388.2C122.476 388.2 118.796 389.57 117.576 386.6C116.406 382.3 120.676 379.37 120.676 379.37L142.336 362.37L148.076 363.57" fill="black"/>
<path d="M133.076 359.9L135.876 367.3C138.04 368.051 140.386 368.098 142.578 367.433C144.769 366.768 146.694 365.426 148.076 363.6L145.976 356.9L140.326 354.3L133.076 359.9Z" fill="#EABC96"/>
<path d="M120.876 189L114.176 225.6C114.176 225.6 113.176 234.15 113.276 237.6C113.376 241.05 113.896 253.45 115.876 259.09C117.856 264.73 121.376 276.86 123.146 282.25L144.976 348.8L140.166 356.8L128.676 352.9L98.8758 286.31C98.8758 286.31 89.0758 269.84 86.5258 252.81C83.9758 235.78 77.6758 189.1 77.6758 189.1L93.4658 176.1L120.876 189Z" fill="#42A296"/>
<path d="M127.675 355.07L128.965 359.62C128.965 359.62 129.515 360.74 132.455 360.05L148.175 356.26C148.393 356.224 148.6 356.14 148.782 356.014C148.964 355.888 149.115 355.724 149.226 355.533C149.337 355.342 149.404 355.129 149.423 354.909C149.442 354.689 149.412 354.467 149.335 354.26L148.175 349.86C148.01 349.432 147.698 349.077 147.295 348.857C146.892 348.637 146.425 348.568 145.975 348.66L129.125 352.75C129.125 352.75 127.315 353.81 127.675 355.07Z" fill="#42A296"/>
<path d="M102.786 373.12C102.786 373.12 103.656 379.41 104.106 383C104.247 384.016 104.111 385.05 103.714 385.996C103.316 386.941 102.671 387.761 101.846 388.37L70.8458 388.64C70.8458 388.64 66.9258 388.81 66.6758 385.64C66.8958 381.19 71.8558 379.72 71.8558 379.72L97.6958 370.2L102.786 373.11" fill="black"/>
<path d="M88.6055 365.3L89.4755 373.2C89.4755 373.2 95.6255 377.03 102.275 373.6L101.675 364L95.6755 359.9L88.6155 365.3" fill="#EABC96"/>
<path d="M71.0762 189.09C71.0762 189.09 71.8762 250.92 71.3262 254.63C71.3262 254.63 84.4862 352.26 85.9762 357.38L95.4262 361.72L102.786 356.15C102.786 356.15 100.376 276.48 101.036 275.41L105.886 181.95L71.0762 189.09Z" fill="#42A296"/>
<path d="M83.7153 359.61L84.2953 364.31C84.2953 364.31 84.6653 365.5 87.6753 365.31L103.785 364C104.002 363.996 104.215 363.945 104.41 363.851C104.606 363.757 104.778 363.621 104.916 363.454C105.054 363.287 105.154 363.092 105.209 362.882C105.264 362.672 105.273 362.453 105.235 362.24L104.775 357.72C104.678 357.269 104.424 356.867 104.057 356.586C103.691 356.306 103.236 356.165 102.775 356.19L85.4953 357.62C85.4953 357.62 83.5653 358.32 83.7153 359.61Z" fill="#42A296"/>
<path d="M88.5053 100.01L95.5853 118.61C95.5853 118.61 59.9353 126.61 45.8253 132.36C45.8253 132.36 35.9453 137.44 32.0653 127.81C32.0653 127.81 17.9753 94.6899 15.6653 90.6099C14.7954 89.1228 13.6795 87.794 12.3653 86.6799C10.6553 85.4699 12.7153 82.0199 12.7153 82.0199C14.6348 77.0788 15.3644 71.7553 14.8453 66.4799C14.8453 66.4799 15.3653 63.7299 19.2153 63.3999C23.0653 63.0699 26.5753 70.3299 24.2153 83.6499L41.9253 117.46L88.5053 100.01Z" fill="#EABC96"/>
<path d="M99.475 60.1L97.875 71.34L110.855 71.74L109.775 56.5L99.475 57.87V60.1Z" fill="#EABC96"/>
<path d="M86.2754 23C86.2754 23 75.9954 38.44 82.8354 53C83.8129 55.0453 85.2747 56.8212 87.094 58.1734C88.9133 59.5257 91.0352 60.4136 93.2754 60.76C95.5265 60.9557 97.794 60.7008 99.9454 60.01C103.867 59.0959 107.846 58.4477 111.855 58.07L123.335 43.13L104.075 19.3L86.2754 23Z" fill="#EABC96"/>
<path d="M85.875 0C85.875 0 73.875 13.23 86.275 23C86.275 23 103.445 33.13 111.075 42.5C111.075 42.5 116.345 42.17 116.155 47.05C116.161 47.6865 116.038 48.3175 115.793 48.905C115.548 49.4925 115.186 50.0243 114.73 50.4682C114.274 50.9121 113.733 51.259 113.139 51.4879C112.545 51.7168 111.911 51.823 111.275 51.8L108.375 58.4C108.375 58.4 117.475 61.4 125.235 46.25C132.995 31.1 118.655 14.73 109.515 11.98C100.375 9.23 93.825 9.51 90.775 1.8C90.775 1.8 89.015 2.42 89.975 6.22C89.975 6.2 85.545 3.92 85.875 0Z" fill="black"/>
<path d="M77.7752 93.45C77.7752 93.45 79.2752 80.2 90.8752 73.11C94.2354 71.0453 98.0236 69.7772 101.95 69.4028C105.876 69.0284 109.835 69.5577 113.525 70.95C113.525 70.95 123.375 76.48 123.975 91.6L124.975 185C124.975 185 125.325 188.33 121.475 189.1H67.0752L74.5852 100.27L77.7752 93.45Z" fill="#66B4B8"/>
<path d="M78.076 93.41L87.376 111.01C87.376 111.01 52.966 123.26 39.666 130.71C39.666 130.71 30.476 136.96 25.456 127.88C25.456 127.88 7.45601 96.73 4.63601 92.96C3.58889 91.5898 2.31764 90.4064 0.876013 89.46C-0.963987 88.46 0.666013 84.79 0.666013 84.79C1.96538 79.6522 2.03732 74.2808 0.876013 69.11C0.876013 69.11 1.06601 66.31 4.87601 65.52C8.68601 64.73 13.026 71.52 12.306 85.01L34.006 116.41L78.076 93.41Z" fill="#EABC96"/>
</svg>
