<svg width="98" height="84" viewBox="0 0 98 84" fill="none" xmlns="http://www.w3.org/2000/svg">
<g clip-path="url(#clip0_170_5259)">
<path fill-rule="evenodd" clip-rule="evenodd" d="M18.9052 39.9114C25.6335 49.0269 33.5501 56.9809 42.6948 63.7345C51.8575 70.5015 61.7146 75.9219 72.8583 78.822C50.8024 71.3304 33.5248 57.4272 18.9052 39.9114ZM74.601 72.7503C73.1405 71.7342 71.4969 71.2266 69.7358 71.045C69.6522 70.4259 69.0615 70.4845 68.6735 70.309C66.4307 69.296 64.1132 68.4448 61.9515 67.2559C61.753 67.1469 61.5224 66.891 61.166 67.2465C64.0142 68.6307 66.7318 70.1663 69.7737 71.005C71.32 71.7772 72.9289 72.3772 74.6363 72.7167C76.1462 73.355 77.7255 73.7432 79.3403 74.0043C77.7509 73.6239 76.3236 72.6435 74.601 72.7503ZM85.6588 73.4375C70.9824 70.9671 58.1877 64.3641 46.3674 55.6066C46.698 55.8921 47.0155 56.1941 47.3604 56.4614C58.0587 64.7528 69.8658 70.8177 83.1913 73.8631C87.4108 74.8279 91.6673 75.6489 95.8188 76.8934C96.6072 77.1301 97.6262 77.0382 96.8786 78.4898C96.5196 79.1858 97.1813 80.2248 97.2585 81.1465C97.3218 81.8954 97.5594 81.9375 96.8517 82.0444C96.3201 82.1248 96.0912 82.7279 95.4919 82.607C95.6584 83.0341 96.3938 82.8587 96.2742 83.3232C96.1423 83.8349 95.6246 83.8941 95.1051 83.9195C90.7159 84.1375 86.3538 83.9024 81.9978 83.3408C72.9914 82.1798 64.4632 79.5117 56.3934 75.4377C45.8325 70.1056 36.5003 63.1231 28.0852 54.8946C18.0807 45.1111 10.5327 33.6991 4.7721 21.0867C2.69413 16.5377 0.819374 11.913 0.178661 6.90687C0.112852 6.3931 0.0470433 5.87718 0.017561 5.36024C-0.00613019 4.9435 -0.107212 4.39133 0.659327 4.74995C0.91993 4.87141 1.23739 4.80129 1.13052 4.5097C0.683018 3.28432 1.74333 2.65218 2.12028 1.7455C2.56251 0.682121 3.60439 0.491669 4.40094 0.249267C5.35701 -0.0419009 6.03615 0.618271 6.42259 1.70864C10.0726 11.9997 15.9111 21.0986 22.4715 29.7688C32.0475 42.4233 43.4429 53.1964 56.9899 61.6887C64.5875 66.4514 72.7435 69.9706 81.4418 72.2677C82.8522 72.6403 84.2532 73.0467 85.6588 73.4375Z" fill="#F8D8D3"/>
<path fill-rule="evenodd" clip-rule="evenodd" d="M81.2006 55.0779C82.4361 55.8987 83.8496 56.2616 85.3462 56.3088C83.9644 55.8987 82.5825 55.488 81.2006 55.0779ZM86.7613 53.549C84.9231 52.9831 83.2447 51.9567 81.2879 51.8425C83.0598 52.601 84.8425 53.3185 86.7613 53.549ZM91.0204 53.5687C85.6466 51.2574 80.0889 49.3905 74.8647 46.7168C79.7701 50.1396 85.429 51.7776 91.0204 53.5687ZM61.4578 48.8817C68.5048 55.7056 79.6772 60.0224 86.3582 60.1361C77.1617 57.9587 76.5542 57.6826 61.4578 48.8817ZM50.2008 24.5895C49.7749 24.1217 49.4426 23.7562 48.8235 23.0756C50.101 23.4219 50.7496 24.0007 51.3936 24.5796C54.4123 27.2969 57.2727 30.1736 60.064 33.1229C64.8805 38.2128 70.057 42.8667 76.1922 46.3575C80.0932 48.577 84.2929 50.1022 88.4515 51.7298C89.631 52.1914 90.8833 52.6217 91.8642 53.3761C92.408 53.7946 92.5927 54.7586 93.3359 55.1599C93.0142 55.7393 92.4669 55.1537 92.1721 55.5291C92.6274 56.407 93.7852 57.1576 92.6092 58.3336C92.4479 58.495 92.9483 58.6773 93.1443 58.8413C93.5892 59.2151 93.7713 59.6596 93.5649 60.2146C93.3559 60.7757 93.028 61.1179 92.3447 61.1999C91.3976 61.3141 90.5434 60.8401 89.4541 60.8448C89.8999 61.6048 90.6058 61.3946 91.0871 61.6443C91.4236 61.8192 92.0455 61.7315 92.0038 62.3363C91.9665 62.8934 91.5008 63.1094 91.0152 63.1914C90.5997 63.2615 90.1696 63.2989 89.749 63.2818C78.6672 62.827 68.7489 59.2323 60.0723 52.2843C55.6021 48.7052 51.404 44.8576 48.0155 40.1992C46.3542 37.9149 45.2943 35.3564 44.5371 32.6604C44.2926 31.7887 44.1342 30.9088 44.8892 30.1398C45.0601 29.9659 45.1131 29.6248 45.1266 29.3559C45.2351 27.1297 46.6643 25.6039 48.0498 24.1279C48.6277 23.5117 49.241 24.6611 50.2008 24.5895Z" fill="#F8D8D3"/>
<path fill-rule="evenodd" clip-rule="evenodd" d="M96.1154 76.6892C93.3142 75.6978 90.3464 75.4619 87.4854 74.273C88.6952 74.0491 94.6576 75.6852 96.1154 76.6892Z" fill="#F8D8D3"/>
</g>
<defs>
<clipPath id="clip0_170_5259">
<rect width="84" height="98" fill="white" transform="translate(0 84) rotate(-90)"/>
</clipPath>
</defs>
</svg>
