<svg width="99" height="97" viewBox="0 0 99 97" fill="none" xmlns="http://www.w3.org/2000/svg">
<g clip-path="url(#clip0_170_5263)">
<path fill-rule="evenodd" clip-rule="evenodd" d="M54.4408 15.1798C53.3408 14.3283 52.0857 13.8941 50.7362 13.8201C50.1795 13.7891 49.5566 14.178 49.6236 14.7855C49.8423 16.771 48.3941 17.7123 47.2021 18.7429C39.6184 25.2978 31.1247 30.4751 22.2317 35.0244C18.9865 36.6849 15.677 38.2203 12.4068 39.8314C11.963 40.0503 11.4046 40.1278 11.4281 40.9192C11.4513 41.7087 12.1332 41.5838 12.4135 41.9085C14.5408 44.3746 16.8513 43.1233 19.1498 42.3681C30.7743 38.5492 40.9469 32.2679 50.0284 24.1432C51.6901 22.6563 53.1951 21.0154 54.3012 19.0664C55.0053 17.8243 55.3902 16.508 54.4408 15.1798Z" fill="#59D8C9"/>
<path fill-rule="evenodd" clip-rule="evenodd" d="M58.5356 48.9869C58.9593 48.0182 58.8494 47.3484 57.9578 46.9053C57.0818 46.4697 56.4223 46.4606 55.6048 47.1962C53.8558 48.7697 51.5556 49.2236 49.36 49.7825C41.6289 51.752 33.7747 53.1417 25.9449 54.6447C25.3285 54.7633 24.6882 54.8473 24.4116 55.6111C24.074 56.5401 25.0873 56.4089 25.3171 56.8824C26.0738 58.4413 27.4831 58.2565 28.8272 58.1328C35.8066 57.4887 42.811 57.0052 49.5828 54.9899C51.8043 54.3287 54.0011 53.6095 56.1258 52.6651C57.0655 52.2471 57.3846 51.0267 58.6726 50.9886C59.1969 50.9735 59.7606 50.1983 59.8549 49.4329C59.9041 49.0352 60.0174 48.5701 59.6215 48.3521C59.1572 48.096 58.9976 48.6755 58.5356 48.9869Z" fill="#59D8C9"/>
<path fill-rule="evenodd" clip-rule="evenodd" d="M62.9296 75.7434C61.5531 74.44 60.252 74.1484 58.5725 74.3113C55.337 74.6253 52.2081 73.6937 49.1146 72.8301C45.0251 71.6894 41.0285 70.2826 37.1457 68.549C36.1621 68.1094 35.0936 67.8463 34.0463 67.57C33.6476 67.4646 33.1437 67.3819 32.9641 68.0107C32.8169 68.523 33.0942 68.7484 33.4134 69.115C35.9027 71.9742 39.5044 72.8491 42.7461 74.2763C47.1653 76.2218 51.7683 77.7181 56.6005 78.3471C58.3739 78.5778 60.1442 78.5911 61.9133 78.3386C62.6716 78.2302 63.3547 78.008 63.645 77.169C63.963 76.2486 63.3137 75.9448 62.9296 75.7434Z" fill="#59D8C9"/>
</g>
<defs>
<clipPath id="clip0_170_5263">
<rect width="74.8522" height="66.973" fill="white" transform="translate(35.4844) rotate(31.9938)"/>
</clipPath>
</defs>
</svg>
