<svg width="139" height="162" viewBox="0 0 139 162" fill="none" xmlns="http://www.w3.org/2000/svg">
<path fill-rule="evenodd" clip-rule="evenodd" d="M12.7031 41.5886C14.0153 45.6829 15.7132 49.6116 17.9069 53.3174C16.1721 49.4075 14.4376 45.4981 12.7031 41.5886ZM14.2702 35.8741C14.9083 39.1528 22.4789 54.3352 24.7908 57.0958C21.3148 49.9298 17.2397 43.1735 14.2702 35.8741ZM16.1483 59.3705C14.0307 55.0369 11.9636 50.7248 10.557 46.1398C10.0245 44.4053 9.56109 42.6517 9.04241 40.9141C8.92435 40.5202 8.88417 39.8598 8.35294 39.9498C7.71368 40.0577 8.1206 40.6566 8.12562 41.0507C8.12688 41.1579 8.17208 41.2647 8.19971 41.3714C9.85371 47.8147 12.6803 53.7522 16.1483 59.3705ZM53.6281 90.6139C55.1344 91.2086 55.9754 92.5767 57.0611 93.6305C60.5531 97.0195 64.1899 100.228 68.1459 103.073C69.3719 103.955 70.5204 104.858 70.9168 106.432C71.0129 106.814 71.302 107.878 71.8867 106.62C72.1331 106.091 72.4205 106.469 72.6715 106.627C75.0305 108.106 77.5244 109.42 79.6767 111.153C80.5939 111.89 81.6159 112.008 82.4785 112.558C85.0923 114.225 88.0845 115.043 90.8454 116.374C92.5136 117.178 94.3997 117.537 96.2572 118.117C96.0567 118.643 95.4275 118.132 95.3373 118.562C95.2585 118.94 95.5851 119.306 95.8554 119.298C96.9431 119.266 98.0544 120.159 99.1279 119.213C99.6002 118.796 100.247 119.048 100.39 119.43C100.629 120.073 100.652 120.599 101.335 119.763C101.394 119.689 101.53 119.678 101.632 119.639C102.357 121.71 103.791 119.95 104.846 120.228C107.608 120.956 110.471 121.087 113.267 121.78C115.279 122.278 117.596 122.279 119.825 122.16C121.389 122.077 123.08 122.078 124.65 122.454C125.53 122.665 126.389 122.859 127.259 122.724C128.439 122.541 128.765 123.381 129.243 124.114C129.835 125.022 128.916 125.053 128.52 125.385C127.804 125.987 128.279 126.857 128.196 127.53C127.844 130.414 125.609 131.25 123.495 132.017C120.079 133.254 116.433 133.376 112.829 133.524C101.386 133.991 90.4065 131.838 79.9057 127.418C70.076 123.28 61.256 117.483 53.1556 110.605C49.7662 107.727 46.7217 104.489 43.5387 101.398C40.9401 98.8736 38.3774 96.3419 36.005 93.6144C32.1415 89.1719 28.4138 84.6267 24.9704 79.8485C19.252 71.914 13.8237 63.8058 9.66031 54.9383C7.47005 50.2741 5.98182 45.3749 5.14917 40.2896C5.006 39.4199 4.94823 38.5385 5.10899 37.6584C5.22578 37.0169 5.18936 36.1931 5.94163 35.9975C6.63991 35.8156 7.37083 36.0523 7.8757 37.0081C7.76392 35.3071 7.60693 33.7357 9.94163 34.2653C10.2895 34.3439 10.351 34.0784 10.5281 33.8591C11.4487 32.7301 12.4069 32.7475 13.4396 33.8603C13.5811 33.489 13.0472 32.8983 13.7248 32.7425C14.1894 32.6341 14.3735 33.1114 14.5201 33.4516C16.11 37.1452 17.945 40.7202 19.7545 44.3093C23.007 50.7634 26.5525 57.0334 30.5112 63.1C34.1498 68.675 38.0383 74.0557 42.1041 79.3168C43.7028 81.3858 45.5299 83.2809 47.4318 85.1321C34.0974 69.4372 23.3671 52.1793 15.3088 33.2946C16.2207 33.5251 16.3393 34.3538 16.6433 34.9719C24.0894 50.0957 32.425 64.675 42.9243 77.9677C46.0277 81.8968 49.4136 85.5681 52.7599 89.2799C53.1365 89.698 53.4628 90.1264 53.6872 90.637C52.9192 91.5269 52.6993 90.3267 52.527 90.1647C51.0049 88.734 49.6017 87.1806 47.9265 85.4142C48.7129 87.5374 57.8834 96.7115 59.4585 97.0142C58.0844 96.1763 57.0374 94.9853 55.9616 93.8455C55.0535 92.8835 53.7005 92.1868 53.6281 90.6139Z" fill="#F2B344"/>
<path fill-rule="evenodd" clip-rule="evenodd" d="M62.9237 79.9129C63.0101 78.1365 61.058 77.642 60.7873 76.14C60.7434 75.8928 60.3446 75.7868 60.0849 75.9514C59.783 76.1435 59.6008 76.5902 59.877 76.7779C61.0964 77.6034 61.4202 79.2664 62.9237 79.9129ZM60.2857 69.6563C57.7344 65.4705 54.9953 61.4054 52.7686 57.0356C54.4381 61.7348 56.968 65.9308 60.2857 69.6563ZM52.7875 47.5022C55.4672 56.8906 60.6187 64.8817 66.9693 72.195C60.8461 64.7531 56.3821 56.3737 52.7875 47.5022ZM58.849 74.2698C57.9463 72.8737 56.9215 71.5394 56.1724 70.067C55.3186 68.3883 54.1308 66.9261 53.3362 65.1637C52.7304 63.8196 51.7421 62.3612 50.9637 60.9656C48.288 56.1689 46.7324 50.9128 45.0555 45.7186C44.7733 44.8445 44.6612 43.9063 44.5689 42.9879C44.5402 42.6996 44.836 42.3635 44.4641 42.1255C44.3551 42.0547 44.1309 42.0524 44.0178 42.1177C43.5898 42.3648 43.7037 42.7815 43.7775 43.1498C44.096 44.7412 44.7991 46.3573 44.6781 47.9129C44.4843 50.4112 46.0872 52.1862 46.6615 54.3452C47.073 55.893 48.3663 57.2121 48.4458 58.7093C48.565 60.9595 49.9763 62.4047 50.8971 64.1829C51.7784 65.8858 53.4948 67.0699 54.1893 68.6802C55.2213 71.0719 56.6948 72.877 58.849 74.2698ZM43.7289 39.7031C43.7562 38.8025 43.7576 38.0573 43.8091 37.316C43.8421 36.8425 43.7626 36.2767 44.4086 36.091C44.9813 35.9253 45.1699 36.4026 45.4509 36.7241C45.6395 36.9409 45.862 37.0867 46.1696 37.0369C45.8369 35.3147 46.0248 35.1851 47.792 35.1726C48.221 35.1689 49.0473 35.8356 49.3731 34.6418C49.5291 34.0698 50.0202 34.7776 50.2114 35.0929C51.3623 36.9883 51.9651 39.1107 52.5038 41.2162C53.2566 44.1594 54.2485 47.026 55.237 49.8833C57.4976 56.4172 61.1587 62.2114 65.2131 67.7907C67.707 71.2236 70.5709 74.2884 73.8591 77.0081C70.3072 72.6462 66.1124 68.7768 63.2596 63.4911C64.378 63.7484 64.6079 64.4965 64.9628 65.0168C68.5576 70.2824 72.7764 74.9932 77.5979 79.1787C77.8093 79.3623 78.3324 79.466 77.9812 79.8852C77.0737 80.9681 78.3157 81.4277 78.7403 81.7629C79.3648 82.255 80.1296 83.3118 81.312 82.1084C80.7614 84.6597 83.3869 84.3042 83.9944 85.7828C84.6313 84.9994 83.5879 84.7586 83.8184 84.0588C85.0003 84.8163 86.1193 85.6211 87.3222 86.274C88.0805 86.6862 86.5326 87.1299 87.5298 87.6398C88.8992 88.3405 89.9929 89.5651 91.3528 90.2912C91.984 90.6281 91.7458 91.2848 92.384 91.593C92.5768 90.3175 93.0212 90.28 93.9968 91.0859C95.528 92.35 97.2956 93.24 99.2968 93.6657C100.649 93.9524 101.803 94.8604 103.204 95.0787C103.613 95.142 103.586 95.5354 103.668 95.8571C104.019 97.2473 104.702 97.5547 106.019 96.9491C107.245 96.3849 108.44 95.9079 109.828 96.6112C110.218 96.8084 110.365 96.9477 110.532 97.324C110.95 98.2662 112.64 98.2266 113.381 97.4265C114.349 96.3802 115.927 96.2037 117.033 96.3787C118.865 96.6673 120.087 95.6122 121.555 95.1471C122.31 94.9082 122.638 95.0793 123.084 95.5888C123.995 96.6305 122.74 97.0435 122.408 97.6003C122.123 98.0787 121.405 98.1958 122.046 98.961C122.361 99.3374 122 99.7838 121.655 100.1C120.756 100.928 120.079 102.215 118.47 101.615C118.446 101.607 117.433 101.356 117.816 102.293C117.939 102.596 117.348 103.132 116.836 103.241C114.472 103.747 112.313 104.995 109.831 105.11C109.258 105.137 108.719 105.482 108.705 104.549C108.702 104.335 108.702 104.011 108.421 104.069C108.187 104.118 107.796 104.448 107.826 104.559C108.143 105.721 107.216 105.654 106.732 105.448C105.377 104.871 104.022 105.628 102.719 105.302C100.652 104.785 98.4776 104.799 96.5734 103.428C95.8849 102.933 94.4208 103.214 93.2879 102.906C90.1993 102.065 87.4145 100.544 84.5332 99.2603C82.2856 98.2584 80.1889 96.9079 78.0465 95.6704C73.0719 92.7961 68.6513 89.2442 64.4672 85.3769C59.2686 80.5716 54.9275 75.0121 51.0894 69.1405C46.9321 62.781 43.5964 55.9565 41.8325 48.4971C41.1456 45.5927 40.7025 42.6529 41.274 39.6655C41.3808 39.1093 41.2003 38.2716 41.9761 38.1502C42.658 38.0436 42.9705 38.7085 43.2375 39.2697C43.2964 39.3951 43.4583 39.4711 43.7289 39.7031Z" fill="#F2B344"/>
<path fill-rule="evenodd" clip-rule="evenodd" d="M62.4633 34.1384C62.9983 34.2256 63.2411 34.5172 63.5009 34.7963C63.8095 35.1278 63.9216 35.9166 64.551 35.5876C65.2031 35.2449 64.5988 34.7353 64.4549 34.3091C64.4025 34.1533 64.287 34.0162 64.2478 33.8592C64.0749 33.1614 64.2067 32.7389 65.0516 33.0766C65.2298 33.1477 65.5945 33.4081 65.5444 33.1838C65.0959 31.1887 66.7421 32.3015 67.3677 31.9376C68.6699 31.18 69.0613 32.552 69.8228 33.023C71.9442 34.3365 73.3199 36.5708 75.6996 37.6146C76.6319 38.0239 76.5592 39.0243 76.0466 39.881C78.3062 39.9377 79.3322 41.8104 80.6964 43.1046C83.4397 45.7077 85.7019 48.9964 88.8253 50.9678C91.9935 52.9675 94.0877 55.8436 96.8141 58.1531L98.5289 61.0599C98.8792 61.4068 99.2019 61.788 99.5843 62.0949C101.664 63.7612 103.671 65.495 105.171 67.7242C105.483 68.188 106.293 68.5935 104.881 68.9345C104.334 69.0663 104.088 70.6736 103.83 71.6416C103.709 72.0983 103.659 72.6378 103.154 72.6165C101.411 72.5428 99.6689 73.2718 97.931 72.074C93.4652 68.9964 89.2468 65.6608 85.3029 61.9327C82.1785 58.9791 79.1966 55.9018 76.2214 52.8102C73.827 50.3219 71.5858 47.7174 69.4683 44.9763C67.3587 42.2453 64.9284 39.7575 62.9741 36.8849C62.3939 36.0325 62.1986 35.22 62.4633 34.1384Z" fill="#F2B344"/>
<path fill-rule="evenodd" clip-rule="evenodd" d="M51.3519 35.4952C53.4143 39.2513 54.4882 43.338 55.6138 47.4077L55.2212 47.5381C53.9314 43.5237 52.6415 39.5092 51.3519 35.4952Z" fill="#F2B344"/>
<path fill-rule="evenodd" clip-rule="evenodd" d="M56.1515 48.7641C57.4184 51.5746 58.6857 54.3857 59.9526 57.1963C57.8328 54.7604 56.8692 51.7992 56.1515 48.7641Z" fill="#F2B344"/>
</svg>
