<svg width="222" height="126" viewBox="0 0 222 126" fill="none" xmlns="http://www.w3.org/2000/svg">
<path fill-rule="evenodd" clip-rule="evenodd" d="M31.263 1.78602C31.2457 1.85241 31.2291 1.91879 31.2119 1.98452H20.9936C20.9982 1.91879 21.0022 1.85241 21.0075 1.78602H31.263ZM130.911 81.3944C127.481 78.0173 123.728 74.8952 121.91 70.2495C124.91 73.9652 127.91 77.6794 130.911 81.3944ZM113.324 42.9113C113.324 42.2488 113.27 41.5809 113.332 40.9244C114.326 30.3405 122.994 27.6067 130.736 29.7629C133.26 30.4653 135.386 31.8362 137.419 33.3312C139.231 34.6629 141.034 36.1366 142.434 37.8753C145.928 42.2156 147.921 47.3286 148.991 52.7483C150.478 60.2884 150.781 67.8272 147.925 75.1754C146.253 79.4759 143.792 83.1682 139.737 85.6524C138.571 86.3667 137.82 86.1622 136.919 85.2952C130.306 78.9328 124.225 72.1409 119.727 64.0717C116.055 57.4863 113.39 50.5868 113.324 42.9113ZM52.8043 6.15015C47.3854 4.89745 41.9672 3.64542 36.5484 2.39272C40.7948 3.02139 45.0199 3.82931 49.2145 4.77198C50.4441 5.04815 51.588 5.70736 52.7744 6.18666C55.2973 6.13687 57.2087 7.604 59.1845 8.90582C57.058 7.98771 54.9308 7.06893 52.8043 6.15015ZM141.324 89.1754C148.008 84.9732 152.151 79.1074 154.067 71.8926C157.73 58.0983 155.613 45.1783 146.806 33.7726C142.671 28.4159 136.982 25.0668 130.205 24.0677C124.484 23.2246 119.482 25.1318 115.252 28.9948C111.044 32.8366 108.329 37.6296 107.874 43.2857C107.484 48.1325 107.914 53.055 109.773 57.6635C111.26 61.3499 112.789 65.0356 114.609 68.5634C115.705 70.6884 117.331 72.5584 118.827 74.4571C122.344 78.9175 125.927 83.3262 129.428 88.1398C128.117 87.7648 126.75 87.5198 125.505 86.9887C121.488 85.274 118.273 82.4419 115.401 79.2382C108.48 71.5188 103.86 62.3868 99.4946 53.0995C95.6983 45.0217 91.835 36.9757 86.6359 29.6633C76.4522 15.3413 62.8393 6.21392 45.6486 2.37815C35.1196 0.0287645 24.4618 0.42907 13.8027 0.472221C9.79072 0.488153 5.77671 0.162864 1.76336 0.000882492C1.54426 -0.0084115 1.32119 0.0573103 0.85379 0.122368C1.33979 0.577774 1.6651 0.883148 1.73082 0.944223C1.16053 1.40826 0.580261 1.88093 0 2.35293C0.497925 2.94509 0.884994 3.75765 1.52036 4.07696C2.4618 4.55029 3.56588 4.82247 4.62415 4.91807C7.53077 5.18029 10.4513 5.27788 13.3632 5.49231C16.6881 5.73793 20.0076 6.05858 23.3332 6.30088C24.1412 6.35997 24.9717 6.14488 25.7751 6.22321C29.6198 6.59763 33.4871 6.85919 37.2913 7.49184C40.7064 8.06077 44.0227 9.21854 47.4352 9.818C50.0351 10.2747 52.4232 11.1909 54.7993 12.2265C60.5169 14.7193 65.9657 17.538 70.6834 21.8199C77.3006 27.8251 82.5675 34.866 87.1551 42.3915C89.8884 46.8765 91.6465 51.9464 94.008 56.671C96.4472 61.5497 99.0471 66.3501 101.653 71.1431C102.966 73.5582 104.237 76.045 105.907 78.2059C108.037 80.9642 110.481 83.4942 112.926 85.9896C114.512 87.6074 116.195 89.2179 118.091 90.4275C122.493 93.2369 127.343 94.0893 132.43 92.6733C133.982 92.2418 135.09 92.3859 136.347 93.4885C145.651 101.648 156.031 108.173 167.32 113.196C174.055 116.193 180.813 119.225 187.781 121.59C196.769 124.641 206.09 126.341 215.666 125.942C217.214 125.878 218.786 125.577 220.27 125.131C220.888 124.945 221.305 124.09 221.812 123.541C221.255 123.168 220.73 122.554 220.134 122.477C219.118 122.346 218.057 122.539 217.018 122.621C216.316 122.676 215.608 122.89 214.92 122.834C207.494 122.22 200.245 120.659 193.191 118.323C174.813 112.236 157.977 103.306 143.128 90.7846C142.581 90.3239 142.059 89.8327 141.324 89.1754Z" fill="#F8D8D3"/>
</svg>
