<svg width="69" height="77" viewBox="0 0 69 77" fill="none" xmlns="http://www.w3.org/2000/svg">
<g clip-path="url(#clip0_170_5233)">
<path fill-rule="evenodd" clip-rule="evenodd" d="M3.72913 51.8612C3.61439 53.2475 3.93396 54.5366 4.60709 55.7086C4.88439 56.1923 5.54988 56.5028 6.02281 56.1156C7.56862 54.8506 9.14698 55.5522 10.6605 55.9904C20.2888 58.7791 29.2576 63.0813 37.9172 68.0605C41.0775 69.8772 44.168 71.8161 47.3006 73.6807C47.7259 73.9336 48.0951 74.3597 48.746 73.9088C49.3954 73.4592 48.9191 72.9555 49.0387 72.5435C49.9478 69.4161 47.6399 68.1603 45.7544 66.6442C36.2193 58.9765 25.41 53.8679 13.6495 50.6784C11.4974 50.0949 9.30143 49.7268 7.06448 49.861C5.63929 49.9472 4.32578 50.3415 3.72913 51.8612Z" fill="#59D8C9"/>
<path fill-rule="evenodd" clip-rule="evenodd" d="M29.8483 30.0101C28.8053 30.1825 28.3034 30.6395 28.4176 31.6286C28.5295 32.6005 28.8811 33.1585 29.9433 33.4433C32.2157 34.0528 33.8494 35.7344 35.5142 37.2711C41.3775 42.6814 46.8216 48.5107 52.3474 54.2578C52.7827 54.7102 53.202 55.2013 53.9932 55.0172C54.9562 54.7942 54.2941 54.016 54.566 53.5652C55.461 52.0815 54.5382 51.0004 53.7023 49.9406C49.36 44.4387 45.1387 38.8283 39.7596 34.2474C37.995 32.7448 36.1951 31.2944 34.2456 30.0271C33.3832 29.4668 32.186 29.8641 31.4523 28.8047C31.154 28.3733 30.1968 28.3229 29.5037 28.6607C29.1434 28.8362 28.6916 28.9945 28.7244 29.4452C28.7627 29.9741 29.3355 29.7923 29.8483 30.0101Z" fill="#59D8C9"/>
<path fill-rule="evenodd" clip-rule="evenodd" d="M49.8922 11.7492C49.5491 13.6136 50.0133 14.8635 51.0648 16.1832C53.0908 18.7254 54.0142 21.8567 54.9751 24.9213C56.2464 28.9722 57.2439 33.09 57.9054 37.2905C58.0726 38.3548 58.4341 39.3941 58.7729 40.423C58.9017 40.8147 59.1069 41.2823 59.7321 41.0904C60.2418 40.9348 60.2798 40.5793 60.4134 40.112C61.4549 36.4669 60.2265 32.9699 59.6573 29.474C58.8813 24.7083 57.6285 20.0331 55.5235 15.6383C54.7509 14.0255 53.7976 12.5337 52.6221 11.1877C52.1181 10.6108 51.5596 10.1591 50.6979 10.3727C49.7528 10.6074 49.8518 11.3174 49.8922 11.7492Z" fill="#59D8C9"/>
</g>
<defs>
<clipPath id="clip0_170_5233">
<rect width="74.8522" height="66.973" fill="white" transform="translate(1.32642 76.0272) rotate(-91.0153)"/>
</clipPath>
</defs>
</svg>
