<svg width="233" height="157" viewBox="0 0 233 157" fill="none" xmlns="http://www.w3.org/2000/svg">
<path fill-rule="evenodd" clip-rule="evenodd" d="M181.482 6.90927C181.509 6.9696 181.536 7.03004 181.563 7.08974L191.254 5.38708C191.239 5.32528 191.224 5.26274 191.208 5.20041L181.482 6.90927ZM100.283 98.8588C103 95.0908 106.067 91.5101 107.041 86.8126C104.789 90.8283 102.536 94.8432 100.283 98.8588ZM110.735 59.5064C110.627 58.8798 110.569 58.2392 110.404 57.6287C107.727 47.7862 99.0109 46.6536 91.978 49.9902C89.6842 51.0774 87.8791 52.7302 86.1841 54.4848C84.6726 56.0478 83.1936 57.7436 82.1416 59.6225C79.5166 64.3127 78.4499 69.4821 78.3142 74.7868C78.1256 82.1667 79.068 89.3465 82.9919 95.8171C85.2891 99.6044 88.2391 102.683 92.5138 104.353C93.7427 104.833 94.4258 104.514 95.1441 103.543C100.414 96.4182 105.107 88.9754 108.081 80.5907C110.509 73.7475 111.925 66.7761 110.735 59.5064ZM161.782 14.6342C166.725 12.5445 171.667 10.4557 176.608 8.36599C172.678 9.66982 168.798 11.1396 164.968 12.7316C163.845 13.1981 162.866 14.0123 161.817 14.6637C159.413 15.0382 157.836 16.7445 156.171 18.3052C158.041 17.082 159.912 15.858 161.782 14.6342ZM91.5608 107.949C84.5245 105.097 79.6327 100.247 76.6379 93.75C70.9125 81.3276 70.8228 68.7633 77.3385 56.5094C80.3981 50.7545 85.2605 46.6365 91.5398 44.5573C96.8407 42.8024 101.905 43.7669 106.554 46.7091C111.179 49.6349 114.539 53.7098 115.892 58.9786C117.051 63.4938 117.443 68.2177 116.426 72.8842C115.611 76.6172 114.758 80.3563 113.602 83.995C112.906 86.1863 111.664 88.2265 110.551 90.2717C107.933 95.0757 105.246 99.842 102.7 104.978C103.885 104.403 105.145 103.943 106.241 103.233C109.781 100.939 112.376 97.7246 114.586 94.216C119.909 85.7615 122.815 76.3576 125.453 66.8496C127.747 58.5799 130.111 50.3292 133.863 42.548C141.213 27.3075 152.668 16.4017 168.384 9.89752C178.01 5.91373 188.205 4.50693 198.345 2.7624C202.16 2.10548 205.923 1.12576 209.711 0.300475C209.918 0.254997 210.141 0.279744 210.595 0.262939C210.207 0.774712 209.948 1.11779 209.895 1.18652C210.513 1.52952 211.142 1.87902 211.77 2.22789C211.393 2.8709 211.157 3.70363 210.605 4.11181C209.788 4.71681 208.783 5.15894 207.792 5.42654C205.071 6.16118 202.311 6.74257 199.579 7.43293C196.458 8.22196 193.355 9.08095 190.233 9.86695C189.475 10.0581 188.65 9.99398 187.9 10.2025C184.307 11.2004 180.673 12.0953 177.16 13.3304C174.006 14.44 171.042 16.0895 167.896 17.2277C165.499 18.0948 163.379 19.3605 161.288 20.7371C156.259 24.0506 151.539 27.627 147.751 32.4637C142.437 39.2472 138.576 46.7832 135.44 54.6634C133.571 59.3597 132.725 64.4454 131.249 69.3059C129.724 74.3249 128.033 79.2969 126.337 84.2629C125.481 86.7656 124.678 89.328 123.442 91.6503C121.866 94.6131 119.954 97.4139 118.036 100.181C116.791 101.976 115.455 103.78 113.848 105.24C110.121 108.633 105.65 110.251 100.585 109.765C99.0387 109.617 98.0099 109.939 96.9938 111.191C89.4772 120.46 80.6726 128.366 70.759 135.002C64.8444 138.964 58.9147 142.961 52.6759 146.363C44.6287 150.751 36.0452 153.92 26.8786 155.146C25.3964 155.345 23.8538 155.324 22.37 155.15C21.753 155.078 21.2177 154.34 20.6455 153.906C21.1144 153.461 21.5143 152.792 22.0678 152.62C23.012 152.325 24.0519 152.33 25.0527 152.234C25.7294 152.168 26.4369 152.252 27.0822 152.083C34.0408 150.26 40.6774 147.57 47.0024 144.181C63.4801 135.351 78.0312 124.091 90.109 109.772C90.5531 109.244 90.9695 108.693 91.5608 107.949Z" fill="#172327"/>
</svg>
