<svg width="90" height="85" viewBox="0 0 90 85" fill="none" xmlns="http://www.w3.org/2000/svg">
<g clip-path="url(#clip0_170_5709)">
<path fill-rule="evenodd" clip-rule="evenodd" d="M24.0305 15.8644C22.6575 16.0881 21.4838 16.7097 20.5092 17.6461C20.1069 18.0321 19.9664 18.7529 20.4564 19.1182C22.0575 20.3125 21.7581 22.0137 21.6987 23.5882C21.3195 33.605 19.3122 43.3477 16.5733 52.9539C15.5741 56.4596 14.4396 59.9271 13.3873 63.4174C13.2446 63.8912 12.9204 64.3525 13.5152 64.875C14.1084 65.3965 14.4821 64.8127 14.9108 64.8291C18.1652 64.9556 18.826 62.4125 19.8415 60.2166C24.9777 49.1111 27.3227 37.3877 27.5756 25.2049C27.6217 22.9755 27.4482 20.7557 26.7774 18.6175C26.3493 17.2554 25.6493 16.0761 24.0305 15.8644Z" fill="#172327"/>
<path fill-rule="evenodd" clip-rule="evenodd" d="M51.546 35.9289C51.1266 34.9585 50.5619 34.5819 49.6297 34.9317C48.7137 35.2752 48.2572 35.7513 48.2375 36.8508C48.1952 39.2031 46.9582 41.1948 45.8694 43.1816C42.0364 50.1786 37.6955 56.8701 33.4541 63.621C33.1203 64.1526 32.7451 64.6782 33.1149 65.4014C33.564 66.282 34.1593 65.4514 34.6623 65.6064C36.3184 66.1163 37.1444 64.9596 37.9708 63.8923C42.2602 58.3491 46.6842 52.8971 49.8294 46.5705C50.8611 44.495 51.8335 42.398 52.5921 40.2C52.9274 39.2277 52.2526 38.162 53.1033 37.1941C53.4498 36.8004 53.2674 35.8594 52.772 35.2684C52.5148 34.9612 52.2519 34.5611 51.8225 34.7019C51.3185 34.8668 51.6334 35.3787 51.546 35.9289Z" fill="#172327"/>
<path fill-rule="evenodd" clip-rule="evenodd" d="M74.1094 50.9657C72.2173 51.0833 71.1167 51.8358 70.0902 53.1751C68.113 55.7553 65.2976 57.4081 62.5561 59.0811C58.9325 61.2937 55.1778 63.2568 51.2617 64.9138C50.2693 65.3332 49.3481 65.9351 48.4317 66.5125C48.0827 66.7322 47.6785 67.0443 48.0158 67.6046C48.29 68.0616 48.6441 68.0125 49.1298 68.0292C52.9186 68.159 56.0151 66.1219 59.2698 64.7248C63.7068 62.8201 67.9406 60.4746 71.6964 57.3699C73.0747 56.2304 74.292 54.9449 75.314 53.479C75.752 52.8505 76.0554 52.1994 75.6399 51.4148C75.1837 50.5545 74.5187 50.8222 74.1094 50.9657Z" fill="#172327"/>
</g>
<defs>
<clipPath id="clip0_170_5709">
<rect width="74.8522" height="66.973" fill="white" transform="translate(0 19.373) rotate(-15)"/>
</clipPath>
</defs>
</svg>
