<svg width="32" height="32" viewBox="0 0 32 32" fill="none" xmlns="http://www.w3.org/2000/svg">
<path d="M22 9.0004C21.9943 9.0004 21.9889 8.99848 21.9845 8.995L17.7081 4.70619L16.0011 2.99419C16.0038 2.99443 16.0064 2.99557 16.0084 2.99743C16.0086 2.99754 16.0087 2.99765 16.0088 2.99776L22.002 8.99097C22.0021 8.99109 22.0022 8.99121 22.0024 8.99133C22.0045 8.99363 22.0056 8.99664 22.0056 8.99977C22.0038 9.00019 22.0019 9.0004 22 9.0004ZM15.9916 2.99743C15.9936 2.99557 15.9962 2.99443 15.9989 2.99419L14.2919 4.70619L10.0083 9.0022C10.0061 9.00425 10.0031 9.00539 10 9.00539C9.99837 9.00539 9.99678 9.00507 9.99529 9.00447C9.99469 9.00299 9.99437 9.00139 9.99437 8.99977C9.99437 8.99663 9.99555 8.99361 9.99767 8.99131C9.99777 8.9912 9.99788 8.99108 9.99799 8.99097L15.9912 2.99776C15.9913 2.99765 15.9914 2.99754 15.9916 2.99743ZM29 16.9998V24.9998C29 25.265 28.8946 25.5193 28.7071 25.7069C28.5196 25.8944 28.2652 25.9998 28 25.9998H4C3.73478 25.9998 3.48043 25.8944 3.29289 25.7069C3.10536 25.5193 3 25.265 3 24.9998V16.9998C3 16.7345 3.10536 16.4802 3.29289 16.2927C3.48043 16.1051 3.73478 15.9998 4 15.9998H12.0005C12.0342 18.1771 13.8264 20.0497 16.0847 19.9995C17.1306 19.9774 18.1261 19.5464 18.858 18.7989C19.5902 18.0512 20.0002 17.0463 20 15.9998H28C28.2652 15.9998 28.5196 16.1051 28.7071 16.2927C28.8946 16.4802 29 16.7345 29 16.9998ZM26 20.9998C26 20.5053 25.8534 20.022 25.5787 19.6108C25.304 19.1997 24.9135 18.8793 24.4567 18.6901C23.9999 18.5009 23.4972 18.4513 23.0123 18.5478C22.5273 18.6443 22.0819 18.8824 21.7322 19.232C21.3826 19.5816 21.1445 20.0271 21.048 20.512C20.9516 20.997 21.0011 21.4997 21.1903 21.9565C21.3795 22.4133 21.7 22.8037 22.1111 23.0784C22.5222 23.3531 23.0055 23.4998 23.5 23.4998C24.163 23.4998 24.7989 23.2364 25.2678 22.7675C25.7366 22.2987 26 21.6628 26 20.9998Z" fill="#172327" stroke="#172327" stroke-width="2" stroke-linecap="square"/>
</svg>
